<mxfile host="Electron" modified="2023-07-31T20:42:42.337Z" agent="Mozilla/5.0 (Windows NT 10.0; Win64; x64) AppleWebKit/537.36 (KHTML, like Gecko) draw.io/21.6.1 Chrome/112.0.5615.204 Electron/24.6.1 Safari/537.36" etag="JRAuNF1cvl2oPwMwICQf" version="21.6.1" type="device">
  <diagram name="Page-1" id="Pnbdt8dUDZK437FGX2Ev">
    <mxGraphModel dx="978" dy="571" grid="1" gridSize="10" guides="1" tooltips="1" connect="1" arrows="1" fold="1" page="1" pageScale="1" pageWidth="850" pageHeight="1100" math="0" shadow="0">
      <root>
        <mxCell id="0" />
        <mxCell id="1" parent="0" />
        <mxCell id="rWH31zUBPXZAnD3ZXqds-103" value="" style="rounded=0;whiteSpace=wrap;html=1;fillColor=none;" vertex="1" parent="1">
          <mxGeometry x="1320" y="80" width="920" height="520" as="geometry" />
        </mxCell>
        <mxCell id="hfZLVemqWH49EL7u3Sk2-1" value="Data Access Layer" style="rounded=0;whiteSpace=wrap;html=1;" parent="1" vertex="1">
          <mxGeometry x="80" y="40" width="160" height="40" as="geometry" />
        </mxCell>
        <mxCell id="hfZLVemqWH49EL7u3Sk2-2" value="Presentation Layer" style="rounded=0;whiteSpace=wrap;html=1;" parent="1" vertex="1">
          <mxGeometry x="80" y="160" width="160" height="40" as="geometry" />
        </mxCell>
        <mxCell id="hfZLVemqWH49EL7u3Sk2-3" value="Business Layer" style="rounded=0;whiteSpace=wrap;html=1;" parent="1" vertex="1">
          <mxGeometry x="80" y="100" width="160" height="40" as="geometry" />
        </mxCell>
        <mxCell id="hfZLVemqWH49EL7u3Sk2-5" value="" style="endArrow=classic;html=1;rounded=0;exitX=0.25;exitY=1;exitDx=0;exitDy=0;" parent="1" source="hfZLVemqWH49EL7u3Sk2-2" edge="1">
          <mxGeometry width="50" height="50" relative="1" as="geometry">
            <mxPoint x="100" y="260" as="sourcePoint" />
            <mxPoint x="160" y="260" as="targetPoint" />
          </mxGeometry>
        </mxCell>
        <mxCell id="hfZLVemqWH49EL7u3Sk2-6" value="" style="endArrow=classic;html=1;rounded=0;entryX=0.75;entryY=1;entryDx=0;entryDy=0;" parent="1" target="hfZLVemqWH49EL7u3Sk2-2" edge="1">
          <mxGeometry width="50" height="50" relative="1" as="geometry">
            <mxPoint x="240" y="260" as="sourcePoint" />
            <mxPoint x="240" y="300" as="targetPoint" />
          </mxGeometry>
        </mxCell>
        <mxCell id="hfZLVemqWH49EL7u3Sk2-8" value="" style="endArrow=classic;html=1;rounded=0;entryX=0.75;entryY=1;entryDx=0;entryDy=0;exitX=0.75;exitY=0;exitDx=0;exitDy=0;" parent="1" source="hfZLVemqWH49EL7u3Sk2-2" target="hfZLVemqWH49EL7u3Sk2-3" edge="1">
          <mxGeometry width="50" height="50" relative="1" as="geometry">
            <mxPoint x="300" y="200" as="sourcePoint" />
            <mxPoint x="260" y="140" as="targetPoint" />
          </mxGeometry>
        </mxCell>
        <mxCell id="hfZLVemqWH49EL7u3Sk2-9" value="" style="endArrow=classic;html=1;rounded=0;entryX=0.75;entryY=1;entryDx=0;entryDy=0;exitX=0.75;exitY=0;exitDx=0;exitDy=0;" parent="1" source="hfZLVemqWH49EL7u3Sk2-3" target="hfZLVemqWH49EL7u3Sk2-1" edge="1">
          <mxGeometry width="50" height="50" relative="1" as="geometry">
            <mxPoint x="240" y="110" as="sourcePoint" />
            <mxPoint x="240" y="90" as="targetPoint" />
          </mxGeometry>
        </mxCell>
        <mxCell id="hfZLVemqWH49EL7u3Sk2-10" value="" style="endArrow=classic;html=1;rounded=0;entryX=0.25;entryY=0;entryDx=0;entryDy=0;exitX=0.25;exitY=1;exitDx=0;exitDy=0;" parent="1" source="hfZLVemqWH49EL7u3Sk2-3" target="hfZLVemqWH49EL7u3Sk2-2" edge="1">
          <mxGeometry width="50" height="50" relative="1" as="geometry">
            <mxPoint x="210" y="110" as="sourcePoint" />
            <mxPoint x="210" y="90" as="targetPoint" />
          </mxGeometry>
        </mxCell>
        <mxCell id="hfZLVemqWH49EL7u3Sk2-11" value="" style="endArrow=classic;html=1;rounded=0;entryX=0.25;entryY=0;entryDx=0;entryDy=0;exitX=0.25;exitY=1;exitDx=0;exitDy=0;" parent="1" source="hfZLVemqWH49EL7u3Sk2-1" target="hfZLVemqWH49EL7u3Sk2-3" edge="1">
          <mxGeometry width="50" height="50" relative="1" as="geometry">
            <mxPoint x="130" y="150" as="sourcePoint" />
            <mxPoint x="130" y="170" as="targetPoint" />
          </mxGeometry>
        </mxCell>
        <mxCell id="hfZLVemqWH49EL7u3Sk2-12" value="" style="rounded=0;whiteSpace=wrap;html=1;fillColor=none;" parent="1" vertex="1">
          <mxGeometry x="50" y="10" width="220" height="220" as="geometry" />
        </mxCell>
        <mxCell id="hfZLVemqWH49EL7u3Sk2-13" value="Temel YapÄ±daki N Layer Architecture" style="text;html=1;strokeColor=none;fillColor=none;align=center;verticalAlign=middle;whiteSpace=wrap;rounded=0;" parent="1" vertex="1">
          <mxGeometry x="280" y="10" width="140" height="30" as="geometry" />
        </mxCell>
        <mxCell id="hfZLVemqWH49EL7u3Sk2-18" value="Onion Architecture" style="text;html=1;strokeColor=none;fillColor=none;align=center;verticalAlign=middle;whiteSpace=wrap;rounded=0;" parent="1" vertex="1">
          <mxGeometry x="750" y="10" width="60" height="30" as="geometry" />
        </mxCell>
        <mxCell id="hfZLVemqWH49EL7u3Sk2-24" value="" style="group" parent="1" vertex="1" connectable="0">
          <mxGeometry x="459.99999999999994" y="30.18" width="280" height="280" as="geometry" />
        </mxCell>
        <mxCell id="hfZLVemqWH49EL7u3Sk2-22" value="" style="rounded=0;whiteSpace=wrap;html=1;fillColor=none;container=1;fontSize=11;" parent="hfZLVemqWH49EL7u3Sk2-24" vertex="1">
          <mxGeometry width="280" height="280" as="geometry" />
        </mxCell>
        <mxCell id="hfZLVemqWH49EL7u3Sk2-23" value="" style="group;fontSize=10;" parent="hfZLVemqWH49EL7u3Sk2-22" vertex="1" connectable="0">
          <mxGeometry x="9.82000000000005" y="9.82" width="260.36" height="260.3571428571429" as="geometry" />
        </mxCell>
        <mxCell id="hfZLVemqWH49EL7u3Sk2-15" value="" style="ellipse;whiteSpace=wrap;html=1;aspect=fixed;fillColor=#dae8fc;strokeColor=#6c8ebf;" parent="hfZLVemqWH49EL7u3Sk2-23" vertex="1">
          <mxGeometry width="260.3571428571429" height="260.3571428571429" as="geometry" />
        </mxCell>
        <mxCell id="hfZLVemqWH49EL7u3Sk2-16" value="" style="ellipse;whiteSpace=wrap;html=1;aspect=fixed;fillColor=#f8cecc;strokeColor=#b85450;" parent="hfZLVemqWH49EL7u3Sk2-23" vertex="1">
          <mxGeometry x="45" y="45" width="173.57142857142858" height="173.57142857142858" as="geometry" />
        </mxCell>
        <mxCell id="hfZLVemqWH49EL7u3Sk2-17" value="" style="ellipse;whiteSpace=wrap;html=1;aspect=fixed;fillColor=#d5e8d4;strokeColor=#82b366;" parent="hfZLVemqWH49EL7u3Sk2-23" vertex="1">
          <mxGeometry x="87.5" y="87.5" width="91.60714285714286" height="91.60714285714286" as="geometry" />
        </mxCell>
        <mxCell id="hfZLVemqWH49EL7u3Sk2-25" value="" style="endArrow=none;html=1;rounded=0;entryX=1;entryY=0;entryDx=0;entryDy=0;exitX=1;exitY=0;exitDx=0;exitDy=0;" parent="hfZLVemqWH49EL7u3Sk2-23" source="hfZLVemqWH49EL7u3Sk2-16" target="hfZLVemqWH49EL7u3Sk2-15" edge="1">
          <mxGeometry width="50" height="50" relative="1" as="geometry">
            <mxPoint x="150.18" y="87.5" as="sourcePoint" />
            <mxPoint x="200.18" y="37.5" as="targetPoint" />
          </mxGeometry>
        </mxCell>
        <mxCell id="hfZLVemqWH49EL7u3Sk2-26" value="" style="endArrow=none;html=1;rounded=0;entryX=0.5;entryY=1;entryDx=0;entryDy=0;exitX=0.506;exitY=0.999;exitDx=0;exitDy=0;exitPerimeter=0;" parent="hfZLVemqWH49EL7u3Sk2-23" source="hfZLVemqWH49EL7u3Sk2-15" target="hfZLVemqWH49EL7u3Sk2-16" edge="1">
          <mxGeometry width="50" height="50" relative="1" as="geometry">
            <mxPoint x="170.1799999999999" y="232" as="sourcePoint" />
            <mxPoint x="199.1799999999999" y="200" as="targetPoint" />
          </mxGeometry>
        </mxCell>
        <mxCell id="hfZLVemqWH49EL7u3Sk2-27" value="" style="endArrow=none;html=1;rounded=0;entryX=0;entryY=0;entryDx=0;entryDy=0;exitX=0;exitY=0;exitDx=0;exitDy=0;" parent="hfZLVemqWH49EL7u3Sk2-23" source="hfZLVemqWH49EL7u3Sk2-16" target="hfZLVemqWH49EL7u3Sk2-15" edge="1">
          <mxGeometry width="50" height="50" relative="1" as="geometry">
            <mxPoint x="49.18000000000001" y="159" as="sourcePoint" />
            <mxPoint x="20.17999999999995" y="130" as="targetPoint" />
          </mxGeometry>
        </mxCell>
        <mxCell id="rWH31zUBPXZAnD3ZXqds-2" value="Presentation" style="text;html=1;strokeColor=none;fillColor=none;align=center;verticalAlign=middle;whiteSpace=wrap;rounded=0;fontSize=7;" vertex="1" parent="hfZLVemqWH49EL7u3Sk2-23">
          <mxGeometry x="2.1799999999999997" y="123.3" width="39.82" height="20" as="geometry" />
        </mxCell>
        <mxCell id="rWH31zUBPXZAnD3ZXqds-23" value="Infrastructure" style="text;html=1;strokeColor=none;fillColor=none;align=center;verticalAlign=middle;whiteSpace=wrap;rounded=0;fontSize=7;" vertex="1" parent="hfZLVemqWH49EL7u3Sk2-23">
          <mxGeometry x="101.92" y="10" width="59.73" height="20" as="geometry" />
        </mxCell>
        <mxCell id="rWH31zUBPXZAnD3ZXqds-24" value="Persistence" style="text;html=1;strokeColor=none;fillColor=none;align=center;verticalAlign=middle;whiteSpace=wrap;rounded=0;fontSize=7;" vertex="1" parent="hfZLVemqWH49EL7u3Sk2-23">
          <mxGeometry x="220.54000000000002" y="120.18" width="39.82" height="20" as="geometry" />
        </mxCell>
        <mxCell id="rWH31zUBPXZAnD3ZXqds-25" value="Domain" style="text;html=1;strokeColor=none;fillColor=none;align=center;verticalAlign=middle;whiteSpace=wrap;rounded=0;fontSize=8;" vertex="1" parent="hfZLVemqWH49EL7u3Sk2-23">
          <mxGeometry x="110.27000000000004" y="121.79" width="39.82" height="20" as="geometry" />
        </mxCell>
        <mxCell id="rWH31zUBPXZAnD3ZXqds-26" value="Repository /Service Interface" style="text;html=1;strokeColor=none;fillColor=none;align=center;verticalAlign=middle;whiteSpace=wrap;rounded=0;fontSize=8;" vertex="1" parent="hfZLVemqWH49EL7u3Sk2-23">
          <mxGeometry x="81.87" y="60" width="96.61" height="20" as="geometry" />
        </mxCell>
        <mxCell id="rWH31zUBPXZAnD3ZXqds-38" value="" style="endArrow=classic;html=1;rounded=0;fontColor=#8FFFA2;fillColor=#dae8fc;strokeColor=#6c8ebf;" edge="1" parent="hfZLVemqWH49EL7u3Sk2-23">
          <mxGeometry width="50" height="50" relative="1" as="geometry">
            <mxPoint x="224.54000000000002" y="120.18" as="sourcePoint" />
            <mxPoint x="204.54000000000002" y="120.18" as="targetPoint" />
          </mxGeometry>
        </mxCell>
        <mxCell id="rWH31zUBPXZAnD3ZXqds-37" value="" style="endArrow=classic;html=1;rounded=0;fontColor=#8FFFA2;fillColor=#dae8fc;strokeColor=#6c8ebf;" edge="1" parent="hfZLVemqWH49EL7u3Sk2-23">
          <mxGeometry width="50" height="50" relative="1" as="geometry">
            <mxPoint x="37.18000000000001" y="123.30000000000001" as="sourcePoint" />
            <mxPoint x="57.18000000000001" y="123.30000000000001" as="targetPoint" />
          </mxGeometry>
        </mxCell>
        <mxCell id="rWH31zUBPXZAnD3ZXqds-36" value="" style="endArrow=classic;html=1;rounded=0;fontColor=#8FFFA2;fillColor=#dae8fc;strokeColor=#6c8ebf;" edge="1" parent="hfZLVemqWH49EL7u3Sk2-23">
          <mxGeometry width="50" height="50" relative="1" as="geometry">
            <mxPoint x="131.57999999999998" y="38" as="sourcePoint" />
            <mxPoint x="131.57999999999998" y="58" as="targetPoint" />
          </mxGeometry>
        </mxCell>
        <mxCell id="rWH31zUBPXZAnD3ZXqds-39" value="" style="endArrow=classic;html=1;rounded=0;fontColor=#8FFFA2;fillColor=#f8cecc;strokeColor=#b85450;" edge="1" parent="hfZLVemqWH49EL7u3Sk2-23">
          <mxGeometry width="50" height="50" relative="1" as="geometry">
            <mxPoint x="90.27000000000004" y="170" as="sourcePoint" />
            <mxPoint x="110.27000000000004" y="150" as="targetPoint" />
          </mxGeometry>
        </mxCell>
        <mxCell id="rWH31zUBPXZAnD3ZXqds-33" value="Her katman kendisinden Ã¶nceki katmanÄ± referans eder." style="text;html=1;strokeColor=none;fillColor=none;align=center;verticalAlign=middle;whiteSpace=wrap;rounded=0;fontStyle=1" vertex="1" parent="1">
          <mxGeometry x="740" y="100" width="100" height="130" as="geometry" />
        </mxCell>
        <mxCell id="rWH31zUBPXZAnD3ZXqds-40" value="" style="shape=image;verticalLabelPosition=bottom;labelBackgroundColor=default;verticalAlign=top;aspect=fixed;imageAspect=0;image=data:image/png,iVBORw0KGgoAAAANSUhEUgAAAW4AAANLCAYAAABhXHcjAAAAAXNSR0IArs4c6QAAAARnQU1BAACxjwv8YQUAAAAJcEhZcwAADsMAAA7DAcdvqGQAAHMsSURBVHhe7d0NnBvVfS/8v23W1CakcdKENydrwd2LG+6mLtDS9DpB3Wy39oWlICM3htwEpd27vD1rtqV5ivIBbFzk3pY+a1xeunYbUQKEsLnig02Du9lsRfAtIY3Lk7vlPnC3QSi2SSBt3JBQCsbmOf8zZ6Qzo5nRSDuj1dH+vv2o7Iyk0Uvgt2ePRue3qLu7+x0CAABjLLrhhhsQ3AAABpHBfeDAAbUJAADtbrH6JwAAGGJOI+6dO3fS+9//frUVzg9/+EMaGRlRWwAA0Kg5BfeXvvQluvbaa9VWOPfccw9t2rRJbQEAQKPab6pkfY6+/vWvq0uO1qvd/tZT7uv30zVnq82wzr6G7m/mfr7E87j/GnIczvFavk73h32wiJ/b+px4/Fz9d9Jb0Pvr8Zo1Z19zf+Vx5c8N/e/qYr+XHo8352OHFfm/M078v1Pof0dgQZvTiPvuu++m9773vWornB/96Ed03XXXqS0X/g/jng/Slz6RpSfU9jVn3kv3yg0/HCyb6OC1n6Z7X1C7PIW9XbM4xFbRX336XpKH56C5cSV9pfJ4Z9M1999DH336Wvp0PE/AG7+nn/8gHaKVdPD2Zl570Pvmes06+bhEt6vrOJQ+9tQnKBv4v6Uffg43Et3hff+5HbtVwvz7x/+OyDctpn9HoVPMacT9gx/8gIaGhhq6TE5Oqnt7OPODdMbhg/Si2qQX6oV2uxL/AW66gJ65Q/8P8AW69/avEF3+GfGfcOuc3fdRoqf/iv7qaaKP9rVuNGc97rQW6IfpYOV/2GYE3X+ux24X4t+RLx0S/4q08t8QMFHLpkrO+cCv06+deQ0998whtcfDE0/RM2dcTp/3+nNR/plq/zn8dfL+y59HNfqfsva2NWK7gM6gy+8R95d3dt3W9/jqdtdUpz28/5x9grL2yPPsPvroGc/QU+5fOi9M09OHV9Iqefeg40b13M4mKz9fEA8tk1ubZrDum8vxNIM9vcAjPq/HEcT/dvZzqD6G9podqo9rb69aqd77mueo8Xyd/Dyr/9vV3jfMsdX7tN7rNXi8D/Xeb/uujtvpUzTu99H5Gqx//3ze6xcP0uGVq8S1AP5iD+5FixbRR079L9R72gCdcvKZlDzrd9Q1XkQQfOJaevqj9zj/Zeb/YO65nA6JP5U/8QlxufYrtPJG7T+guvi4d9AzYmT2lWvF/Wv+pq53fPEf3Aefsq674xk6I8yoWf/LweEM+uCZ6sdQx53Dc+NfIPQ0yfzkXxpiyznoPoNWHrxd3JenpjhIrKkceSxxqb5N4jE2ib/gA5+n7kz64BmH6KVKoouR5KfV8xf/Oxy6/PMe/9v5vU7n/3a100xhjs201yCOTY7b6e9D2H/X+Hbi3eV/n/h2dxBtkjfyeh89/v1b/xm6/NAd2m2so9ILL9GhMz4o3kEAf5EH9385+3N0/hkbaMnipbR48WI697TfpA+f8mv0zz89qG5Rj/oPUf4Ho8L77FW0UvxrXxnBvnAvfekZPQDnqO7xxX9wf6Wu5L8KxK2tUXMA3//49D/rQxx3Ds/NOV3xAvGg2/ln+OHqqFj9lfAlz8lV8Ri3q5F12Nfv6wl6Sjz/mmmbSP439jm2pL0Gj/ew+j6EfB7yduKXgRrpf/1GMZ7mGwW+jxoeWV9wo8dfCC/SwcpfZQDeIg/ud//M+6lr8XLq/w/X0/mnb6Se9/9n+v9+8BTtnfljdYuQxH8wt3/lMF3wseCxXVuSUyIXUM1Tl/9R6yPROK2nz1x+hhgdW3+98OUesS3e0Dqj5dY4FOObUP/YPL2ifpyTZ+gONWKWl0Y+HRX/fn9a3Od2+rzrr0v3XysAtWKZKvnbF/6STjxhOZ35vvNo9tVv0v/87kN07Pjb6toA66/R/iTledIz6DAPT/nPR9KC8OxraNMF2qiogkcr2uho/cfEvUIIffyw+EOmZ+iCG/V5T+tPcDE8FuPCBjT73Pi1H/4KXasHyyeupa94/UJh6peN9ef+XAWMGuXz9/gwMYr/DfyOLWkjcb/PIFjY56FuV/N+Nfg+vnDvp+laMUBZWfkzSYzkfafZACyxBPevnf3b9ObR1+m7/3yAej7wK/Sfz7qCliw+QV0b4ImX6IP2n55fv0fOAVpzmk9QVk2dyOvk3KI6ZdDBDkx1u4/xmMhm/Rld/XBIF/b4DXgiK+c9b5SvhS/W6WyNnwrY3HNb/7EL6LDjrA7G0yV+f8XwFBXPEVdH6DVvU2jWtEx1ykL80rLfBzl/7HW6W7P/G4Q5NjtMhz5ojW6t2/kdO+zzsG4n/oWybscX+Yb5vY+uf/+0c/zvufxQdWqFz6w69JLrfzcApzmdx33zzTfT2NiY2rLwHPcPXvsn+rvvPkzH33lbhPYmOvuUtXKO++fe9UF5m7/4n9fIf0IHEyNV/Tzu+cXhHsU5/Hycj9FT9vcMIscfbOI8bqhvTiPuH//4xzQ6Olq5sMJ3bqNvzN5Pbx9/SwT3cXrqnx6i/3V4qhLasEDwZxRPf5TuaX7Y3n7k9FN80xjrc/xX5pcQ2lBXy5Z1Pb/7N+nUd/eIEP8b+t6PZtRegFaY44ib/3q453I6g89MmfOoHWDuWhbcAAAQDRnc6mcAADAAOicBAAwTy+mAAAAQHwQ3AIBhENwAAIZpiznupwujdNoH3q22qv7tjbfos597iL75bFntAQCAtgjul/bfSju+UFRbVef3fojW/pL38nDff/U1+mjK+a3NWr2UnSpQplttlvOU6s8RziIHAJPNObhXrlxJhw4FlCOEwMHt5c233qbHvvYdevmVn6g9VTd8Nkmr1m5VWx56szRVyFAp20NDE9V92dU5ytnbAAAGmlNwn3POOXTbbbfRhg0b1J7m+I24gwQHtzXSToxroQ0A0CGa/nCSQzuXy9Hy5cvVnjbSO0h93UWaDAptHpHPztKsuuxOq/2Upt2zU7R795TYv1tsCY7bqn0AAPOkqeDm0N6+fTstXbpU7WlD5RI9r36sJcJZTaP09IhLKk+J3BRle9XV1E2J0qi4bogm5G37aDqlbpslGq7eEACg5RoObju0u7q61J421Z2g1erHGr09lCBtRD6To/GiCOvKHco0vVd9hClv202Zghpx55Li0L5HBgCIXUPBbUxoz+yl6XKSBiKb0yhSlkfb9gUT5wAwj0IHN589wh9Etn1oSzOUGy9SMqfPXQt8Vglvz8xSibRgF/uHkz5z4uq2mB4BgHbR1udxB6l7OiDjDxULGbJP43acx+24rkz5VD/l5BX84eQwlSrbgvs4xSxG3QAwb9r6m5NBwn0BBwCg87RFcAMAQHhNn8cNAADzA8ENAGAYBDcAgGEQ3AAAhkFwAwAYBsENAGAYBDcAgGE66jzuLVu20IoVK9RWOEeOHJH3AwAwRUcF95133km33HKL2gqH11/ZvHmz2vKR3i1XBbSV8ynqr3wfPoD8qjwvCat9fX4O0rtnKUfNft3e46v8dczt8dy0xxfHjOx9ifg9BjBB20yV8CJWbUmGdoLy9nrcPSma7ivQVJhFp2Zy1N8TUaCIgBpOFKmYGNbWDY9RnI83p/eFfwFoa6dH+R4DGKItgpuXi+XRclSWdC2h84fOp0t3X0oX33Mxrfr4Krn/U49/yvHP+nopO5ykYlYPhhnKjeaJMiMiQlqnd7CPaHon7Zwm6huMP7lb/XgAEN68B3ccFWhrPrOGTjz5RNpzzR56/NrH6eAzB2tCO1R4+1WgyfW+E9Qj80yNALNiZK7qzaqjcdfokP+sr1Sg1daleR+D9ZLM0b0z4qFlkoo9Nuu+jqo12bnp9TjC6upz8P+rof7jZdNexwm6Tud6X3yeL0/V2Ptm5U6+X46SdrFFZV8U7zGAOeY1uOOqQEskE3Qgf4COv31cbh978xg9cPED8mf3P+vyrUDTG3NEkCQmVbVZkbo9R+MiOOrUpfkeg3+B0DTJUh7+pSG2nINgvWrNKkrum05ZxxKX6hS1eIxhotHA5ymEeLzKccTroMyY83X4XufF//lODFnbPT1ZKiZ5ymaChvhnuQyv2F8z9z6H9xjAIPMW3HG26Zxw4gn0zjHnZ65NjbiZbwVamUqVRBdBstNOm0kRLPZoXBOiLs3vGNa0xV5rHXHx/3kQnBnRI0evWrP+Shj3nPQVjzGq1iP3e55CmMerHMfrdfhe5yHo+fLnC3J0zKPsEObwHgOYZF6CO+4KtMPfPky9nxT/RYpXt2jRIupa3tXciNuvAk2GTYlmPbImemkayXSL0WGh8id+QWxTciCm0WKjj9dLPQn1Y42g6+rgKY8cqcq4FOXLaj8AtD64W1GB9q17v0XL37ucUn+ZosF7BunUj5wq9zc8TSLGjVYFmj13zKw/x8XQjeyBXSiN1KXp0gOU5OYeGWD2hYPMp1NT/bJprGpNmycO9Xjd1Q8s1Yi5+jqCrvPg93xXJ6jbnqaSx5F7gzX7HgMYpuXBfejQIdqwYQOtX7++5hKVN197k77xR98QI8WC/IDy4DcPqmuaMDFEPVminBp98p/tYhgY7jxuhwkaknOu6jjy3GOekw6WHkhSuTJtYePpi7IYBHsmN+X6s1TSRsyODyfrCPd4ZSolxtTr4Dll/XUEXefF5/lO7KQ8ZajA+8YSVKqMuCdostitfTipa+49BjANvoAT5gs4oOHRud8XeYKuA4Co4Cvv+Mp7gxDcAPMNnZPQIAQ3wHxDcAMAGGbezuMGAIDmILgBAAyD4AYAMAyCGwDAMAhuAADD4KySJvmtH44v8wBA3BDcPtzB7A5kr29p+n8Lk89vdq5wF7r+LFYxnXfNC0ShTgwgNh03VRJlBRoHsx3O69atc1waV9bqz9TaHI0sImIS1IkBxKqjgjvqCrT4WIshlWNbmhUAOlnHBHccFWg89cEXtm/fPnm56aab5GXNmjW0Z8+eyqVh7rW+HZVb9jKyPJUx5V8FFnQfv4ou7T5T2R61U2nmeJ61Y+o+9s08jxtQrwYAgToiuKOsQHvyySflhYOZLzxn7Z63TqVSjguzA745IujknLCaSsmStj61XxVYnft4VnTxfarVXqPUp827N3O8oJo0m89x0yOUKWUD7gcAfowP7jjadPRAvvLKKx0XP14BX5+qP5OVW2qNaR6B5pLUXenb8qkCq3cfr4ouvk85T/ZVM7lxcZ3S1PECasdsfsd9vkTlZA6FvQBNMDq4465AYyeddJLjEpma+rOiqulSF88hqLsKLMx9GhH18Wwex5UfYPKo3ypdwFQJQHjGBnecFWiFQkFe2K5duxyXaNhTFqqdRVVu1dR3ST5VYIH38cH36c6Q3fvbmx2uTpU0dbwQNWl1jjuT66dUvkwJtPYChIbzuBvE899eLrzwQvWTFxHUjvO4+dRA1+ly/AGeCPNKtWIxK0amJO43zANWSiata4pZbT444D7Vc7P5sbVtbk7PWc+knM9TKdNXva6Z47lem/X8XLfxOu7kQOV5iB1iRI6KMYCwENxtzR2SAAAddDogAMBCgeAGADAMpkoAAAyDETcAgGEQ3AAAhkFwAwAYBsENAGAYfDgZs6Av7LivC/4SDwCABcEt8Jonzz33nNoCAGhvmCoRtm3bJsPbJOndsxE16PC3M6eqa2cDQNvDiFt44okn6PXXX6dbb701lpG313SJ11SJre6UCa/9MZagEonL6Fy/Do+v1QOYBsEtcHDffvvtdMMNN8QW3lHqzU7RGI3KJVH5n3MrHUZwA5gGUyXK/v37aceOHbR169Y2nzbppcE+oum9MzSzd5qob1DssalpD5+aMTm9ovbXTrNYVWKO3byS4FSW0uIXReV++n155F/Z76w6272b78P7UFEGEDUEt4bD+9FHH5XhHWlpgrBkyRI67bTT6IorrpDbPE3idamL1+SmaRK5ba2HLbbs5botfjVjRBNDdplBlorJYde89gzlxouUHKgma3ogScXxHE3k+qv34yVY5bqyIqADqs4SpVGxf4gmUFEGEDkEt4ZH2pdddpkcefOc91wtWrSIBgcH6cEHH6SpqSm644476OjRo3I/z2N7XerptYbbVpWZ+P886M7YzQiST80Y4xG0HPnqa4Nr+PaV5vk0DSSqNWcsvTtHIrWtdbPrVJ3xXwQSKsoAIofgVji0eaTNoc0j7yhcffXVdOONN8q2nsWLF8t/Xn/99XJ/c9I0kukWo+hCZeqhILbFMLkyqvbF0xqcu3Lkm6J8We13mKCd+YQcOXM7TqLyC0IQoZ+jrGvEHKLqDBVlAJFDcCtRh/ZZZ51FGzduVFtEq1atUj+R3M/XNyw9QMlynlJ6WMoQTpI2w+FttRgfl0vE3cRWBZrcW8OaNx+hETWPbkmTNdjWgrnBqjNUlAFEB8EtHDt2LNLQZuedd54cZdteeukl9ZN408X+c889V22Fx3POZX0ULPF0SdkxN+1pYiflKUMFHqnzqYSeI26Bm+RLSUqWxitnmfAUidhDOTXK5w8se8XofCiVJ9JG/57nlVemZ/ivg1JwIzwAhILTAYW1a9dGGtqMR9XXXXed2rJG3Hp433XXXTQx4TG10Ab47JOBSXyQCNCuMOIWog5t9uyzz9I773j/Tjx+/DgdOHBAbbWZ3iwNuz6UBID2guCOCU8NPPbYY2rLOVXy8MMP04svvqi22oU635pP8RvNuaZjAKCdYKokZhdddBFt2rSJTj/9dHr55ZfpoYceoq9+9avqWgCAxiG4AQAMg6kSAADDILgBAAyD4AYAMAyCGwDAMAhuwbT2GwBY2HBWiVAoFOjmm2+OvUDhqquuokwmo7a88UqCu3btUltuvNa1c2W/cj41xyKF+cavCUUOAI1AcAtxV5fZeL3tVCqltrzxLxH/5V07MeQQ3ACNwlSJMp/tNxzWfAEACAPBrfB6JVGHt1+zjR3U0YU1j1r1ujCxx7OmzLpdNl2tHOOruMPSvq2j8MCjmoyPW10EUB3Pvgvf3r7Scd/a++jPtYqvE7eXN0blGYAfBLeGwzuu6rKgWjKePqk3hVKltc44Ak2rCxNb/jVl4v7DRKN8XbZIydysLByWt3VUnYkQ9agmm5jU6s3SA5Qoc+2ldXDZzlPiFb/5vhkqZdV9U3lK5LSAdz1XCwe1bHqwChlQeQbgC8Gtibq6TBdUS9bY6LtMeTtMHYGm1YUx35oycX97ESlZbabdT68686sm4yqyRI+IWc7tBE2P24XF1RJj675FmrSfG6/xXRRhbTebuZ+r0DdWoL7pVPX1oPIMwBeCW4mjusyvS9IeYYcfZTcoVE1ZGB7VZJWCYu6knKa9E7ydoNV6iXHDuI6nrHVWCqg8A/CF4FaiDu1GRB7iIWvKAvlWk1kFxX1jdiclbydoYCRRLTFW97VnVPgXyXBSG4HXECPw0X7KUu0IG5VnALUQ3EIc1WVe+Pxs/YNJr8t9992nbj0HYWvKAvlXk8leSvHLwJ7u4O1EMqFNf1j3TeTU/eRcuT6f7W1iKEXTfeLxuBoNlWcAvnAetxBHdRkAQFwQ3AAAhsFUCQCAYRDcAACGQXADABgGwQ0AYBgENwCAYRDcAACGQXADABgG53HH6JFHHqFTTjlFbYXzyiuv0MaNG9UWAEAtBHeMwjTeuPHX3oMbcPTV/nilwCaaY3gRKvk1dLTOAJgIUyU+Vq5cqX5qN9VlXeVSImNZucRqQ+TKe82GtlWEgNVWAeYPRtweeInX2267jTZs2KD2NGffvn20bNkytRXOG2+8QevWrVNbbhyaej+je7sV5uMxAUCHEbcLh3Yul6Ply5erPc174YUX6JJLLmnowvdpjjUSdlSC1akPq4yaHbfT68Tc9WF8P56qUQUL8oCoGANoNQS3hkN7+/bttHTpUrWnvfVmhylZ1ssL9EowEbKB9WE2vl1tRZkVyFYrjV2kMDQxQUNchWZP16BiDGBeILgVO7S7urrUnnZVrRPjdaqz/aqGTNIqwerWhyl+FWWygKFYfx1sVIwBtByCWzAntJneOVm/nCAcj4qysFAxBtByCz64+ewR/iDSjNBuQNj6ML+KMu6WLHtVl3lDxRhA6yz44D506JA8e2T9+vU1F7OFrQ/zqyiboVx/lkrafms0PUGTRe3DSVSMAbQcTgeM0Z133km33HKL2gqHR/+bN29WW3Hhs0MGaDKyqRYAaCUEd4y2bNlCK1asUFvhHDlyRN4vVjxKHi5RyvHBJgCYAsG9kMivumeou9mvygNAW0BwAwAYBqcDAgAYBsENAGAYBDcAgGEQ3AAAhkFwAwAYBmeVGAAVaACgQ3AbIPoKNIW/iJPTitDyKeoPc3J3xNVn6d2zlKNsY4tbVfC3QMMUO9hriVeFfr1RiPg9g4UNUyULlQzthLbSYIqm+wrhlmedU/WZCy9+lShSMTHcgjo0fWVFtQ5Lq5YzjPI9gwUPI24DRF+BZpUkJMZdxQdyVJig8RauYdKbnaIxGpXLwvI/Gx8BNzLidt1uHl4vQBQw4jZA5BVoqiShdolXXso1QdbKrBx0U5TNVlf/q47G1XX2Jgegug1fqoPYoGOwXhrsI1n+MLN3mqhvUOyxWfd1VLEF1aStrj6H0KUOaunaAfs49V5Huno9X8e/dOzb6o/JUz/2/uqIXn/P6r0vAMEQ3AtVuUTPqx+d9JacbsokJq2phWyRujMjKkB1IoQCK9ICjsG/QEhVr3GIiq1BR37pVWxeVWrqZvwYw0Sjgc+znhCvQ3uMZG5W/oXg9bomhtQxuOYt6TcFFOa9BfCG4F6ouhPkbjGzlKlUSfQy5XeqdJyYpCLZo3FN3Yo0/2P0WsNttULhDPGgOzOix5dexRZUpSYeY1StdOj3PH2p1xvmdTgeQ3tu7sesrFHu/DDUKcR7C+ADwb0QuacIbDIcSzTrlY2RS9NIpluMNKtFDQWxTcmB1o0843i9PN2SI1UFl6J8We0HiBCCe0Gaodw4/7lvzx0za6pADAMb+6AubEWaW3qAkuU8pWTA2RcOOo9fKKzBKjWLPq/sZk+NqA8mm30dbqsT1G1PQ8lfDHIvQKQQ3AvVxBD1ZIlyarTLf9aLYWITZ3WErUhzSg8kqVyZJrHxdElZDLo9k9unSq0R3dU2e3mGiT5P3tzrqDGxk/KUoQIfYyxBJYy4IQY4HdAA7VuBBgDzAcFtgLatQAOAeYHgBgAwDOa4AQAMg+AGADAMghsAwDAIbgAAwyC4AQAMg+AGADBMR50OiPOdAWAh6KjgjusbhrzuslwASQldeaWqwSKpyOLFiwoZ4mdRzLoKEMKyj1GsVxPGa3zUrmzX0qqvKN87gA7TNlMlK1euVD+1F14Un0Obw7K6dnILK68UXgLV/tWRaNX6n9oiUKl8eV5eNwDUaovgPuecc+RoOSpLupbQ+UPn06W7L6WL77mYVn18ldz/qcc/5fhnXXKFOPFPMUKtDFAnhkhkN5HvAvkaXshJhN7cR4zcFCNiu1ykYpmo29EU0xozuVFridIwrzsKkb13AJ1n3oObQzuXy9Hy5cvVnrlb85k1dOLJJ9Kea/bQ49c+TgefOVgT2mHC2x7lFl1rez4vl3zrpj6ua7EXzZ+aqtZeTWWtYFXXVWqpKgvsW5ea/V7HYGp50PL0Tto5LZO72hTD0x/2feRFLdXq2u+oxkoMez9OIGvlPn7dlXIBv9djP7b+eio1ZGrbHrm7n7/Xe1fv/QFYYOY1uDm0t2/fTkuXLlV7opFIJuhA/gAdf/u43D725jF64OIH5M/ufzZjZrakftJNy1ornlKg7gw5ilwYh09ODN95flmbenDOPHgfw/oFYjWuWI+tfmk4lFWD+RBNcBjyXLY21eEcudZ5rnXIqZpGX494zkkaF7dV5QL2yF22n1enofj5jOm/ZBzm9rwBOsW8Bbcd2l1dXWpPdE448QR655jzM9dmRtx+ensS8p8lvTqlNOtYW9o9D83rTzN79M7luDK/BrT08TyGmiYRwSfXkuaw5C33dElZdTcK9l8KtetdK+px7F9Ajc6Z8+tu5vWUZUfYDNX83rNH3eq1+arzHgMsFPMS3HGGNjv87cPU+0nxH7V4dYsWLaKu5V1NjbjtYHMv7L86IWNR62aMkd2iUhk9qxGrPl3iw/GLZc7sXyBNtMIEkI3osnknZY24AaCulgc3nz3Cp+DFFdrsW/d+i5a/dzml/jJFg/cM0qkfOVXub3iaxOuDyPRu4oFhOT9KjXxuNjFphZI9SvSbP3erHT1X55prp0ssldHvcPh5YD7lsTKn7CG9u0B8RmRZVZs1+3qcesn648WaBrL/kgGAYC0P7kOHDtGGDRto/fr1NZeovPnam/SNP/oGFTIF+QHlwW8eVNc0bmKI51SpWnklUrupc4tlVZg6lVAch08x5OMEn4+9Wo1ytUZxwf5LwPfsEp43Fk+63K0qtAICOZB2/1zSmkOvvO6mXo+b1X3Jv4T4/R3rs/YCQDB8AQcVXwBgGHzlHV95BwDDoLoMAMAw83Y6IAAANAfBDQBgGAQ3AIBhENwAAIZBcAMAGAbBDQBgGKNPB+Q1T5577jm11Vp+64fjyzwAEDejR9zbtm2T4R0HDmb94oW/palf/HEVmPrKvLo09RX0yPHzmoq+GEGu9hfDcQFAMjq4ly1bRlu3bo0tvPVAXrdunePSOHu9bL5kqcRrfHRqDZhcY7u/oUW4ACA84+e4d+zYEWt4x2OChngRqOSA1VYDANAA44N7//79sYU3L0DFF7Zv3z55uemmm+RlzZo1tGfPnsqlYTN7abqcpMpS344KL1U/Zk9lpKvXOaZYgu6TrdaK+d1nKtujdirNHI96KTtl32dWNeC4pmA8j+t1PwAIoyPOKuHwfvTRR2V4n3TSSWpvc5588kl54WDmC3/Y6P7AMZVKOS7MDvjmiKAr9NG0PZWSJRqupF43ZYZJVnb1yPVlx1Qg1rlPYlLt56VXR1RY8n0yVFKN9aPUR9XOmWaOx+FboL7plHWduNQu6+pz3PQIZUpW7Zn3/QDAT0cEN4+0L7vsMjnyfv3119Xe5umBfOWVVzoufrwCvj7VotPbQwm1JrUcgeaS1F1p5C1TfjRnlSjM5Gi8qMp6691np0rCiUkqiltaLWjiPuU82VfN5MbFdUpTx+N2niKNB01m+x33+RKVk7k2+ZAWwCzGBzeHNo+0ObR55B01HsHrl8jI0CtRtV2sSFk1+pQXzyGo3RhjC3OfRkR9PJvHcVVJ8CiNYaoEoEHGB3ccoV0oFOSF7dq1y3GJhj1lMSRrwGhmlkqU1KYmdFpFmRrhynawwPv44Pto7ei92eHqVElTx7Pm6QPvU+e4M7l+2dqO4l+A8IwO7mPHjkUe2hdeeKHj4sUOdj3g69OmC2aHqZTS53Wts0zEDdT14lIZgpaplLBGpVyqWwn7wPv4EffJFimZs24/RtNiLGxr5ngzlOtXpzaq+9Texee46eqHnYVMKXi6BQAcjP7m5Nq1a2OZHmkfYmQuQx7nRANAldEj7s4ObQAAbx1xVgkAwEKCzkkAAMNgxA0AYBgENwCAYRDcAACGQXADABgGwQ0AYJi2OKvk6cIonfaBd6utqn974y367Oceom8+W1Z7AACgLYL7pf230o4vVL98bTu/90O09pfOVFtO33/1NfpoakxtufE3Dgdossf+engA/up1LklUzlOqX63CBwDQxuYc3CtXrqRDhw6preZwcHt586236bGvfYdefuUnak/VDZ9N0qq1W9WWW9jg5tvliLJRrAcdx9fT8ZV3AKg1pzluXlLVr0i3UTzidl/ufWC/Z2hHS62JDQBgiKaDm0M7l8vR8uXL1Z52xaPWKY/qLWu0nVSr9lX3TdHu3VPidlbFVnq3WtGOL5Wl79y1W85jWbdzH0s9j8rqpe7t8Mf0Pob1s/7cvSvDAMB0TQU3h/b27dtp6dKlak+7E+FXU701QUM9WSpyu0uqh/orcxHdlCiNitta0ywTQ3YBgLhtctgKyZraLeexqgUEzmP586oA8ztmEP3xRJD7VpEBgMkaDm47tLu6utQeE/hUb3kq0/RebUK5sm40j36V0LVbrmP5CVMBFor2eIFVZABgsoaC28zQngOeapCfXfKoNUV5+6xEY2q34qoiA4D5FDq4+ewRbjJfMKHNVosxa7lE8rNLOSqWeysaq916nkplVfTL0gPVEXyYCjAp4BhuzVSRAYARQgc3n/K3YcMGWr9+fc2lY03spDxlqMBTDWMJEZpqv2ft1gRNFvUPEt1mKDderQ2bHeDxsM2vAsx9zKBjuDVTRQYAJmjrb04GCf4CDgBA50KRAgCAYZo6HRAAAOYPghsAwDAIbgAAwyC4AQAMg+AGADAMghsAwDAIbgAAw3TUedxbtmyhFStWqK1wjhw5Iu8HAGCKjgpuLnW45ZZb1FY4vP7K5s2b1ZYPu95MKedT2jKwAXiRKrm0ajQNNrw2eI6yTS4Wxet1h2nT4duh9g2gnbXNVAkvYtWWZDglrDWx1SqB032FEEu6CnIVwYhqx8QvgeFEkYoJtSb4vBMBL0K7mBXvyZxD2yqBiPZ1xXFMgPbQFsEdZQUaW9K1hM4fOp8u3X0pXXzPxbTq46vk/k89/inHP+vrpewwh5MevjOUG+XFm7iMoXV6B/uIpnfSzmmivsF2SSPUvgHMh3kP7jgq0NZ8Zg2dePKJtOeaPfT4tY/TwWcO1oR2qPBWBQeT7jkDuQyrXcagRnY11Wjadfamo0pMX8c76Bisl2Ru750RDy2TW+yxWfd1VJbV1KDJnZbV1edQ/68Gv+fF+1H7BjBf5jW446pASyQTdCB/gI6/fVxuH3vzGD1w8QPyZ/c/67LX466hrYvNAVFTjeYmwqGQoRJPLfDtUnlK5PQgCTgG/wKhaZLlNvxLQ2w5B916ZZlXDZq6GT/GMNFo4PN083peqH0DmE/zFtxxtumccOIJ9M4x52euTY24WXeCvAu/9GmCENVoskpMG73P5Gi8qIe//zGsaZK9ah55hnjQnRnRI1evLAuqQROPMarmo+tWuNlCvLYK1L4BtMK8BHfcFWiHv32Yej8pgkG8ukWLFlHX8q7mRtyqmWbAPSyVYVGi2blmRShpGsl0i5FutRChILYpORBitDyPUPsGEJuWB3crKtC+de+3aPl7l1PqL1M0eM8gnfqRU+X+hqdJ+INI2Tijz3FaUx5iGFrnT3gXVSVW+SXAZ4kkPebP3biejE+300NEBqHHLxQWugZNp8/3RgS1bwCxaXlwt6IC7c3X3qRv/NE3xMi0ID+gPPjNg+qaJkwMyTnOnBrt8p/9YigW7jxuB6tKLGHXjsk51PrnSqcHklSuTJPYeLqkLAbdnsntU4PWYqh9A4gNvoAT5gs4AABtBF95x1feAcAw6JwEADDMvJ0OCAAAzUFwAwAYBsENAGAYBDcAgGEQ3AAAhkFwAwAYBqcDNslv/XB8mQcA4obg9uEOZncge31L0/9bmLwWiLZCnhC6/ixW/LzC1Jk1iBeYirCyDQCcOm6qJMoKNA5mO5zXrVvnuDROrQ0tF4lSa2t06voXUVa2AUCNjgruqCvQ4mMtYlRu96VZAaAtdUxwx1GBxlMffGH79u2Tl5tuukle1qxZQ3v27KlcGuZe69uzKkstt5r2qRsLuo9fDZp2n6lsj9qpNHM8z5o0dR/7Zp7H9bofAITREcEdZQXak08+KS8czHzhOWv3vHUqlXJcmB3wzRFB51uVpdWNyaVGx6o9iUH38axB4/tU69NGqU+bd2/meEE1aTaf49ZUmKmbA0Bdxgd3HG06eiBfeeWVjosfr4CvT9WfBVZlaXVjet1Zvft41Y3xfcp5sq+ayY1X16Ru6nghasP8jhu6wgwA3IwO7rgr0NhJJ53kuESmpv4sTFVWL/Uk1I9S1PVacdV1eRzXmAozgPZjbHDHWYFWKBTkhe3atctxiYY9ZaEacAKrsrqpz650VyNcWXfWTL0W36c7Q3bPcG92uDpV0tTxQtSG1TluYxVmAMBwHneDeP7by4UXXqh+8iKC2nEeN58a6Dpdjj/AE2FeqWYsZsXIlMT9hnnASsmkdU0xq80HB9ynem42P7a2zdVhOeuZlPN5KmX6qtc1czzXa7Oen+s2XsedHKg8D7FDjMjr17gBgAXB3dbcIQkA0EGnAwIALBQIbgAAw2CqBADAMBhxAwAYBsENAGAYBDcAgGEQ3AAAhsGHkzEL+sKO+7rgL/EAAFgQ3AKvefLcc8+pLQCA9oapEmHbtm0yvE2S3j0bUYMOfztzqrp2NgC0PYy4hSeeeIJef/11uvXWW2MZeXtNl3hNldjqTpnw2h9jCSqRuIzO9evw+Fo9gGkQ3AIH9+2330433HBDbOEdpd7sFI3RqFwSlf85t9JhBDeAaTBVouzfv5927NhBW7dubfNpk14a7COa3jtDM3unifoGxR6bmvbwqRmT0ytqf+00i1Ul5tjNKwlOZSktflFU7qffl0f+lf3OqrPdu/k+vA8VZQBRQ3BrOLwfffRRGd6RliYIS5YsodNOO42uuOIKuc3TJF6XunhNbpomkdvWethiy16u2+JXM0Y0MWSXGWSpmBx2zWvPUG68SMmBarKmB5JUHM/RRK6/ej9eglWuKysCOqDqLFEaFfuHaAIVZQCRQ3BreKR92WWXyZE3z3nP1aJFi2hwcJAefPBBmpqaojvuuIOOHj0q9/M8ttelnl5ruG1VmYn/z4PujN2MIPnUjDEeQcuRr742uIZvX2meT9NAolpzxtK7cyRS21o3u07VGf9FIKGiDCByCG6FQ5tH2hzaPPKOwtVXX0033nijbOtZvHix/Of1118v9zcnTSOZbjGKLlSmHgpiWwyTK6NqXzytwbkrR74pypfVfocJ2plPyJEzt+MkKr8gBBH6Ocq6Rswhqs5QUQYQOQS3EnVon3XWWbRx40a1RbRq1Sr1E8n9fH3D0gOULOcppYelDOEkaTMc3laL8XG5RNxNbFWgyb01rHnzERpR8+iWNFmDbS2YG6w6Q0UZQHQQ3MKxY8ciDW123nnnyVG27aWXXlI/iTdd7D/33HPVVng851zWR8EST5eUHXPTniZ2Up4yVOCROp9K6DniFrhJvpSkZGm8cpYJT5GIPZRTo3z+wLJXjM6HUnkibfTveV55ZXqG/zooBTfCA0AoOB1QWLt2baShzXhUfd1116kta8Sth/ddd91FExMeUwttgM8+GZjEB4kA7QojbiHq0GbPPvssvfOO9+/E48eP04EDB9RWm+nN0rDrQ0kAaC8I7pjw1MBjjz2mtpxTJQ8//DC9+OKLaqtdqPOt+RS/0ZxrOgYA2gmmSmJ20UUX0aZNm+j000+nl19+mR566CH66le/qq4FAGgcghsAwDCYKgEAMAyCGwDAMAhuAADDILgBAAyD4BZMa78BgIUNZ5UIhUKBbr755tgLFK666irKZDJqyxuvJLhr1y615cZrXTtX9ivnU3MsUphv/JpQ5ADQCAS3EHd1mY3X206lUmrLG/8S8V/etRNDDsEN0ChMlSjz2X7DYc0XAIAwENwKr1cSdXj7NdvYQR1dWPOoVa8LE3s8a8qs22XT1coxvoo7LO3bOgoPPKrJ+LjVRQDV8ey78O3tKx33rb2P/lyr+Dpxe3ljVJ4B+EFwazi846ouC6ol4+mTelMoVVrrjCPQtLowseVfUybuP0w0ytdli5TMzcrCYXlbR9WZCFGParKJSa3eLD1AiTLXXloHl+08JV7xm++boVJW3TeVp0ROC3jXc7VwUMumB6uQAZVnAL4Q3Jqoq8t0QbVkjY2+y5S3w9QRaFpdGPOtKRP3txeRktVm2v30qjO/ajKuIkv0iJjl3E7Q9LhdWFwtMbbuW6RJ+7nxGt9FEdZ2s5n7uQp9YwXqm05VXw8qzwB8IbiVOKrL/Lok7RF2+FF2g0LVlIXhUU1WKSjmTspp2jvB2wlarZcYN4zreMpaZ6WAyjMAXwhuJerQbkTkIR6ypiyQbzWZVVDcN2Z3UvJ2ggZGEtUSY3Vfe0aFf5EMJ7UReA0xAh/tpyzVjrBReQZQC8EtxFFd5oXPz9Y/mPS63HffferWcxC2piyQfzWZ7KUUvwzs6Q7eTiQT2vSHdd9ETt1PzpXr89neJoZSNN0nHo+r0VB5BuAL53ELcVSXAQDEBcENAGAYTJUAABgGwQ0AYBgENwCAYRDcAACGQXADABgGwQ0AYBgENwCAYXAed4weeeQROuWUU9RWOK+88gpt3LhRbQEA1EJwxyhM440bf+09uAFHX+2PVwpsojmGF6GSX0NH6wyAiTBV4mPlypXqp3ZTXdZVLiUylpVLrDZErrzXbGhbRQhYbRVg/mDE7YGXeL3ttttow4YNak9z9u3bR8uWLVNb4bzxxhu0bt06teXGoan3M7q3W2E+HhMAdBhxu3Bo53I5Wr58udrTvBdeeIEuueSShi58n+ZYI2FHJVid+rDKqNlxO71OzF0fxvfjqRpVsCAPiIoxgFZDcGs4tLdv305Lly5Ve9pbb3aYkmW9vECvBBMhG1gfZuPb1VaUWYFstdLYRQpDExM0xFVo9nQNKsYA5gWCW7FDu6urS+1pV9U6MV6nOtuvasgkrRKsbn2Y4ldRJgsYivXXwUbFGEDLIbgFc0Kb6Z2T9csJwvGoKAsLFWMALbfgg5vPHuEPIs0I7QaErQ/zqyjjbsmyV3WZN1SMAbTOgg/uQ4cOybNH1q9fX3MxW9j6ML+KshnK9WeppO23RtMTNFnUPpxExRhAy+F0wBjdeeeddMstt6itcHj0v3nzZrUVFz47ZIAmI5tqAYBWQnDHaMuWLbRixQq1Fc6RI0fk/WLFo+ThEqUcH2wCgCkQ3AuJ/Kp7hrqb/ao8ALQFBDcAgGFwOiAAgGEQ3AAAhkFwAwAYBsENAGAYBDcAgGFwVokBUIEGADoEtwGir0BT+Is4Oa0ILZ+i/jAnd0dcfZbePUs5yja2uFUFfwu0sWKHuT2em/b44piRvS8Rv8fQWTBVErO2rUCToZ3QVhpM0XRfIdzyrHOqPnPhxa8SRSomhltThxbn40VZCRflewwdB8EdI14ultcrmSuuM+MRdCMXvo+/XsoOJ6mY1YNhhnKjvNjUiIiQ1ukd7COa3kk7p4n6BuNP7lY/HkAcENwxaesKNFWSULvEKy/lmiBrZVY1AsxWV/+rjsZdo0P+s17dhi/VNbmDjsF6Sebo3hnx0DJJxR6bdV9HFVtQTdrq6nPw/6uh/uNl017HCbpO53pffJ4vT9XY+6yVGPl+7ko417Gafo+hEyG4Y2BEBVq5RM+rH530lhwRJIlJayolW6Ruz9G4CI7AirSAY/AvEFLVa/xLQ2w5B8F6FZtXlZq6GT/GMNFo4PMUQjxe5ThWhb7zdfhe58X/+U4MWds9XAOX5Ckbj0o4hzm8x9CRENwRM6ZNpztB7hYzS5lKlUQXQbLTTptJESz2aFxTtyLN/xjWtMVetULhDPEgODOiR45exRZUpSYeY1StdOj3PIUwj1c5jtfr8L3OQ9DzraxhzqPsEObwHkNnQnBHyJjQVu02A+5hmQybEs16ZE300jSS6Rajw2pRQ0FsU3IgptFio4/XSz0J9WONoOvq4CmPHKmquBTly2o/QAMQ3BExqwJthnLjRUrm7LljZv05LoZujZUrhK1Ic0sPULKcp5QMMPvCQebxC4U1WKVm0eaJQz1ed/UDSzVirr6OoOs8+D3f1Qnqtqep5HHk3mDNvsfQsRDcETGuAm1iiHqyRDk1+uQ/28UwMNx53A5hK9Kc0gNJKlemLWw8fVEWg2DP5PapUgsn3OOVqZSwSo9n5Zyy/jqCrvPi83wndlKeMlTgfWMJKlVG3K5KOIfm3mPoXPgCjgHatwKtk/Do3O+LPEHXAbQegtsAbVuB1lEQ3GAOBDeAhOAGcyC4AQAMgw8nAQAMg+AGADAMghsAwDAIbgAAwyC4AQAMg7NKFhBUoAF0BgT3AoIKtCBhz9Xm2zlX9Qv9eqMQ8XsGZsJUCczNgqxAK2uvV61H0sjCKXMR5XsGxsKIewHZt28fLVu2TG2FwxVo69atU1tuVllAYlwvNRDkqDBB47IAoTV6s1M0RqPi/8bkPxsfATcy4nbdbh5eLyxsGHEvIKhAi6oCzcW9vnm916FVoPF1/EvHvq3+mLUVZ3Kv9p7Ve1+gUyG4YW4WYgVaoBCvQ3uMZG5W/oXg9bpqK87UFQ5h3lvoNAhumJsFWIHmTb3eMK/D8Rjac3M/ZqiKsxDvLXQcBDc0zz1FYJPh2KkVaB7ieL083YKKM/CB4IY5WIAVaDXsqRH1wWRUNWPNVJzBgoHghrlZYBVolm6rYkzen88w0efJI6oZ8604A8DpgAsKKtAAOgOCewFBBRpAZ0BwAwAYBnPcAACGQXADABgGwQ0AYBgENwCAYRDcAACGQXADABimo04HxHnKALAQdFRwx/bNwAVdzVWmfBTPP+L3AmAha5upkpUrV6qf2swCr+ZK5YkyY1mtmKBJdd+LoIWcAEDXFsF9zjnnyNFyVJZ0LaHzh86nS3dfShffczGt+vgquf9Tj3/K8c/6eik7nKRiVg+cGcqNcpq1dsF6a83pnbRTFry0Lt1mcuNU7HYXEwDAfJr34ObQzuVytHz5crVn7tZ8Zg2dePKJtOeaPfT4tY/TwWcO1oR2qPBWi+4v+GouneM12I/nfg5ej6+/F+7r+TqenlGr7tlPOOCxgt4rz9fueSwAM81rcHNob9++nZYuXar2RCORTNCB/AE6/vZxuX3szWP0wMUPyJ/d/6xrgVdz9WaHKVlWjy1fA89Tq9eQJW1da+05pEcoU8p6PL5Sc/0EDXE9lz1FI+8Q/Fje75Xfaw86FoB55i247dDu6upSe6Jzwokn0DvHnJ+5NjXiZguymkuNfMXotJApUbZf3Ue+hup1/IFtd+UFaM/h+RKVkzn/EX2961mdx/J8r/xee+CxAMwzL8EdZ2izw98+TL2fFP8li1e3aNEi6lre1dyIe8FWc6mRrxy1uksAiqpOS128znCRH0T20CiNyefrmKph9a6vCPFYoUV5LID51fLg5rNH+BS8uEKbfeveb9Hy9y6n1F+maPCeQTr1I6fK/Q1Pk/AHkQu+mkujXkPYY8/k+imVL1PCe1gffH2DjyX5vfZmjgXQxloe3IcOHaINGzbQ+vXray5RefO1N+kbf/QNMTItyA8oD37zoLqmCQuymsuP9RpIO3blg0RdpZ3cmmqpmbrwvH6CJotqOkMeM+RjOfi99maOBdC+8AUcVHMBgGHwlXd85R0ADIPqMgAAw8zb6YAAANAcBDcAgGEQ3AAAhkFwAwAYBsENAGAYBDcAgGFwOmCT/NYPx5d5ACBuCG4f7mB2B7LXtzT9v4XJa4HodWAUvv4sVvy8wtSZNYjXvkZNGUBsOm6qJMoKNA5mO5zXrVvnuDROX3FPrafRqetlRFnZBgA1Oiq4o65Ai4+16FE51qVZAaBTdUxwx1GBxlMffGH79u2Tl5tuukle1qxZQ3v27KlcGuZe6zuopitdvc5RPtBMtZd2n6lsj9qpNHO8ujVlgudxfSrGAKCujgjuKCvQnnzySXnhYOYLz1m7561TqZTjwuyAb44IuqCaLrtuTC5NOqYCsc59PKu9+D7V+rRR6tPm3Zs5XlBNms3nuPXqzQDAl/HBHUebjh7IV155pePixyvg61P1Z/Vquuy6Mb3urKlqL3Gfcp7sq2SDu/Vjk8cLqklT/I4bpr4MADwZHdxxV6Cxk046yXGJTE39WZhqrV7qSagfpajruOKq9/I4buj6MgBwMza446xAKxQK8sJ27drluETDnrJQDTiB1Vrd1GdXuqsRrqw7a6raS9ynO0N2z7BscLd+bPJ4IWrS6hy3Xr0ZANTCedwN4vlvLxdeeKH6yYsIasd53HxqoOt0Of4AT4R5t9qkYlaMTEncb5gHrJRMWtcUs9p8cMB9qudm82Nr21wblrOeSTmfp1Kmr3pdM8dzvTbr+blu43XcyYHK8xA7xIi8fo0bAFgQ3G3NHZIAAB10OiAAwEKB4AYAMAymSgAADIMRNwCAYRDcAACGQXADABgGwQ0AYBh8OBmzoC/suK8L/hIPAIAFwS3wmifPPfec2gIAaG+YKhG2bdsmw9sk6d2zETXo8Lczp6prZwNA28OIW3jiiSfo9ddfp1tvvTWWkbfXdInXVImt7pQJr/0xlqASicvoXL8Oj6/VA5gGwS1wcN9+++10ww03xBbeUerNTtEYjcolUfmfcysdRnADmAZTJcr+/ftpx44dtHXr1jafNumlwT6i6b0zNLN3mqhvUOyxqWkPn5oxOb2i9tdOs1hVYo7dvJLgVJbS4hdF5X76fXnkX9nvrDrbvZvvw/tQUQYQNQS3hsP70UcfleEdaWmCsGTJEjrttNPoiiuukNs8TeJ1qYvX5KZpErltrYcttuzlui1+NWNEE0N2mUGWislh17z2DOXGi5QcqCZreiBJxfEcTeT6q/fjJVjlurIioAOqzhKlUbF/iCZQUQYQOQS3hkfal112mRx585z3XC1atIgGBwfpwQcfpKmpKbrjjjvo6NGjcj/PY3td6um1httWlZn4/zzoztjNCJJPzRjjEbQc+eprg2v49pXm+TQNJKo1Zyy9O0cita11s+tUnfFfBBIqygAih+BWOLR5pM2hzSPvKFx99dV04403yraexYsXy39ef/31cn9z0jSS6Raj6EJl6qEgtsUwuTKq9sXTGpy7cuSbonxZ7XeYoJ35hBw5cztOovILQhChn6Osa8QcouoMFWUAkUNwK1GH9llnnUUbN25UW0SrVq1SP5Hcz9c3LD1AyXKeUnpYyhBOkjbD4W21GB+XS8TdxFYFmtxbw5o3H6ERNY9uSZM12NaCucGqM1SUAUQHwS0cO3Ys0tBm5513nhxl21566SX1k3jTxf5zzz1XbYXHc85lfRQs8XRJ2TE37WliJ+UpQwUeqfOphJ4jboGb5EtJSpbGK2eZ8BSJ2EM5NcrnDyx7xeh8KJUn0kb/nueVV6Zn+K+DUnAjPACEgtMBhbVr10Ya2oxH1dddd53askbcenjfddddNDHhMbXQBvjsk4FJfJAI0K4w4haiDm327LPP0jvveP9OPH78OB04cEBttZneLA27PpQEgPaC4I4JTw089thjass5VfLwww/Tiy++qLbahTrfmk/xG825pmMAoJ1gqiRmF110EW3atIlOP/10evnll+mhhx6ir371q+paAIDGIbgBAAyDqRIAAMMguAEADIPgBgAwDIIbAMAwCG7BtPYbAFjYcFaJUCgU6Oabb469QOGqq66iTCajtrzxSoK7du1SW2681rVzZb9yPjXHIoX5xq8JRQ4AjUBwC3FXl9l4ve1UKqW2vPEvEf/lXTsx5BDcAI3CVIkyn+03HNZ8AQAIA8Gt8HolUYe3X7ONHdTRhTWPWvW6MLHHs6bMul02Xa0c46u4w9K+raPwwKOajI9bXQRQHc++C9/evtJx39r76M+1iq8Tt5c3RuUZgB8Et4bDO67qsqBaMp4+qTeFUqW1zjgCTasLE1v+NWXi/sNEo3xdtkjJ3KwsHJa3dVSdiRD1qCabmNTqzdIDlChz7aV1cNnOU+IVv/m+GSpl1X1TeUrktIB3PVcLB7VserAKGVB5BuALwa2JurpMF1RL1tjou0x5O0wdgabVhTHfmjJxf3sRKVltpt1PrzrzqybjKrJEj4hZzu0ETY/bhcXVEmPrvkWatJ8br/FdFGFtN5u5n6vQN1agvulU9fWg8gzAF4JbiaO6zK9L0h5hhx9lNyhUTVkYHtVklYJi7qScpr0TvJ2g1XqJccO4jqesdVYKqDwD8IXgVqIO7UZEHuIha8oC+VaTWQXFfWN2JyVvJ2hgJFEtMVb3tWdU+BfJcFIbgdcQI/DRfspS7QgblWcAtRDcQhzVZV74/Gz9g0mvy3333aduPQdha8oC+VeTyV5K8cvAnu7g7UQyoU1/WPdN5NT95Fy5Pp/tbWIoRdN94vG4Gg2VZwC+cB63EEd1GQBAXBDcAACGwVQJAIBhENwAAIZBcAMAGAbBDQBgGAQ3AIBhENwAAIZBcAMAGAbnccfokUceoVNOOUVthfPKK6/Qxo0b1RYAQC0Ed4zCNN648dfegxtw9NX+eKXAJppjeBEq+TV0tM4AmAhTJT5Wrlypfmo31WVd5VIiY1m5xGpD5Mp7zYa2VYSA1VYB5g9G3B54idfbbruNNmzYoPY0Z9++fbRs2TK1Fc4bb7xB69atU1tuHJp6P6N7uxXm4zEBQIcRtwuHdi6Xo+XLl6s9zXvhhRfokksuaejC92mONRJ2VILVqQ+rjJodt9PrxNz1YXw/nqpRBQvygKgYA2g1BLeGQ3v79u20dOlStae99WaHKVnWywv0SjARsoH1YTa+XW1FmRXIViuNXaQwNDFBQ1yFZk/XoGIMYF4guBU7tLu6utSedlWtE+N1qrP9qoZM0irB6taHKX4VZbKAoVh/HWxUjAG0HIJbMCe0md45Wb+cIByPirKwUDEG0HILPrj57BH+INKM0G5A2Powv4oy7pYse1WXeUPFGEDrLPjgPnTokDx7ZP369TUXs4WtD/OrKJuhXH+WStp+azQ9QZNF7cNJVIwBtBxOB4zRnXfeSbfccovaCodH/5s3b1ZbceGzQwZoMrKpFgBoJQR3jLZs2UIrVqxQW+EcOXJE3i9WPEoeLlHK8cEmAJgCwb2QyK+6Z6i72a/KA0BbQHADABgGpwMCABgGwQ0AYBgENwCAYRDcAACGQXADABgGZ5UYABVoAKBDcBsg+go0hb+Ik9OK0PIp6g9zcnfE1Wfp3bOUo2xji1tV8LdAGyt2mNvjuWmPL44Z2fsS8XsMnQVTJTFr2wo0GdoJbaXBFE33FcItzzqn6jMXXvwqUaRiYrg1dWhxPl6UlXBRvsfQcRDcMeLlYnm9krniOjMeQTdy4fv466XscJKKWT0YZig3yotNjYgIaZ3ewT6i6Z20c5qobzD+5G714wHEAcEdk7auQFMlCbVLvPJSrgmyVmZVI8BsdfW/6mjcNTrkP+vVbfhSXZM76Bisl2SO7p0RDy2TVOyxWfd1VLEF1aStrj4H/78a6j9eNu11nKDrdK73xef58lSNvc9aiZHv566Ecx2r6fcYOhGCOwZGVKCVS/S8+tFJb8kRQZKYtKZSskXq9hyNi+AIrEgLOAb/AiFVvca/NMSWcxCsV7F5Vampm/FjDBONBj5PIcTjVY5jVeg7X4fvdV78n+/EkLXdwzVwSZ6y8aiEc5jDewwdCcEdMWPadLoT5G4xs5SpVEl0ESQ77bSZFMFij8Y1dSvS/I9hTVvsVSsUzhAPgjMjeuToVWxBVWriMUbVSod+z1MI83iV43i9Dt/rPAQ938oa5jzKDmEO7zF0JgR3hIwJbdVuM+AelsmwKdGsR9ZEL00jmW4xOqwWNRTENiUHYhotNvp4vdSTUD/WCLquDp7yyJGqiktRvqz2AzQAwR0RsyrQZig3XqRkzp47Ztaf42Lo1li5QtiKNLf0ACXLeUrJALMvHGQev1BYg1VqFm2eONTjdVc/sFQj5urrCLrOg9/zXZ2gbnuaSh5H7g3W7HsMHQvBHRHjKtAmhqgnS5RTo0/+s10MA8Odx+0QtiLNKT2QpHJl2sLG0xdlMQj2TG6fKrVwwj1emUoJq/R4Vs4p668j6DovPs93YiflKUMF3jeWoFJlxO2qhHNo7j2GzoUv4BigfSvQOgmPzv2+yBN0HUDrIbgN0LYVaB0FwQ3mQHADSAhuMAeCGwDAMPhwEgDAMAhuAADDILgBAAyD4AYAMAyCGwDAMDirZAFBBRpAZ0BwLyCoQAsS9lxtvp1zVb/QrzcKEb9nYCZMlcDcLMgKtLL2etV6JI0snDIXUb5nYCyMuBeQffv20bJly9RWOFyBtm7dOrXlZpUFJMb1UgNBjgoTNC4LEFqjNztFYzQq/m9M/rPxEXAjI27X7ebh9cLChhH3AoIKtKgq0Fzc65vXex1aBRpfx7907Nvqj1lbcSb3au9ZvfcFOhWCG+ZmIVagBQrxOrTHSOZm5V8IXq+rtuJMXeEQ5r2FToPghrlZgBVo3tTrDfM6HI+hPTf3Y4aqOAvx3kLHQXBD89xTBDYZjp1ageYhjtfL0y2oOAMfCG6YgwVYgVbDnhpRH0xGVTPWTMUZLBgIbpibBVaBZum2Ksbk/fkME32ePKKaMd+KMwCcDrigoAINoDMguBcQVKABdAYENwCAYTDHDQBgGAQ3AIBhENwAAIZBcAMAGAbBDQBgGAQ3AIBh2uJ0wKcLo3TaB96ttqr+7Y236LOfe4i++Sy+NgYAYGuL4H5p/6204wtFtVV1fu+HaO0vnam2nL7/6mv00dSY2nLjtSX0FdXKlDet6okXGUJFFQB4mHNwr1y5kg4dOqS2msPB7eXNt96mx772HXr5lZ+oPVU3fDZJq9ZuVVtuHNzVlhJeqL7QN02pfrWcZks5n4u/sLcDgIVuTnPc55xzjlz/Igo84nZf7n1gv2doN2omN07Fbvfi+gAAZmo6uDm0c7kcLV++XO0xBY9sXVVWjqqpOvVWnre1jllbIcX7ecpGrSanDlJbSeV1O3VM+5eN43E96rBQXwWwYDQV3Bza27dvp6VLl6o97a03O0zJsqq2kvQqKxF8ci5ZreWcJWut5vQIZUrZyhrP1rKdPreVvCqkJmiIa6fkHLvYr9b+rK2k8r5dFT9uk7VeANBxGg5uO7S7urrUnnZVXTO5kClR1jG/rVdZcdVU9bazOTHu5Z6p50tUTuaco1e/20oNVEiFqqTSzKHWCwA6T0PBbU5oMzV6lSPbegvZF1VFlLrwiFeEY7/4eZTGZMhWpyY8btsInvJAJRUAzEHo4OazR3hRfTNCuwGqasqvymom108pka4JHsLWuW0ozVRSRVWHBQAdIXRw8yl/GzZsoPXr19dczGZVTZFWZSU/HKxMZ1hTLVYruM9tA03QZFFNr/BtfSupXLdziKgOCwA6Qlt/czJI8BdwAAA6FxpwAAAM09TpgAAAMH8Q3AAAhkFwAwAYBsENAGAYBDcAgGEQ3AAAhum40wEfeeQROuWUU9RWOK+88gpt3LhRbQEAtLeOC+4nn3ySUqmU2gqnUCjQhRdeqLYAANobpkrC0L7+zpfQ613LNbT15VfnRq7jXfcr9n5c63v74MdwPoTH/fj9CHwe4R+r9jh83+p7Pes4Dl9nr4EOsHC1TXDzIlZR+OEPfyhH0I1c+D6+OKRyCW2lwRRN9xXChbdcYTCiKjJeWCpRpGKC1+9W+2IwMVmkZGU1K0EtZdun1Qf19iSoXJLLZDUv8PVUV3aUS8OMZSnGlwxgnLYI7igr0L785S9TX18fJZNJeeGf161bR5dcconv5fDhw+rebr2UHU5SMauH7wzlRjlNWltW0DvYRzS9k3ZOkyNEI8frkCd6KkHJj1vKi9dbWfy7l+RTqbZSNCXs60HtHECteQ/uqCvQvvbcv9J//G9fonP/8Dl5Ofu/PUQ/k/jP9NOf/pSOHTumbhWSXHbVY/nUmb00XbbLCtS0gGd1mGvKQE6dVKcBqrMEQcdg1bCc2SuTThuBWvd1VLHxLxyv2jW2uvocPP9q4NdGdlBaj1vaO0ul5IA69mpKdJdo1s5tx2tyTWP4PlbQ6wGAeuY1uKOuQPvQRX9A3b+5lZa++/105DuPy0vXuz9AH/rN2+j0gd+lN954g955p8HPYu21s2voDTTdIarDRMA2Wz/Gv0BEnMpBriNYbXoVG4d2gfqmU9axxKXa9SAeY5hoNPB5ztBsyX5tIqTl4/KSs+oXVXqAksVJtaQsv6aAKjf7saz5Du0XWL3XU1VbOwcA8xbcUbfpvOfDv07v/cXfpBe/9H/RCSetoO8X/0Je+Gfe977zUnRyz4V09OhRdY+QuhMivryUqTrNG6I6bA71Y9a0wl5VvTZDPEjNjOiRq1exWX8lWOuHu4nHGFUVbgEVZ5V5bg7p0qy8/fMla0rDMb9dr8rNfizXa63/eqrHrK2dA4B5Ce44KtBOu3CIlv7safTz1/0PWrLsPdT7+5Pywj/zPr7u1OQQvfXWW+oeIcgpEa15xibDUZsuiFWaRjLdYnRcLW8oiG2RrB6j5Yioee60COmi+k0jpzQSgx7z22Gq3HpJHEoJ83qqH07Wr50DWHhaHtxxVaC960P/iWb+pJ8OT91Fr/7dF+n/3fbL8vLDbz5AL0/9mbzuXSs/QsePH1f3CGOGcuNi9JnT526tKQ8xPG4sUJqtH+NRbzlPKT0cZVelxy8Upn7ZNFavpubY7bvI6YsM5cTLrPxVwc8/maGM/gsrsMpNOxNF/6yg0dcDADVaHtxxV6Atondo0eJFaostokVqU98b2sSQnLvNqdEhN7OLISb1N3yOX3P1Y+mBJJUr0wo2nl4oO0/bqxC/bPqzVNJGtIGnXHuyji8eWJtb5nlu8Y/K/DYLqnIrUylhFS3Pyrl967U2/noAwK1jvjn54Wu+TO868wK15e217z4tguVT9K53vUvtsfBfAJs3b1ZbAADtrWOCe8WH+6k7tY2++8D19B8/+5f0v++y1h758PWP0P/J/w6ddeWf0Utf+Tz9eu/7aO3atfI625EjR2jLli1qCwCgvXXUWiUfXP/78uyRd47+O/2k9Pfi1S2ik1edT4u6fob++e+/Qof+5k/VLQEAzNVxi0yt+PAn6NSPD9G7uj8it39S/g79oLib/vX5abkNAGC6jgtuAIBON6/fnAQAgMYhuAEADIPgBgAwDIIbAMAwRgc3r3kCALDQGB3c27Zta0l4L1pyAv2HDb9DfV+Yposff56Su/6GPjhwubq2Ec51smenOqHZxbXOic5R+RZR5Zhc/9vn8QAWCKODe9myZbR169bYwnvJ0p+hFat/gdbcsJ1O+dUBmrn7Vvrb/7aOZh/cST2/dS2d/V8b+Jq8DJwCJca1xZVGiQbbZnmOgABuBr9euayLeq2pEvVE8VqjrIMDMJTxc9w7duyIIbwXUc8nr6Vff+ibtOZ3/zu95+yP0D/891F6rfQCvf3v/0b/PPP3dGD79XTmb15FP/O+U9R9goiR9phVouBY9VSEUK7eKlOmWp2gbr2EopNfK0CLGR/c+/fvjzy8u9f9Fp1yQR/t/700/d0ffFpc/isdf9tZwPDvP/pn+pfnvk2rP/O7dPKqs9VeH/qypn4cFWBha82CrhMcx9SnKtzVZnycHCXtAgP7wf3ur+2fEr+MPHFRQ3eGxryG8J7HtV6LVcE2RVPi+TlWNeRpFzm15P7LwKemzfMxfG4LYBjjg5txeD/66KMyvE866SS1t3lnXvoZ+sddOTr6kx+rPZbP/8OU45/ff2ofvXP8OP3qH91Pp69dJ/f58q1AYyKMmq01872Oj+lVK8bh5a42m6AhcYOiXWAg/yzwu7/zuY5Snwh8L3xMqxHfGZJ+x2V2BVs/9fM66APVV8nLwRbH3U04Xq+F9/s8RnqEMqWs67YA5umI4OaR9mWXXSZH3q+//rra27wT3/sBevOH31db/l79h6fo+fvH5DTKz//2/632+vCtQBPmUGvme51frVhgtZnG9/5ifzlP9kPKFnbrRw+8NrgISbUOuQzvOnVnlXYdfi2VVpw0DSSqj1nh91r8HoObfZI575JkAIMYH9wc2jzS5tDmkXcUfnrwn2jFz69RWxb3aNv+J/vp4TJ1nbxCbXnwq0CLXZhasSBzvb8ifhGN5vWihDDHnaCd+YQcKXNhcKKmfKEej8eQH2zyXwlWwQOmSsBUxgd31KHN/vcX/pj+09U30/t/8VdpidZA/ye//InKxda17CT6j1dcT6/+vf+4U448ZQWaKyx6s5Tl7WZrzYL41YqFrTbzvb/Y350hu9tXtrBbPzqlxWur3LWXBvu6rZLhwLozJ9lz2TdCI30l778Q/F5LnceYyfVTSvwiSXg1JQMYwOjgPnbsWOShzX703AH69vYRWnXxFdT3F1N07I3X5YeTi084QV6/uOsEOnb0qNx/4T2P0wk/s1yeKhiIK9D06jK+jBHtleHcXK1ZML9aMb9qM64mU9MLcoff/cX+rPVLiPeN0bT3VMnELCXsqYrZgpxbture/I7rQXZfJilZ0uvSdP6vxfMxtPPKuT2+7nQRQJsyellXbrKJOrT9ZB7+Ah1+9jv07S8/Suf91qV0xi98hO674nfUtQAArYP1uEP62dNPpdSf3k6Jj/4SlZ7+eyr83ufpxy//QF0LANA6CO4G3fbS/6JbVlntOgAA86EjTgcEAFhIMOIGADAMRtwAAIZBcAMAGAbBDQBgGAQ3AIBh8OFkk+688071k9PmzQ2UKwAANAHB7cMdzO5A5utvueUWtWW57bbbfII7rda7rirnU+or4POJn9cwlVIRN8rwWtjya/toqgGIQ8dNlaxcuVL9NHcczHY4r1u3znFpnFrrWq5Wp9bX8Fujw3RyFT6ENkBcOiq4eYlXvymM9mItglSurDcNABBexwQ3h3Yul6Ply5erPXPHUx98Yfv27ZOXm266SV7WrFlDe/bsqVwa5l6jO6DOK5vWq8K0pUiD7hOizqymdqyZ43nWgan72DfzPC5qxACa1RHBzaG9fft2Wqqtnd2sJ598Ul44mPnCc9bueetUKuW4MDvgmyOCLqDOKzNMNMr75VKlYyoQ69zHt87Mr3asmeP5VYfpfI6LGjGAphkf3HZod3V1qT1zpwfylVde6bj48Qr4+srE3QL16rzyo6prUa80q3cfvzozv9qxpo4XogYNNWIAkTM6uOMIbTcuH9YvkZGhV6LZSuaFqfPqpZ6E+lGKqFqsIurj2VAjBhAlY4Obzx7h6Yk4QrtQKMgL27Vrl+MSDXvKQrXcBFZtdVPfoNqvRriy0qyBCrCKoNqxpo4XogYNNWIAkcN53A3i+W8vF154ofrJiwhqx3ncfGqg63Q5/gBPhHm32qRiVoxMSdxvmAeslExa1xSz2nxwwH2q52bzY2vbXN+Vs55JOZ+nUqavel0zx3O9Nuv5uW7jddzJgcrzEDvEiHyuVW0ACweCu625QxIAoINOBwQAWCgQ3AAAhsFUCQCAYTDiBgAwDIIbAMAwCG4AAMMguAEADIMPJ2MW9IUd93XBX+IBALAguAVe8+S5555TWwAA7Q1TJcK2bdtkeJskvXs2ogYd/nbmVHXtbABoexhxC0888QS9/vrrdOutt8Yy8vaaLvGaKrHVnTLhtT/GElQicRmd69fh8bV6ANMguAUO7ttvv51uuOGG2MI7Sr3ZKRqjUbkkKv9zbqXDCG4A02CqRNm/fz/t2LGDtm7d2ubTJr002Ec0vXeGZvZOE/UNij02Ne3hUzMmp1fU/tppFqtKzLGbVxKcylJa/KKo3E+/L4/8K/udVWe7d/N9eB8qygCihuDWcHg/+uijMrwjLU0QlixZQqeddhpdccUVcpunSbwudfGa3DRNIret9bDFlr1ct8WvZoxoYsguM8hSMTnsmteeodx4kZID1WRNDySpOJ6jiVx/9X68BKtcV1YEdEDVWaI0KvYP0QQqygAih+DW8Ej7sssukyNvnvOeq0WLFtHg4CA9+OCDNDU1RXfccQcdPXpU7ud5bK9LPb3WcNuqMhP/nwfdGbsZQfKpGWM8gpYjX31tcA3fvtI8n6aBRLXmjKV350iktrVudp2qM/6LQEJFGUDkENwKhzaPtDm0eeQdhauvvppuvPFG2dazePFi+c/rr79e7m9OmkYy3WIUXahMPRTEthgmV0bVvnhag3NXjnxTlC+r/Q4TtDOfkCNnbsdJVH5BCCL0c5R1jZhDVJ2hogwgcghuJerQPuuss2jjxo1qi2jVqlXqJ5L7+fqGpQcoWc5TSg9LGcJJ0mY4vK0W4+Nyibib2KpAk3trWPPmIzSi5tEtabIG21owN1h1hooygOgguIVjx45FGtrsvPPOk6Ns20svvaR+Em+62H/uueeqrfB4zrmsj4Ilni4pO+amPU3spDxlqMAjdT6V0HPELXCTfClJydJ45SwTniIReyinRvn8gWWvGJ0PpfJE2ujf87zyyvQM/3VQCm6EB4BQcDqgsHbt2khDm/Go+rrrrlNb1ohbD++77rqLJiY8phbaAJ99MjCJDxIB2hVG3ELUoc2effZZeucd79+Jx48fpwMHDqitNtObpWHXh5IA0F4Q3DHhqYHHHntMbTmnSh5++GF68cUX1Va7UOdb8yl+oznXdAwAtBNMlcTsoosuok2bNtHpp59OL7/8Mj300EP01a9+VV0LANA4BDcAgGEwVQIAYBgENwCAYRDcAACGQXADABgGwS2Y1n4DAAsbzioRCoUC3XzzzbEXKFx11VWUyWTUljdeSXDXrl1qy43Xunau7FfOp+ZYpDDf+DWhyAGgEQhuIe7qMhuvt51KpdSWN/4l4r+8ayeGHIIboFGYKlHms/2Gw5ovAABhILgVXq8k6vD2a7axgzq6sOZRq14XJvZ41pRZt8umq5VjfBV3WNq3dRQeeFST8XGriwCq49l34dvbVzruW3sf/blW8XXi9vLGqDwD8IPg1nB4x1VdFlRLxtMn9aZQqrTWGUegaXVhYsu/pkzcf5holK/LFimZm5WFw/K2jqozEaIe1WQTk1q9WXqAEmWuvbQOLtt5SrziN983Q6Wsum8qT4mcFvCu52rhoJZND1YhAyrPAHwhuDVRV5fpgmrJGht9lylvh6kj0LS6MOZbUybuby8iJavNtPvpVWd+1WRcRZboETHLuZ2g6XG7sLhaYmzdt0iT9nPjNb6LIqztZjP3cxX6xgrUN52qvh5UngH4QnArcVSX+XVJ2iPs8KPsBoWqKQvDo5qsUlDMnZTTtHeCtxO0Wi8xbhjX8ZS1zkoBlWcAvhDcStSh3YjIQzxkTVkg32oyq6C4b8zupOTtBA2MJKolxuq+9owK/yIZTmoj8BpiBD7aT1mqHWGj8gygFoJbiKO6zAufn61/MOl1ue+++9St5yBsTVkg/2oy2UspfhnY0x28nUgmtOkP676JnLqfnCvX57O9TQylaLpPPB5Xo6HyDMAXzuMW4qguAwCIC4IbAMAwmCoBADAMghsAwDAIbgAAwyC4AQAMg+AGADAMghsAwDAI7hj94R/+IT322GO0cuVKtQcAYO4Q3EJca3B/+MMfpve85z0IbgCIFL6AI/BXzeOoLuPA5sszzzxD77xjvc3vfe97SbzntGTJErnN/v3f/52++93v0htvvKH2+OH1qvXV/nilwGabY/hYaJ4BMBGCW2hFddm73/1u+v3f/336+Mc/rvY48XopvE7JF7/4xUrI13KGLRcgFPqmKdWvlmltCIIbwFSYKlGibr9x49D++Z//ebrjjjvoK1/5itpbxSPw3/7t36aLL75Y7alvJjdOxW5eYlXtAIAFAcGt8CJTcYU3T4/wSPv++++nvXv30p/92Z/RCy+8oK51uuKKK9RPjfOuK2P1asB49F29j+9xtDqyqWxW3MdVW2bfp1JJhvoxgDgguDUc3nFUl61atUr+k+e22fLly+nnfu7n5M9up556qvqpvt7sMCXL1fIC77oyDk+rXaa2NYe5KsME7+OIcNfqyEapT5tr5+tqa85QPwYQDwS3Jq7qMvuDyMsvv1yuyf3AAw/Q+973PrnPbfHiev+TVOvEeJ3qrD6/7VVXJosUir7rWddUhjHP4/RQopynnep2cprG+tG6zq/mDPVjAJFDcCtxVJd5Ofvssyuh/fLLL9Po6ChdcskltG3bNnl2SX1656RWTtBUXZlHZVjTtWdeNWeoHwOIA4JbmY/qsj/5kz+hf/iHf6Af//jHNDU1JefAm+ZXV8YdkWWvCjLmURnme5xZKnVnaESFr5ymsX60rhNb3o/B+Y36MYAoIbiFuKvL/M7P5nO3df/0T/8kn0tTfOvKZijXn6WSVkHmHvk6KsN8jzNBQ9kiJVUd2RhNV6dK/GrOUD8GEAucxy3EXV22bNky+uu//mvHl24YT4/wSNt2/fXXy29bXnvttWpPG+MplUKCxvXpGgBoiSXvec97tqifF6zvfe976qd4vP322/JLNeeee67aY7ngggvkfj6D5dJLL5VN77fddhu9+uqr6hbtK337F2jDor+lu+9/itr/2QJ0Foy4W2TRokXyyzWbNm2i008/XW7beHqEz+u+++676R//8R/V3nZjnVaYsee85YeRGG0DzAcENwCAYfDhJACAYRDcAACGQXADABgGwQ0AYBgENwCAYXBWSYweeeQROuWUU9RWOK+88gpt3LhRbQEA1EJwx+jJJ5+UX6ppBNeoXXjhhWrLjdfNjqC6TH7rkZdhRfsNgIkwVeKjfQt+q6sDyuVBxrLU8NJNctW+ZkObf3loBQoA0HIYcXvgJV75q+cbNmxQe5qzb98+uU5JI3hBqnXr1qktNw5NvSfSvd0K8/GYAKDDiNuFQzuXy8mWmrnir7HzWtuNXPwqzeqzRsK7d09RpTrMUSemrwroGjU7bmfXjjF39Rjfj6dqVGmCPCDqyQBaDcGt4dDevn07LV26VO1pb+7qMi5GSJRGySpYECGrVY31pPKUyHlNcfDtPGrH1NokzsqzCRriOjN7uobLElBPBtByCG7FDu2uri61p10FVJdxMYKd4rJOrEiTdpDO5Gi8KIJdK7uR/GrH6lSeVaCeDKDlENyCOaHNfKrL5sSjdiws1JMBtNyCD24+e4Q/iDQjtBug6sQG7CDtzdJwUhuB2/xqxwIrz2qhngygdRZ8cB86dEiePbJ+/fqai9msOrGEqhqblfPYXiN0n9ox38qzCZosah9Oop4MoOVwOmCM7rzzTrrlllvUVjg8+t+8ebPaigufHTJAkyhCADASgjtGW7ZsoRUrVqitcI4cOSLvFyseJQ+XKOX4YBMATIHgXkjkV90z1N3sV+UBoC0guAEADIPTAQEADIPgBgAwDIIbAMAwCG4AAMMguAEADIOzSiLEa54899xzais6qEADAB2CO0JcO3bzzTdHHt7RV6Ap/EWcnFaElk9Rf5iTuyOuPkvvnqUcZRtb3KqCvwXaWLHD3B7PTXt8cczI3peI32PoLJgqiRC33WzdulWOvNueDO2EttJgiqb7CuGWZ51T9ZkLL36VKFIxMdyaOrQ4Hy/KSrgo32PoOAjuiO3YsSPy8OY6Mx5BN3Lh+/jrpexwkopZPRhmKDfKi02NiAhpnd7BPqLpnbRzmqhvMP7kbvXjAcQBwR2x/fv3Rx7ekVegqZKE2iVeeSnXBFkrs6oRYLa6+l91NO4aHfKf9eo2fKmuyR10DNZLMkf3zoiHlkkq9tis+zqq2IJq0lZXn4P/Xw31Hy+b9jpO0HU61/vi83x5qsbeZ63EyPdzV8K5jtX0ewydCMEdAw7vRx99VIb3SSedpPa2mXKJnlc/OuktOSJIEpPWVEq2SN2eo3ERHIEVaQHH4F8gpKrX+JeG2HIOgvUqNq8qNXUzfoxhotHA5ymEeLzKcawKfefr8L3Oi//znRiytnu4Bi7JUzYelXAOc3iPoSMhuGPAI+3LLrtMjrxff/11tbfNdCfI3WJmKVOpkugiSHbaaTMpgsUejWvqVqT5H8OattirViicIR4EZ0b0yNGr2IKq1MRjjKqVDv2epxDm8SrH8Xodvtd5CHq+lTXMeZQdwhzeY+hMCO6IcWjzSJtDm0febUm12wy4h2UybEo065E10UvTSKZbjA6rRQ0FsU3JgZhGi40+Xi/1JNSPNYKuq4OnPHKkquJSlC+r/QANQHBHrO1DW5qh3HiRkjl77phZf46LoVtj5QphK9Lc0gOULOcpJQPMvnCQefxCYQ1WqVm0eeJQj9dd/cBSjZirryPoOg9+z3d1grrtaSp5HLk3WLPvMXQsBHeEjh07ZkBoKxND1JMlyqnRJ//ZLoaB4c7jdghbkeaUHkhSuTJtYePpi7IYBHsmt0+VWjjhHq9MpYRVejwr55T11xF0nRef5zuxk/KUoQLvG0tQqTLidlXCOTT3HkPnwhdwIrR27dpYQrt9K9A6CY/O/b7IE3QdQOshuA3QthVoHQXBDeZAcANICG4wB4IbAMAw+HASAMAwCG4AAMMguAEADIPgBgAwDIIbAMAwRp9VwuuCxFEV9nRhlE77wLvVVtW/vfEWffZzD9E3n8UCEwAwf4wObi4MiKMq7KX9t9KOLxTVVtX5vR+itb90ptpy+v6rr9FHU2Nqy43PA9ZXgitTvl3OCeZFj1CRBWAUo4P7iSeekMum3nrrrZGGNwe3lzffepv2TP0jHf7Bv6o9VTd8Nkmr1m5VW27OL3D0Zqeo0DdNqX61TGhL4cskAKYzfo476rYZG4+43Zd7H9jvGdqNmsmNU7HbvYg/AEA4xgc3L+oUdXhn/2Qv3X3/U/Kyd+o5OvLjoP7GueIRsKuiq15NlV+FluN+9pKt+vF5fyMVWSEqwwCg5TrirBIO7yirwh6beoHu+6sv0p69f03rL/kk/Y+/mYk0vHuzw5QsqwotSa/oEkFar6bKs0KL78dz1ep+WdLWgraPz9fVq8jyOEZ6hDKlrLq/XhkGAPOhI4I7yqqw5cuXy2Pwh55Hjx6ldDpNn/rUZ+jvDpTULZqlRrlixFrIlCjrmN/WK7pC1FR5VWjJ+1UfYzYnxtWVO2nHD+J3jOdLVE7mUEIL0CaMD+6oq8LuvfdeOuuss+jFF1+kJ598Uu77jd/4DTr4/SPy5+apUa4ctUa1CL67QquoKrHUpamhsccxxC+IfvHzKFlFApgqAZhfxgd31FVhvO712NgY/d7v/R5dcsklch832yxa1KK3qm5NlU+FlrpfY9VeLnWOMZPrp1S+TAk00QLMK6ODO46qsK997Wv0sz/7s5XQZsePH6dly0+i57/7qtoTp3o1VX4VWtb9SKvKqq3AYvUrsmqOUWklt6Z5vJvWAaBVjD6PO46qsBNOOIGGh4fl9Aj/YuB57lNOOYVKpRJ97nO/T/dsuZjO/8iH1K2rgr+AExU+AwTnYAMsdChSqINH3zyqP/PMM+l73/se3XDDDfQv//Iv6tpWQ3ADQIecVRKnH//4xzKsecT9oQ99iP70T/9UXQMAMD8w4g6JR97ctv7aa6/RyMiI2gsA0HoIbgAAw2CqBADAMAhuAADDILgBAAyD4AYAMIzRH06iugwAFiKjg9uc6jIbr2tdoEy32izn56kFh+lf5sEXewBMYvRUybJly2Jpv2FcRea+/NIvfIge+esDNc04fPEaoTvIgoICJca1lfdGiQbntNIeB66+VjcALATGz3Hz19HjCG+vcObqspdf+Ym6RSPESHvMKkdwrLQ6k6Ocvg0AEILxwc2LTMUV3pHRl1/1U6+uLFtdoc8qNOD93jVk4WrQAnjWl7mPjTozgPnSEWeVcHhHWV0Wi3KJnlc/1hKhWK+uLDFpXZctUndmRNxjgoY8a8gaqUHzwvepV4Emjo06M4B50xHBzSPtqKrLYtOdoEr7mFuYurKd6sqJSXHLBPl3GTRSg+YhbAUa6swA5o3xwc2hHXULTuRm9tJ0WWu1aXshKtBQZwYwb4wP7rYPbWmGcuNFSuZcAdebpSxv160ra1Izx22wAg11ZgCtZ3Rwx1FdFpuJITXHXP1Ab3aMaK8M0Xp1ZX6CashYM8cNWYGGOjOAeWP0F3DiqC5jft+cDNKa6jIAAKzHDQBgnI44qwQAYCFBcAMAGAbBDQBgGAQ3AIBhENwAAIZBcAMAGAanA/rYsmULrVixQm3VevPNN2n3butLKAAArYTqMh933nkn3XLLLWqr1m233UZHjx6l8fFxhDcAtJTRUyXbtm2b1zW4u7q6aHh4WC7EZCy59nbMLTqteAyABcTo4I6zuiwsDu+hoSG11Y6sAoRqaLq25Sp/MXdNtuIxABYQ4z+cnK/2G55GsS8nnnii2gsAED/jg5sXmYo7vK+99lq6+uqr1RbRpk2b6A/+4A/UVjjp3WqlPb5UVttTo990tSqsWkwQdJ1PbZickrD3c70YH0OvN9vt2uY76iNw9XNNTZqiHX8qm9XuV6/GTH+MMM9dP0ad5wSwAHXE6YAc3nFWl/3ar/0aPfTQQ2qL6Mtf/jL98i//ckMj7Ykhu5ggS8XksDZ1IUJ0mGiUr5PLqY7Vv86zNkwEXE3l2POuerMhn7oznXjMmpo0xsev1qCNUp/4BaA0UmPm+9wbrW4DWLg6Irh5pB1XdRmH86JFixzHPX78OP30pz+lk08+We0JobJ+NY94dSJER3Mkp3+9Ksu8rvOqDQusHGuET00aH7+cJ/uqmdy4uE5ppMbM97lHVd0G0PmMD24O7ThbcH7rt36Lnn32WVnaoHvmmWfoyiuvVFt18DRAjlQdWIryZbW/Ri/1JNSPNbTr5Id9XrVhISrH4uD7fDw0clsA8GR8cMcZ2uzhhx+mX/zFX6QlS5aoPZZf+ZVfoS9+8Ytqq47VYixst7z3DlJft9yrdFPfoBo+yuv0arGg6zgDtdqwBivHGsbH787QiAra3uyw6y8H1/Ph6Y/KvHYtr+feUMUawAJmdHC3orrsrbfeonfeeccxd7548WK5HXpaZmIn5SlDBZ7CGEtQyTHiLlMpYY0+Z+U8r14t5nOdZ22YX+WYu96sXt2ZH3H8rNWbycceo+nqVEkjNWYBz73x6jaAhQnVZT70b05ed9119Pbbb8tvSbJPfvKTdOaZZ1Iul5Pb/C3KzZs3y58bw6PSYSqlvM5xDrquDfD0TyFB4z1hApZfywBNhrotANRj9Ig7zpG27u67766ENuPpEzu0F6r0SKY6/VNPeoCSYW8LAHVhkSkf9RaZ0h05ckTevnEmjbj5/OsCZSrz8/xBaJ0RtByVi4Dns0La9S8HAAMhuAEADNMR53EDACwkCG4AAMMguAEADIPgBgAwDIIbAMAwRgf3fBYoAADMF6ODe76ry8Ljc7LV17nlxX8NDwCAeowO7jiry9531vvo4j++mIa/NkzX/O01dMn/c4m6hmjJiUvo6mmrWEH/ORh/CcVatc9aWjtLyG4AaIbxc9xxtN+s6F5BqXtTdPzYcdp74176cubL9Pw+6wvbMqinrqYlXUvouqeuq/wcLrwtci3r7j6yF/4DAGiE8cHN65VEHd6/8ju/Qv/60r/SE59/gl7+zsv0o5d+RP9n8v/I6469eYz+vP/P6djRY3T3x+6u/PznfX8ur28cT6NM0e7dU2TVjQm+NV6Cdp2zPqz2OGHr0viq3izfzz6u328Ur9qxerVlABA144ObcXhHWV122prT6LtPfpfeOR7PagByLevyNO2trN3RTYnSKPXItT9EsPrWeDmvc9SHSfpxKFxdmlqqdUwcTd7WtxrMWqukbzqljqlqxxqpLQOASHREcPNIO8rqshOWniBH0V6anyqp1orxOtTZflVJJpVp2k7xoBqvoPowSTsOC1OXJqvAtPv5VYOpIoeatbYbqS0DgEgYH9wc2lG34Lzy/Ct01sfPUltOzU+VVD+ctEfEseIplVB1aXOEKjKAljM+uKMObfb0vU/Tqf/pVBrYMkCn/8LpdOo5p9IvpH9BXavCWwW1/nMkgmq8QtSHVQTWpYWl5sN5MD2zl6bL/tVoztoyAIiT0cEdV3XZq8+/Sntu3EMnf+Bkumj7RbRu2zp5pklrBNV4BdSHuQXWpTVjhnL9WSpp1WhydN1IbRkARALVZSaTRQVh68MAoFMYPeJe0KEtNFQfBgAdAw04RmmiPgwAOg6CGwDAMB1xHjcAwEKC4AYAMAyCGwDAMAhuAADDILgBAAxjdHDHUaAAANDujA5uU6rLeF1s5+JL2hogNv7qeCQrNHkcu2F8DOtr7PYFq/8BtA+jg9uU6rKJySIlK6tGCXLp1m7q0ypwensSVC418x3IKILai76aYQ/1t9UaJHG9ZgAzGD/HHXX7DYu8uozXrE70VDomewf7qJTPk7XIttxDYpdzLW0AAB/GBzevVxJ1eEdeXcZLopLdMWmFdGnvLJWSA2LsyFZTortEs3ZuO6rLVJ2ZUFtFxiNPLklQJQ36VMtqveJMG5p6HtsawTrq0/w47q9PAXkcw+d18HvgVXfmXbXmvm3Aa67wOr73YwKYyPjgZhze7V1dNkOzJdViwyEtYnzvzARNFlXTTHqAksVJteaICCa5lKuapshSZQ3s2iqyCRrin+1pjUpvmLOarFpF5n9sd+2Z3thTDTq+v1+tGnNXsHk9lrXeSk0FmuBZtVZTjeb3mm0+x0fFGnSQjghuHmm3e3VZZZ6bQ7o0K2vDni+RnOd2zG+r+e9KaObE2NKeUvGtInNzV5OpXxBBxxb3cU7VOOe4ZdAF1apJ7go2j8fyq0BjXq+v0Wo0VKzBAmB8cHNoR92CE0t1mZrnTouQLqrkm9k7TZQY9Jjf5lX/qqEpR5U87RBJFZnHsWPTwGP5vb6oqtFQsQYdxPjgjjq0WSzVZXKeO0O5DFHl5BGuIktmKKPPb6vqspqKsCiqyPyOHVZQrZqb32P5VaDVeX3B1Wg8762mbFCxBguA0cFtVnXZDO2dFsPIMs9vq13E89ziH5X5bWZVl5FWESY/gPOtIuNjqCmJusNIn2OHZt3fu1bNze+xfCrQ/F6fZzVa0GtGxRp0PlSXAQAYBkUKAACG6YizSgAAFhIENwCAYRDcAACGQXADABgGwQ0AYBgENwCAYRDcAACGQXADABgGwQ0AYBgENwCAYRDcAACGQXADABgGwQ0AYBgENwCAYRDcAACGQXADABgGwQ0AYBgENwCAYRDcAACGQXADABgGwQ0AYBgENwCAYRDcAACGQXADABgGwQ0AYBgENwCAYRDcAACGQXADABgGwQ0AYBgENwCAYRDcAACGQXADABgGwQ0AYBgENwCAYRDcAACGQXADABgGwQ0AYBgENwCAYRDcAACGQXADABgGwQ0AYBgENwCAYRDcAACGQXADABgGwQ0AYBgENwCAYRDcAACGQXADABgGwQ0AYBgENwCAYRDcAACGQXADABgGwQ0AYBgENwCAYRDcAACGQXADABgGwQ0AYBgENwCAYRDcAACGQXADABgGwQ0AYBgENwCAYRDcAACGQXADABgGwQ0AYBgENwCAYRDcAACGQXADABgGwQ0AYBgENwCAYRDcAACGQXADABgGwQ0AYBgENwCAYRDcAACGQXADABgGwQ0AYBgENwCAYRDcAACGQXADABgGwQ0AYBgENwCAYRDcAACGQXADABgGwQ0AYBgENwCAYRDcAACGQXADABgGwQ0AYBgENwCAYRDcAACGQXADABgGwQ0AYBgENwCAYRDcAACGQXADABgGwQ0AYBgENwCAYRDcAACGQXADABgGwQ0AYBgENwCAYRDcAACGQXADABiF6P8HrRoLbYJRiYoAAAAASUVORK5CYII=;" vertex="1" parent="1">
          <mxGeometry x="30" y="290" width="366" height="843" as="geometry" />
        </mxCell>
        <mxCell id="rWH31zUBPXZAnD3ZXqds-41" value="" style="rounded=0;whiteSpace=wrap;html=1;fillColor=none;strokeColor=#b85450;strokeWidth=3;" vertex="1" parent="1">
          <mxGeometry x="80" y="404" width="190" height="40" as="geometry" />
        </mxCell>
        <mxCell id="rWH31zUBPXZAnD3ZXqds-42" value="" style="rounded=0;whiteSpace=wrap;html=1;fillColor=none;strokeColor=#b85450;strokeWidth=3;" vertex="1" parent="1">
          <mxGeometry x="80" y="576" width="210" height="57" as="geometry" />
        </mxCell>
        <mxCell id="rWH31zUBPXZAnD3ZXqds-43" value="" style="rounded=0;whiteSpace=wrap;html=1;fillColor=none;strokeColor=#b85450;strokeWidth=3;" vertex="1" parent="1">
          <mxGeometry x="80" y="710" width="211" height="57" as="geometry" />
        </mxCell>
        <mxCell id="rWH31zUBPXZAnD3ZXqds-45" value="" style="rounded=0;whiteSpace=wrap;html=1;fillColor=none;strokeColor=#b85450;strokeWidth=3;" vertex="1" parent="1">
          <mxGeometry x="80" y="898" width="210" height="40" as="geometry" />
        </mxCell>
        <mxCell id="rWH31zUBPXZAnD3ZXqds-47" value="Persistence ve Infrastructure KatmanlarÄ±nÄ± da referans edebilir." style="text;html=1;strokeColor=none;fillColor=none;align=center;verticalAlign=middle;whiteSpace=wrap;rounded=0;fontColor=#FFFFFF;" vertex="1" parent="1">
          <mxGeometry x="220" y="960" width="170" height="50" as="geometry" />
        </mxCell>
        <mxCell id="rWH31zUBPXZAnD3ZXqds-50" value="" style="rounded=0;whiteSpace=wrap;html=1;fontColor=default;fillColor=none;strokeColor=#FFFFFF;" vertex="1" parent="1">
          <mxGeometry x="220" y="955" width="170" height="60" as="geometry" />
        </mxCell>
        <mxCell id="rWH31zUBPXZAnD3ZXqds-51" value="" style="endArrow=classic;html=1;rounded=0;strokeWidth=1;strokeColor=#FFFFFF;exitX=1;exitY=0.5;exitDx=0;exitDy=0;entryX=0.769;entryY=-0.011;entryDx=0;entryDy=0;entryPerimeter=0;" edge="1" parent="1" source="rWH31zUBPXZAnD3ZXqds-45" target="rWH31zUBPXZAnD3ZXqds-50">
          <mxGeometry width="50" height="50" relative="1" as="geometry">
            <mxPoint x="190" y="910" as="sourcePoint" />
            <mxPoint x="240" y="860" as="targetPoint" />
            <Array as="points">
              <mxPoint x="350" y="918" />
            </Array>
          </mxGeometry>
        </mxCell>
        <mxCell id="rWH31zUBPXZAnD3ZXqds-52" value="" style="shape=image;verticalLabelPosition=bottom;labelBackgroundColor=default;verticalAlign=top;aspect=fixed;imageAspect=0;image=data:image/png,iVBORw0KGgoAAAANSUhEUgAAAWkAAABzCAYAAABaQfMHAAAAAXNSR0IArs4c6QAAAARnQU1BAACxjwv8YQUAAAAJcEhZcwAADsMAAA7DAcdvqGQAABAoSURBVHhe7d1/iBzlGQfwJ00uIRcspIJECV23chBIt+YPCxauuizHkWBOzIaFgkJZ6bFaIfZACk7BJgYmpX/0YkCT82j3HynIwobmBMO5bDf2QCuVIotwuMi6JFr0DxVLWmK92Pd5552dmd3Z2R83e3ln9/uB8XZndmZ3An7vvWdm32dbLBb7lgAAQEvfUT8BAEBDCGkAAI0hpAEANDYSNemTJ0/S3r171bPefPHFF3I/AACdjURIv/DCC/Tcc8+pZ715/vnn6emnn1bP/CWMEhWzMfWMqJFP04xZVc8CZJapZiZ7f32QhEGlYpb4U1SMKZovWKv7Yh+jYtBU4AEytFwzKame2UI5j16F+W8HMAJueblj//796pFeMss1GdAcjFNTYjEqFMsWqbacUa/YGom5lAxoFp9KqEdD1shTms9ZLOl845acNwBYbmlIHzx4UI6Cw7J9YjvdN38fPbL8CB196Sjd/cDdcv1jrz3m+dmVGHnmeDgpRp7NgWdhnkROEyVzZHTLSvFaDrjNjwQTNJcSEd2oUKVBFEvNiTVbq2oukMjp3s47DKH92wGMhlsW0hzQpmnS5OSkWrN5h35+iHbdtosuPXmJXvvla3T171fbArqXoLZHr5VVb2lgvc5pFaPUnEgr/rO8VqNaqUQl/ikfG1aIqm0lO9Xs16qlbb3fMVhijmRGl8/RubJMaeK3trYZzj5yWSY51m1Z33wvFs/5v0+gKq3we4vzjh+w1nQ8H/u93edTK9Hycsl5vT0ib/38fv923f59AMbALQlpDugzZ87Qzp071ZpwxJNxejf/Lt385qZ8vnFjg145+op83PpzENVaXT1yK9OCKgtQLEsnWqsCHDSmGJZzPdhVPvBWD/yPYf2yaFB5pareW/2C8GhQPs2liXkqcPBx7dlVrvCOSLt81i5kuaXf8xGfOUlL4rVp74i8atKM+oxcSuLPs+j+heKxuc8NEGVbHtJ2QE9MTKg14dmxawd9u+G9DjrISLqTxFRc/qzXXMFXr4mxpqO1bpyZtS7D2aPy6kpZxKrIqllX0vgeQ5U6RMhli2IEycHIz1pLHo0yiQyX7L8AGuUVz/Ga1PvYv2z6rXHzeQ9yPo36uvhvldp+x9mjaXVuHXX5NwYYZVsa0sMMaPbxPz6mxM/E/8DirLZt20YTkxMDjaTtEPMEj3AgLiOQZOYMmyp1OBfx1EjUXfLowPNLZNPsXxYVaqn+bApfmK2JUb/4M8AaSQOAry0Lab6Lg297G1ZAs3fOv0OT35uk9B/TNPfSHO370T65vu9Sh99FQvFnPg/4GvkF6ueaVmHVCiB79Nep3t2qfVTs1IbbSx6W5qg213vdlm8zbNaAfWSWi8R3ITby54g/8aDn45Ug648Sq5Rj/4UCAO22LKSvXbtGx48fpyNHjrQtYbnx1Q1683dvUjFblBcPr759VW3pX2Gea6BklRrUn+QD3bvLdyvYt++J4/BtfXyc4PudD6jRqxViNnuE3/EuD67zig/diGWpyJ85IHwDufY3k1bNu3neA51PqyqZSxz2VilnMWWtBYB2+DILAIDG8LVwAACNYT5pAACNbfkteAAA0DuENACAxhDSAAAaQ0gDAGgMIQ0AoDGENACAxiJ5Cx7PAfL++++rZ1ur0/zX+GIMAAxDJEfSp0+flkE9DBzC7sUPf7vRvXTG7ajU18rVMtDXtEPHn6sU/iT+cla7IRwXYIxFMqR3795Np06dGlpQu8P38OHDnqV/9nzPvBhU5zkvRrUVlZwjeqavCagAIFhka9Jnz54dalAPR4HmeQKk5KzVRQUAoIvIhvTa2trQgponX+KFXb58WS7PPvusXA4dOkSXLl1qLn2rrlC5kaTmVNWeNlKqBZZdjsg42zxlkqB9DKe1Vad9SsaUWqkMcjxKkFGy96mpziwtZRTf4/rtBwCdRPruDg7qixcvyqDes2ePWjuYK1euyIVDmBe+ENh6MTCdTnsWZof5YESoFVNUtsshBlGumXAxyuZIto2aknOmLqrw67JPfFWt5+lET6hg5H2yVFedzxcoRU4vlEGOx0FbpFQ5bW0TS/tUpR2OmzlB2brVest/PwBwi3RI8wj62LFjckR9/fp1tXZw7vB99NFHPUsnfmHenerukpiiuJpTWY4szSTFmt1eG5RfMK0J/6smLVVUI9hu+5xTqVdYpYp4pdWJS+zTyJO9qWouiW3KQMfjrjEVWgoqPnc67nqdGklTkwuoAPqLbEhzQPMImgOaR9Rh45G5ewmNDLg6OR2uKmSoUaVcfIeWdicTWy/79CPs49l8jqsa0C7QIsodAD2IbEgPI6CLxaJc2Msvv+xZwmGXHeZlKyqq1qhOSVd5wc3VJkuNXGWHqsB9OuB9XF22E0bOKXcMdDyrrh64T5fjVs0Z2f0bTWUBgkUypDc2NkIP6AcffNCz+LFD3B3m3bn+5K/lqJ5212Gtuz3EC9R2sTSHlg2qx63RJjdsbQZ74D6diH2MCiVN6/WLVBZjXNsgx6uSOaNuJ1T7tO/S4bgZ50JkMVsPLpkAQDS/cTg9PT2UEoc+xIhbBjruOQYYd5EcSY92QAMAOCJ9dwcAwKhDj0MAAI1hJA0AoDGENACAxhDSAAAaQ0gDAGgMIQ0AoDHc3eHyVnGB7rzju+qZ4z///Zoe//Wf6e1/NtQaAICtgZB2+Wjtt3T2T84Xpm33Jb5P0z/+gXrm9a/PvqKfpBfVs1b8zUHTmSdDqBh9Ts/JczLLKT99vn0YtA0ARsLIhPT+/fvp2rVr6tlgOKT93Pj6G/rLG+/RJ5/+W61x/OrxJN09fUo9azXI17uD9sHXxQHGzUjUpHna0k5NY/vFI+nW5fwra74BDQAwbJEPaQ5o0zRpcnJSrYkCHhGXfFpT2eURNXOenFpOvTYRtI2PKaBdFcDIiXRIc0CfOXOGdu7cqdboyD1VqR2cTKxva01VoPkpgyrcEYXbTnmK10HbmAhstKsCGDmRDWk7oCcmJtQaXalQlSFpzwnNOrSmGhTaVQGMpEiGdHQCequhXRXAqIlcSPNdHNyhGwHdAu2qAEZS5EKab7M7fvw4HTlypG3Rk7smbV8gDFKg1Yr74qBb8Da0qwIYPfgyi0unbxwGCf4yCwDA5iCkAQA0Fulb8AAARh1CGgBAYwhpAACNIaQBADSGkAYA0BhCGgBAYwhpAACN4T7pIUAbLgAIC0J6CMJvw2XjuaGLlI2pp408pWdMwhe9AUYXQrqFnm24BNnPMEt1d49Esc44YJKJOaIBRhZC2oWnQOUZ9ngCp83oNJIOEhzS1gg6voRJ+wHGDS4cKlq34UrMUSpWodWggPa0znLPG61abGWc7bwtYZSar3Vm5uvntUK392xrDwYA/UJIC5Fow9Wo07p62I5bZ1mlEDnZfzpPcdPV+5CnS80RLfA2o0JJs0aLtGC9ttm6y9bra3t4z7b2YADQr7EP6ch0eYnF6YB62Ea2znKNtKsmLVVixN2zLA3KL6gLjLJVV4PKK+pyY1vrrh5f28t7htkeDGBMjXVIRyagqytUbiRpFkNRgLEztiEdrTZcVTKXrNKDU/cV+O4Ofq5aZzVDXKzPJbvUsDfrVrwnwBga25COXBuuwryq+zoX6mqLRCsyFK3WWc1txRSV0+7O5MNwK94TYPzgFrwhQBsuAAgLQhoAQGO4BQ8AQGMIaQAAjSGkAQA0hpAGANAYQhoAQGMIaQAAjSGkAQA0hpAOAc8BAgAwDAjpEJw+fToiQc3zPKuvcavFMxfIpoVwfDlHtXvKU4DxhpAOwe7du+nUqVNDCerb77mdjv7+KOXeyNGTf32SHv7Dw2oL0fZd2+mJ8hNtj4M1KJ92zwG9HPI8z67ji6V7JxnVIMAO5apJM1MzZMrZUVu2AYwhhHRIzp49G3pQ743tpfT5NN3cuEkrz6zQq9lXaf2yNfW/DOXSE7R9Yjs99benmo97C2pFzmSHeZ4BdIaQDsna2lroQX3/L+6nLz/6kl7/zev0yXuf0OcffU4frH4gt23c2KALMxdo438b9OJPX2w+vpC6ILf3JDNLycqSGrWKp8uuUkWzTsH9FX3KF57WWd1G42pE3NZOi9eblOQuLkWxXh7cHj23bjPk5/CUTzLieCVDfMJWfp+5w3kAaA4hHSIO6osXL8qg3rNnj1o7uDsP3UkfXvmQvr0Z5hxYKvQ4rEwiw1WPKMzbZQqDKsmcVWbInKBs3WgpX4gAlVOTqtcbRLlmTcJ1fE94+7XTKtA8v5ddIvHURlq3mdac2q7OB5nZJFWWVBeZJqtpb6qc9n5m3/MA0B9COkQ8gj527JgcUV+/fl2tHdyOnTvk6NjP4OUOd026Tjl3zZdHpjJceQSrrNepkTRbGtBy6yx32IvxbrNvlrsm7Z5fWqzfbDst3i85q4I/Q7PxPNmHbFJNe5fsPw9sfucBEAEI6ZBwQPMImgOaR9Rh+HT9U7rngXvUM69Qyh2yLZfqS8jlCx5Zy3BNU75hvcS6kDdFC7QoA9kpE1TUa9WyJUPTAp3Lx+WoPWHkKF5eaRlFB+h4HgB6Q0iHJOyAZm+df4v2/XAfzZ6cpbvuvYv2HdxH92buVVtVUKtQdj/umRx1NqjO1yIPiLGx3ZFcrucHjqo5Q2mR3HEe/qrWWU6JY+tUV8pEqRN0IkVOg1wuv9h/Eah+kJ0+m+c8ACIAIR2CjY2N0AOafbb+GV165hLddsdt9NCZh+jw6cPyjo/NcZUpZF1Z3e5WOEd5ylKR1y/GqW6PpJslkBoVs3VVRrBaZ4kDNbc5FxrdNWn7AmGQAq1W1D5tw1ufbdyVvJ6kZN254OlVJXPGoLrrs8ldfc8DQH/ozBKC6enp0AMaOuO7UGZXcfEPxgNG0iFAQG8h7krud8EQYEQhpCEi1H3OXKJZaL3tDmB0odwBAKAxjKQBADSGkAYA0BhCGgBAYwhpAACNIaQBADQ21iE9jEn6AQDCNNYhHd22V66Z6zbFNecFAGhprEM6qm2v5LQZi36T3W81hDzAsI19TTrsbips2G2vquYSVWIpmkM4Aoy8sQ9pnncj7KAeetsrD2s0u7xcomYnFE9rq5a5k13bSsaUWslaR8Wtz1vbT/H21tZXrdDGCmCzxj6kGQe1/m2vHDzhfbJRpuZ0yiIo4/UF1QlFhGcxS3URwFb3Fe4Iboetd9sCpZwOLIH8WlIFtb5ifvuI1WhjBdAXhLTAI2j921458zTzfMjGjHuSoYYzAb5sbVWhVTv8eP7lit19RWxrODPIybKJ9TBYp5ZUQdDGCiAUYx/SHNBhd1UZTturTr0DIwZtrAD6MvYhHXZAs6G3vQqiWls1m2rz/MtJNbLmbbEsnVDbZNnEeiisU93ud8gys862Li2pHK46NtpYAYRirEM6Wm2vemW1toqb6uKcbJFlj7zFNqNCSbVtkcquckeVzCVnW22WW83aOrSkEsfr3PoKbawAwjDW80mj7RUA6A6T/gMAaAx3dwAAaAwhDQCgMYQ0AIDGENIAANoi+j9fD3hC31ZcAAAAAABJRU5ErkJggg==;" vertex="1" parent="1">
          <mxGeometry x="1800" y="120.31" width="360" height="114.68" as="geometry" />
        </mxCell>
        <mxCell id="rWH31zUBPXZAnD3ZXqds-53" value="" style="shape=image;verticalLabelPosition=bottom;labelBackgroundColor=default;verticalAlign=top;aspect=fixed;imageAspect=0;image=data:image/png,iVBORw0KGgoAAAANSUhEUgAAAWoAAACFCAYAAAByvbIAAAAAAXNSR0IArs4c6QAAAARnQU1BAACxjwv8YQUAAAAJcEhZcwAADsMAAA7DAcdvqGQAABXTSURBVHhe7Z1/aBznmccfny0by+TALRSnmFvvhQVDTo3+8EEPdPEihLCpVeI1CwUHikqFkhaUE5QD70HOimBU7o+TYmgSWfT0TzgogjUnGWpUoZNzgqSh4SjCYCrKZrGTI/mjLjl8h3uRc+/zzju778zOL41md9+Rvh9445139n3nnRX57rPPzDzfQ7lc7isCAABgLH+m/gUAAGAoEGoAADCcfZP6uH79Op08eVJtxePRo0dyHAAAmMy+Eeo333yTXn/9dbUVjzfeeINee+01tRVAeYG2raLaIKovlmjI2lJbIfRVaK06SOulIYrz9ijKC9tkUYUKY0uqZzeUaWF7nGqRa+H3DdNqYYwij+J8LvVFKg1ZlMIpAgACMCL1cfr0afXKMKQY5WmxVKBCgVuJ1gertFbpU28IYcuioUI6Is2iP57foI38OMU5dPsRgi5EeqMiPpM9izR/OaylfF7tmBOA7tF1oX7++edlNJwWh3sO07mxc/TSwkt06a1LdObFM7L/5dsvu/6Npo8q4yxGuthukTW5SDQ6IaSgc/SNDBKt36Ab60SDI6aoT51q99VLAEBb6apQs0hblkW9vb2qZ+/0f7+fjj1zjJZfXabbP7pND379oEWkY4l13wgN5jZo1ZsD2Fqh9XqeClIvVeRWEZH39rZszWjbE9VxKkS9h9tCQ+nD5mD6SOr0ypY4tFRq0eNgj11YWBPjFtSXh/iCWfM7juBscw3RvwqC1sX9FhUpR6NVvc+9Dk7VOOO2G4vwrs09l/0+71xqHY3lerfjz+k/h/3a9Rm6/lbO5wpA9+iaULNIz8zM0NGjR1VPOuSLefpo8SN6+uVTub3zZIfevfSufO39N5J6jfyDxhzlz6qXLAj5VTs1UtmgnG+0LcSgOko1ThXw+0qLlLd04QiZg78waJ2ETttfEmLLHVSLtdQmxVjOK7NoVWlwvWTPJVozpS2OMU40GbpOL37rWqKxQoU2RETNKaFmvl5fB9HSmH38Ar+3qFI25QkarVVUP6/NPVcz/+6eKxi/8w2aMwz9ePy34msL9nxiKhpv/qEA6ApdEWpHpHt6elRPehw5doS+2nFfH00UUTO5PDX02IX+s18Iwg0lBkurQiCcaFujryB6teh8y6L5DV3sg+ew0x4rKg+8RRxUj07oEluX0bZE/QqY902Mi2NMqnxy0DpbiHFuDbR1MJzflxEpR7eK+zWqF60Y0bxnriBCz3c36J8h/61UNM7rt0Rs3vxDAdAVOi7U7RRp5pPffEJ93xNCIM7s0KFD1NPbkyyilimOIg17w04pDjXa3qs2xKJME6M5EclWlehtU1VsU3E4RjTcRTh1YBFVZJRbosW66pcXWAs0SbPyXFxpGaPYUGtXLdGdNgCkR0eFmu/u4Fvi2iXSzIdvf0i9X+ul0s9LNPLWCJ361inZv+u0B184nN+goqXnKO0UhggzI36Se9jappqIKxuiz3dxFH3y317Kw1Tk29900ZDC5/MFwqgvl939VNfztSlxVsSkTtpIfrHJ3gZb1hCVhHrno0N6wX2q1bVfH/yZqJfxzzdkDi/qb4V0BzCJjgr1w4cP6cqVK3Tx4sWWlhZPvnhC7/30PRF5VuUFxQcfPFB7ErA0JnOUlopm+We8CLXi3UftYonGZF5azSNzoNH3KpeHi1RvpD0cOP1RF0G1r1KTNVShmhaBdyVqXbpBizRKVV7DbF6IpOpvpEP4l0FNpSyWaHVDpRp8F+t8Ydrjtoc53nUIOl/vnGFzeLH/VmJwY07/dQHQOfDAS9QDLwAA0GXwCDkeIQcAGA7KnAIAgOF05fY8AAAA8YFQAwCA4UCoAQDAcCDUAABgOBBqAAAwHAg1AAAYTmZvz+OaIffu3VNbnSWofjYengEAtIPMRtTT09NSrNsBC7He/OCnIPUWDNfSUI8iqxZdPa4TtKHGByNrObdhXgAOMJkV6uPHj9PU1FTbxFoX4AsXLrja7lG1kWVRJVWbYr/Wj0jTggwAIMl0jnpubq6tYt0e7KI/ddNLlQIAjCHTQr25udk2seaCTdyYO3fuyHbt2jXZ+vv7aXl5udF2jbfWta/1k0pNlAPss8LGBNl6aWPWKgXVqUgyn6/tlyel4juv3zgAQBCZv+uDxfrWrVtSrE+cOKF6k3H37l3ZWIi58cVB7wXCUqnkaowj6MkQwhZo/aTZZ8nSm7NKACPG+Np68ZimHdgkDWo1mZPMF2b75RAwb4sll3o7AMCXzAs1R9KXL1+WkfXjx49Vb3J0Ab569aqrBeEn6NEoO69Q6yfNPku374oa42efxWPqi+Ts2rLmmzWZE80XwwYraN7YllwAACbTQs0izZE0izRH1mnDEbreUqPFziuO9VMfFfLqpSRtu6h22U/5zJsZSy4AzCDTQt0Oka5Wq7IxN2/edLV0cFIQyuEl1PopR4OO5biKYKV9VxK7KB6TGyXHF7evMt5MfSSaL4YNVsS8u7PkAuDgklmh3tnZSV2kz58/72p+OEKuC3o02s//7XGqlfS8bJj1U51qeTvq3NbFPZFdlBhTadpRzdK6iHUdkswXx/YrYF5fSy4AQBCZfTJxYGCgLekOcxCRtxR13JMMwEEnsxH1/hZpAABokvm7PgAAYL8Dz0QAADAcRNQAAGA4EGoAADAcCDUAABgOhBoAAAwHQg0AAIazb+76uH79Op08eVJtxePRo0dyHAAAmMy+EWq2zAq3xGqFy5NGVr3jx52tZkHQ+mKJhuI8Ksh1mGWJz3SeLCwvbJNFlYTFkuI+5cjvs5o1QLhyXhrrT/mzAOCgYUTq4/Tp0+qVYUiRzms2WiVaH6zGK8+ZpiWVELrx/AZt5Mc74EXYtA2zS2BXaM+HjPws+AtiDT6LAATQdaHmUqVBBrJJONxzmM6NnaOXFl6iS29dojMvnpH9L99+2fVvNH1UGS/SRkUXmC2yJlm9nOL5naFvZJBo/QbdWKdmNb0OIGtW5wapg4cEAPjQVaFmkbYsi3p7e1XP3un/fj8de+YYLb+6TLd/dJse/PpBi0jHEmu9rKiOLO+piuc7kaCvVZUnSnRZUumV5sLmYPpI6vTKlji0VGotwrXHLiysiXExbK7ONteQqGi/r62Wdw1R9lze/byP0y2qwqCz4JBj7c4ajLv95gIgO3RNqFmkZ2Zm6OjRo6onHfLFPH20+BE9/fKp3N55skPvXnpXvvb+G0m9RmzC0opyWpEIgfG1qtIRAqPZYLGtVt7SRDxsDv7CoHUSOm1/SYgtd4Qr1lKbFGO5BCoLVZA9ljiGY+sVuE43smZ1XR1bnkOwXVdjDVE2Wy37l2hMTLbhpFzkgPBj7c4aLGwuALJBV4TaEemenh7Vkx5Hjh2hr3bc10cTRdRMLk8NPXahbLQkAVZVOtKSSovOdVstSfAcdtpjxbbjEv/loHrUqf4vqctoWxJqjyWO4dh6Ba1ToiJbEX1yrejKkBoTYdfVWEOUzVYcG640rcFC5wIgG3RcqNsp0swnv/mE+r4n/s8VZ3bo0CHq6e1JFlF7ncIdpCDoNlrtpEwTozkRNTYL71fFNhWHVRTZDlRkK6NSx6jAIYZdV5TNVmwbrjStwdplMwZAZ+ioUPPdHXxLXLtEmvnw7Q+p92u9VPp5iUbeGqFT3zol+3ed9uALh/PsiKLnNO0UhgjpPAIWgbKkaog+38VR9Ml/eykPU7G+SCVdZAolWvT7AmHi2GO1IM6pkT8OYZd2XVE2W6H707QGSzIXAIbRUaF++PAhXblyhS5evNjS0uLJF0/ovZ++JyLPqryg+OCDB2pPApbGZE7TUtHs9rZFIjSLdx+1C9uSKq9ssLZlztQbrbZSHi5SvZH2cOD0R10E1b5KHcMeKykx7bqibLZ89y/R6oZKT8g507QGSzIXAGaBB16iHngBAIAug0fI8Qg5AMBw4PACAACG05Xb8wAAAMQHQg0AAIYDoQYAAMOBUAMAgOFAqAEAwHAg1AAAYDiZvT2Pa4bcu3dPbXWWoPrZeHgGANAOMhtRT09PS7FuByzEevODn4LUWzBcS0M9uqxaolrQqROzxsdukbWf2zAvAAeYzAr18ePHaWpqqm1irQvwhQsXXG336BXpVD2K/VpvIk0LMgCAJNM56rm5ubaKdXuwiwTV21qqFACwn8i0UG9ubrZNrLlgEzfmzp07sl27dk22/v5+Wl5ebrRd4611HWY7VW7uc6VMklhVaWPWKgXVqUgyX6TtlsB33gDLLACAL5m/64PF+tatW1KsT5w4oXqTcffuXdlYiLnxxUHvBcJSqeRqjCPoyRDCFmY75dhnyVKds0oAI8b4WlXxmKYd2CQNUlH2M0nmC7P9cgiYN8quCwDgIvNCzZH05cuXZWT9+PFj1ZscXYCvXr3qakH4CXo0ys4rynbKsc/S7bsSWVWJMfVFcnZJh3H7ZcL5wmy/FEHzxrHjAgA0yLRQs0hzJM0izZF12nCErrfUaLHzimMV1UeFvHopSdteql12VT7zxrbjAgAwmRbqdoh0tVqVjbl586arpYOTglAOL6FWUTkadCzHVQQr7bsSWVWJMblRcnxxpcO4/TLhfDFsvyLmjbLrAgDYZFaod3Z2Uhfp8+fPu5ofjpDrgh6N9vN/e5xqJT0vG2YVVada3o46t3VxT2QvJcZU2APSfv8srYtY1yHJfHFsvwLmjbLrAgC4yOyTiQMDA21Jd5iDiLylqOOeZAAOOpmNqPe3SAMAQJPM3/UBAAD7HXgmAgCA4SCiBgAAw4FQAwCA4UCoAQDAcCDUAABgOBBqAAAwHNz14eH96iQ9+40/V1tN/ud//0Q/+Pt/pQ/+s656AACgM0CoPXy8+Y809y/Nh6sdzvX9BQ389V+qLTf/9fkX9DelWbUVhF0WdDSnNuuLVBpSlfEAACCEfSXUp0+fpocPH6qtZLBQ+/HkT1/Sv/3qt/TpZ/+tepr83Q+KdGZgSm35wMXzVS3oRo0P0Vc5a5HVqPnRafCIOgBZYd8INZc85QL+V65cUT3JCIqowwgXajuSzs+bViAfQg1AVtgXFxNZpC3Lot7eXtVjEHp50iBcdlV6FToW07VEVlgLC2uiT1lftdhh8XssKjpV/ZwDwjYLACPJvFCzSM/MzNDRo0dVj4HUa8RmLv4I0dQssthyK28JcW7osRDTXVth5ShfmxR9XBaV5/faYd2nMfFig91buF8O9HufWARsswDoOpkWakeke3p6VI+h5PLkGFu1IO2qtIhbt9ySJLHCqtP6iuoPtdnSgG0WAMaSWaHOjEh7Hce7QlybLdhmAWAimRRqvruDLxwaL9KSLbLmbWcVl8jxXR+8reyqGkIu+seLETltJo4VFhPXZgu2WQAYSyaFmm/B47s7Ll682NKMZGlM5Z5VWoHbLNGKFGPbrqqxT+aJHcutMOJYYTFBNltLtLqhX0yEbRYApoIHXjwEPZkYRrwHXgAAIBkQagAAMJzM354HAAD7HQg1AAAYDoQaAAAMB0INAACGA6EGAADDgVADAIDhQKgBAMBwDrxQc80QAAAwmQMv1NPT0xkRa64hrR7tlk0vhboXeN605lJoj50361rvEVkrO+V1ApARDrxQHz9+nKamptoi1l9/7ut06Z8u0fivxunVf3+VvvvP31V7iA4fO0yvrL/S8jocVT+6UCBZlmO2Qt3XLY/Qs6Ba1KzCV6pRIQ2lllX84EYDDibIUQvm5uZSF+uTuZNUertET3ee0spPVugXo7+g+3ds+wApzGuv0OGew/Tj//hx43U8sbbZsuZpIzdII6ZFmGfzlNONEoTAds8XEoD9AYRasLm5mbpYf/uH36Y/fvxH+uU//JI+/e2n9IeP/0C/W/2d3LfzZIfeGXqHdv5vh372tz9rvH5n8B25f/fYUW2w/VZriVVn31qloDoZbxrEu+215eL9HksvNjfIjdKsX47CtSYnJaKvfY3WxPyutXIaZY1/OUStxen2O4YXv7GwHAPmAqFWsFjfunVLivWJEydUb3Ke7X+Wfn/39/TV0/bUvOqrjFOxvk6OkUur/VaQvZd73yQNCqGNg5/115KPpRf3lWh90C6X2hQ8Pq6P1ZfEWfsQDXHtbs1loTxcpI15i9wZD7+1cH/YMRwCxsJyDBgMhFrBkfTly5dlZP348WPVm5wjR4/IKNmP5KmPplUW14auDOkC5rXfCrD34n31RXLcvWQKxX4ZTqj1lxeulS0ET9XZlmIdagmmrZ0j8uKwioTLNJxvrrVB0Fri2I4FjYXlGDAYCLWARZojaRZpjqzT4LP7n9FzLz6nttwkT300LybakbPhiC+IycW6FiHHsQRbohuLeRkJ86+G/PqKJ5qOIq7tmAdYjgGDgVAL0hZp5v2336dTf3WKhq8P0zdf+Cadev4UvVB+Qe1VYq2EWX+dCmH2XrwvN0oTap9ModgvBfepVteMdcvDzX1xrb/KFVceeWQwR/Xa/caaIscLtlbWiQYnaGIwwFEmaC2Bx9Dy2xHnAcsxYCIHXqh3dnZSF2nm8/uf0/JPlumZbzxD35n5Dl2YviDvBOkMYfZeYl/F9nDkfbO0rqU+mv6Octwwx6cOQdZfHkuvpW3KO6mH7arM+w5JsQ2w+vKDxVQIbrG2qtbsJXgt0ccIGAvLMWAwB97hZWBgIHWRBgCANIEVFwAAGA5y1AAAYDgQagAAMBwINQAAGA6EGgAADAdCDQAAhgOhBgAAw4FQAwCA4WRWqNtR6B8AAEwks0KdHQstgXHWVFz7wlmP3YKe5o7FntayCzp1HAAMI7NCnRkLLRYXI62ptEp8svbHHr5AIteiFUXaFZ5xez5nALJJpnPUabuyMKlbaGXBmoprQFOeUDAOADPJtFBzMaW0xTp1C60sWFNxOVPdLSZojNa/Vqlox9fX4l0H7/PYdbnO0Z6/vNAc03yP/7jGObvWqX9O6n2VZsop2BDA73ML+CwB6BKZFmqGxdpsCy1Trak0J5ThVSo03GKCxnB/DAuvFksrPn+vXRejW4eJT2lMHY/fWxwXYhw0zsG9HrfdGCPOLy/Oi/dVNig3OiFGeAn43GDLBQwj80LNkbT5FlomWlMpARRrqjfmFwSN4f44Fl6xLa20c2QaF1w5io6BXGeA3ZhEnJ+z2KDUDmy5QEbItFCzSKftztIeCy2FEBPjrKnkmuz5myS0s2LkBb9dWlpxCqNxwbVE4iPqLknOAYA2kmmhTlukmdQttIy0pnLD0XFtdNZeZ9AY7g+08GplV5ZW+gVXGeXK3nDUOn3txkIpN/PcsOUCGSGzQp0ZCy3jrakYjtrF22b5ImXQGNEfaOGl4Wtp5bHr8rJ0gxZplKo8bjZPtUZEHTbOXqe/3VhcYMsFskFmHV5godVlOF1RzdN8FtzQAcg4mY2oIdLdpTwx6r4/HADQNuCZCGJi38o22sgf8wVHRNMAdAIINQAAGE7m76MGAID9DoQaAACMhuj/AYU+zh1rOPY7AAAAAElFTkSuQmCC;" vertex="1" parent="1">
          <mxGeometry x="1400" y="238" width="320" height="117.57" as="geometry" />
        </mxCell>
        <mxCell id="rWH31zUBPXZAnD3ZXqds-54" value="" style="shape=image;verticalLabelPosition=bottom;labelBackgroundColor=default;verticalAlign=top;aspect=fixed;imageAspect=0;image=data:image/png,iVBORw0KGgoAAAANSUhEUgAAAWkAAAChCAYAAAAFt04jAAAAAXNSR0IArs4c6QAAAARnQU1BAACxjwv8YQUAAAAJcEhZcwAADsMAAA7DAcdvqGQAABp5SURBVHhe7d1/eBRngQfwbwih5Zdt5LH8OGS7cLHYNoWeWtFDiWtM4SlQu1xsFT0vXmNo6UFjq1e3TykEbzn1qQEUgcZrPOvV0mh4JN5DhTwxPOURfar2ehGf2BxdVoEKtYW2YIU04eZ9593d2c3M7OxmNsxsvp/nmXZnJjub4Y9v3rzZfb8lgUDgIoiIyJPGqP8TEZEHMaSJiDysqKY7nnrqKUydOlXtOXPy5El84hOfUHtERN5SVCF94MABhMNhtedMe3s7Fi1apPaIiLyF0x3Z1Lagr68vuXVGKtWJLCoj6OzrhNMvz6a2RXv9llq1l6tatDj4XsRrpL+EyfPEv4ft9+H8tYZeRzw39W/dl3Ydca5F+y/R6OKJkJ45c6Z6NDwvv/yyHBnnsonnWBKBFA2iNVyBigqxhdEVancW1D1RVFdUI9qj9odDC/yGYDe6gw2uhb6Ztn3dqKoxxGBlBYIIILQs9aKVFUHEY71qL0+29xNP/nuHW4G65ggKeMtEnnfJQ/q6667Dli1b1N7w7Nq1C6FQCFVVVXITjxcvXozly5dbbsePH1fPzlSJSEMVuiPGoO1BtFEkx5oRHdFVLgsBXVuxtQtpgem63hjiwYpkKIrXjbVq9xucmzgC+a10DO8nj9P76YnuRHcghELeMpHXXdKQFgEdjUYxYcIEdWR49h8+g3d9/gf4u68clts1n38Clwf/HmfPnsXAwID6KocqlyEU6Ma+NrWf0NOBrngQFTI41K/2kdSUSGqUnfFrv5z+SP0qn/pN3+4aQioYezpkqhlGlvpzW1o6teclpgK0Hy6dZq+jmZv6Hkx/GxD3hkQo6q8b6+hDrKpGXXsugoEY+hIZnXZPGVMRlq9ldz9ElOmShbQI6E2bNmHcuHHqyPDMuuUBBG7dgHFvewdOP/8TuZW97SrMurUJM2q+gDfffBMXL+b4N9J4DOa/2AdSg0vtcV1wnz4dEulGwHSUrYVpex1iETVtov0eH4wa51ttriF+WGjRKQevaSGaoH0vsUbtufVokwHdjlBXWL+WttUnf8hor9EANNp+nz3oiyXuTQtk+bpt2NetfijV1qCqe5/2OoK4J+07S0wFRYCG5A0ZXkufszD8sMp2PymVkQZUxdXXEo1SlySkEwFdVlamjgzPldd+DG+/8Va8+IN/wdiJ5Xip+ztyE4/FsSnvCWNyxSL09/erZzgUCGpRZSaO1LRsHK1bVRK27UO3Fm36KNtAzu0aRuU9UezsNga99TX0qYEOLT6FHojBZ90aY7zGU9MPavS/03QiXHuNxqh+HavvU5OclxaBHOuTX98b06cl0uaj1Xx1XbsaSUertH+uxA0ZXivjXrPfT+qa7XUxRKrVdYhGqREPabcDWpi+qB7jrpiOd6/+EUrHX4nKL+6Tm3gsjolz06rqceHCBfUMB+S0RhWMf0eTZBAafuUvqFqsqQtoo952NaUggisALUVNRsEuUfPStVogd6ufKnJaIrjMZD66GxE1YpdbathuUAntUoqT+0n94VD/7YBodBvRkBbv4mhqanI1oIVJs65Hz9ercbzzWzj188fxPxtvktvLv/g+TnR+U56bNPMGDA4Oqmc40YPoTm1UGTXOterTFtqwN7fw6OlDDIbAF+9uqDKZ784kRrPxVoSNQVgRRqvZDw9B/WBJTTs4oebEE0+RUxB1iGq3mfxtQXz/VXWoM/5wUvdk/lqGd4QY5/ZzvR8iGtmQPnbsGFasWIElS5YM2dxQgosoGVOi9oQSlKhd41HH2urlXGtUjfr6+qLQho6ozvl9dW2ol/PQ6jpyLjf7KLG2pgrx5NRAgpgiiKe/VS5J+8FSHUHMMFK1fUuzKf362gsb5oLFvLT2v+R8tKDfEwyvlXrfcxyxYLO6VzEXr99r7vdDREXxicNr79qFSbPfr/bMvX7kkBYin8akSZPUEZ0Y2a9du1btERF5S1GEdPm11QiEN+LI9+/Buz73H/jdt/S1OK695ym80Hon5qz8Jo7+8EF8rHIKFi5cKM8lnD59GuvXr1d7RETeUjRrd7xzyRfluzgu9v8Vb8Se1e6sBJOvfi9Kyi7Hn5/9IY799BH1lURE/lFUCyyVX/tRTPtwPSYFbpD7b8Sfx5+6W3Cmt0vuExH5TVGFNBFRsblknzgkIqLsGNJERB7GkCYi8jCGNBGRh/k2pMUaIERExc63Ib1x48YRCeqS0rH42xV3IvRYF5b+pBdVj/4U76z5B3U2F+nrPPd1FkPjSMa6H0ZptWMu1V7J9astXo+oSPk2pMePH48NGzYULKhLx12O8rnzMP/eTZj6wRr0bHsYP/v8YvT911ZU3H43rvlMDh8ll+HSjuBOw8JCjcAyzyxXYRO2+RD3K5c5UfcajqHCjXt1s5KMyCd8PSe9efPmAgR1CSruuBsfe+IXmP+Fr+LKa27Ab77aiNdjv8dbf/0L/tzzLH696R7MvvWfcPmUqeo5drQRdLO+4H/aSp5a4ESzrbDkV3ODCBgLE4r5XokKzNchffDgQdeDOrD4dkx9fwgH76vFzx/4R237DAbfSi8L+Ourf8Yrh3+FuZ/9AiZffY06asG4VKeVtBoqp9Vaduc0adc0Tjdk1muJ60RRlVhsP/HiVs83HO/UfvCYEqUCgTo0mw3NTa+r34teA9aJTu37S1u9T0ydyOmhzBG/RVWY6WtYfC2Rx/k6pAUR1Lt375ZBPXHiRHU0f7M//ln89tEo+t94TR3RPfibzrT/v/TM07g4OIgP/vv3MGPhYnnMkmUNl6AFT77VWpbnxDXNqq1EUGXWa7WhXvuC7sRi+3K4b/X89O+1ESEt3M2Ia+rN6umBaHVdIVEDVo1qsY53TeouxRKn3TszG1rM7kUct3iN2jWoi0UyvpbI+3wf0mIEfdttt8kR9blz59TR/F329qtw/uWX1J61U795Br3fa5ZTIe/+539VRy1Y1nBphlGtZXnOqtrKtl7LwPL52vF4KxIvKdu89YcmxNrWWiCqdbRlUGep3Eq2voh7Sba11KImmHrNJKt7sXoN0ThTFTUv4CXyMF+HtAhoMYIWAS1G1G44+8f/Q/m756s9XeYoOvF/4ezxOMoml6s9E1Y1XAXnpNrKznCfr2g/dBpbjYv6O7luG7a2BuUIWJTRBocUBWRj8hryj45i9K+XEXC6g/zC1yHtdkALv3vsa7h+1UN4x40fRKmhyfzrN300uSWUjZ+Id33qHpx61no8KUeUsoYrIxgqI4iI/XyrtexYVVs5rdeyfL52PFCHRG+sbPPWH6ar1e4t+dRKLAsF9AJb28qtdLJXMbQGa0Ix85G/1b1keY2eaDXC2g+NoFkLL5EH+TakBwYGXA9o4dXDv8avNq3B1Us/hdB3OjHw5jn5h8MxY8fK82PKxmKgv18eX/Ttn2Ds5RPk2/NsiRouY32W2JqBDhnE+VVr2bOqtrKq1xL1WGqKQB6wer52PKL/wBHHmtFlPt3R1odgYrqhr13OBeuVY1bXNSG7FqtQFTNWdhlZ34vpaxjety1ayLNO+RB5hG+XKhUNK24HtJW6Jx/D8eeex6927cZ7bv84/mbeDfjup+5UZ4mICofrSTtwxYxpCD/ybwh+4H2IHXoW7fc9iNdO/EmdJSIqHIZ0DpqO/i/WXa23vhARjQTfvwWPiKiYcSRNRORhHEkTEXkYQ5qIyMMY0kREHsaQJiLyMN/+4VCs23H48GG1N7K2bNmiHqVbuzaHIgAiIgd8O5IuZH2WCGHjZmbdunVpm7VatCQ+nqw2b6zEJr6vTverqORazgW4LtEo5duQLnR9ljF8Fy9enLblTq3VLFdlU+tNWK1Z4XdytTlWXBG5xddz0m63sowMfQGgeHK9ZCIia74OabHAUqGCuqmpSW7C008/Lbcvf/nLcps/fz727NmT3HKWuca0TaVUpNZYV2WYQ7B7joNKrSHVV/lcz7SSKmMaxfS6rLIicsr37+4QQe1WfdaBAwfkJkJYbOIPgZl/DAyHw2mbkAjz/GihZlMpVdcANIrjcvnNZhV+WZ5jWallVX2Vz/Ws6quMLK7LKisix3wf0mIE7WZ9ljF8V65cmbZZMQvz7OIQ6+Bnq5RqbVTdfsZarWzPsarUsqq+yut6Dqq4WGVFNGy+DmkR0IVoZ0kQI3Pj5hoZcDH0JfPNSaVUJSqC6qHkUr1VktvXS2CVFdFw+DqkCxHQ7e3tchMeffTRtM0diWkH1b5iW/cUQGiZOq5GrrJWK4caqiS76qu8ruegiotVVkTD5tuQLkR91qJFi9I2M4kQN4Z5doZf+fsaEAsb52HtKqXiiAX10WafMdhtn2NFe45l9VU+17OqrzKyuC6rrIgcY32WZ2kjbhnofM8x0Wjm25F0cQc0EZHO9+/uICIqZmxmISLyMI6kiYg8jCFNRORhDGkiIg9jSBMReRhDmojIw1ifleFQeyOmX/U2tZfylzcv4HNfegK/eC6ujhARFZ5vQ1p8JPuhhx5yPaiPHnwYmx9LfWA64b2Vs7DwfbPVXrqXTr2OD4Sb1V4m8cnBaGqdDLGqnFc+RSjWepZLifJTjURe5duQ3rt3r1ya9OGHH3Y1qEVImzl/4S3s6fwtjv/pjDqScu/nqnD1wg1qL1P6x7srI51oD3UhXK2WIB1R/Kg5kd/4ek66UK0sYiSduW3//kHTgM6VXMc5EEJicTsiIju+DmmxfofbQR35ege2fe8ZuXV0Hsbp195UZwpBjGw70dLSiWS1VFrdlHFlOf1r86nT0q8vjotpF7Uin7ywumbiMqy6IvIc37+7QwS1W/VZwo87f4/v/ufj2NPx31iy/A786Kc9rga1XMc53oWO5HRDAMFYIyoqxDKkWmgaKq5EZVYwaghREbB51Gnp1xfnIuiWc+La4yGL+ltcg1VXRJeU70PazfqsCRMmyGuIP0j29/ejtrYWn/70Z/HzX8fUV+QrtZ60WD85kjYfHUdXIrFl3ZRa2F8wVmZJ+dVpJa9vh1VXRJ7k65B2uz5r+/btmDNnDl588UVZSCvcfPPN+ONLp+Xj/KnRqxyNJhbuH65C1Gmx6orIa3wd0m7XZ5WXl6O5uRn33Xcfli9fLo+JBpiSkhH6Z1J1UzWJIKyMoKHKMLLWRrqu1WllYtUVkSf5NqQLUZ+1f/9+XHHFFcmAFgYHBzF+wkT0HjmljhSSXjcVVBVXfXKO2DjyHm6dVhv2dRv/cGjEqisiL2J9lsHYsWPR0NAgpzjEDwExLz116lTEYjF86UtfxLfXL8V7b5ilvjrF/sMsbhHvxOB7nIlGGy76b0OMqsVoffbs2fjDH/6Ae++9F6+88oo6O9IY0kSjke/f3VFIr732mgxmMZKeNWsWHnnkEXWGiGhkcCTtgBhRb9myBa+//jrWrFmjjhIRFR5DmojIwzjdQUTkYQxpIiIPY0gTEXkYQ5qIyMP4h8MMrM8iIi9hSGdwvz4rQazL3I66gNqNt16idhbB+MEYfkiGyMuKKqRnzpyJY8eOqb382NVn/Xj/8zhx8g11JMW+PksjuwT1daKTi9NpxyJzo4imFubI0XDClSFN5BdFMyctli0VHzhxQ2Z1lthEfZZZQGenjaCbMwJa6BlOQBPRaFEUIS0COhqNykX7Pce4pKiVtNoqk8qsSGolOn3xfXHcvArLWRWXjbTnmNVwiWOs1CIaKb4PaRHQmzZtwrhx49QRD4rH0KseDqUFYLbKrOA+/VykG4G6Ndoz2lBvWoWVSxWXGfGcbDVc2rVZqUU0Ynwd0omALisrU0c8KhBEsgErk5PKrK3qZNs+7SuDsF53P5cqLhNOa7hYqUU0Ynwb0r4J6J4OdMUNbSue56CGi5VaRCPGlyEt3sXR1NTk/YCWehDd2Y2qaEaYiXd3iP2slVl5yue6OdZwsVKLqPB8GdLibXYrVqzAkiVLhmye1Fav5oRTf2zrawY6ZGBmq8yyYleFJeRzXYc1XKzUIhox/DBLBqtPHNoZmfosIhqNGNJERB7m+7fgEREVM4Y0EZGHMaSJiDyMIU1E5GEMaSIiD2NIExF5GEOaiMjDRn1IizVAiIi8atSH9MaNG30S1GJNZ/VRbbllW3bUKX2t6JFZ0C59Heq+zoh25FIx3vdI/hsQ5WbUh/T48eOxYcOGggT1lDlTsPRrS9GwvwF3/ewuLP/GcnUGKL2sFKu6Vg15bE+tH11RAbnERvOlDLkEhwEnywTaEdxpWGGvEVhmtuyIYwxXKn6ck9Zs3rzZ9aAuD5QjvD2MwYFBdNzfgV11u9D7tL70vwzlzlUoLSvF6mdWJx87C2pdT3QnugMhLPNFQLFCjChfDGnNwYMHXQ/qBXcuwJmjZ7D3wb048fwJvHr0Vbyw7wV5buD8AHZU78BA/wC2fWhb8vGO0A55Pnf6iNJxdZbhXKcWnCmZI9PM/czaLHE+s8bLpFqrKCvEMplVipkdI8oNQ1oRQb17924Z1BMnTlRH8zd9/nQcOXAEFwcLs35VZaQBVfEuJMpSnFdnpZ9rREgLOidE4LQj1BVOTlfUt5nUeFlVaxVbhZg6ojP7t9EOs2aMXMCQVsQI+rbbbpMj6nPnzqmj+Rs7bqwcHZvJf7ojVW0l1nGOVEeRWsnZYXWWOBdvRaKRS06b6A/tqdFw1rWjraq1iq1CzMjq34Y1Y+QChrRGBLQYQYuAFiNqN5zsPYk5H56j9tLlP92R+sPh0NGcR5hVaxVjhZgTZv8WRDliSGvcDmjh0PZDmHb9NNSsr8GMeTMw7bppmFc7T51VQa1C2fjYFXbVWeJcoA5r1Dk5baI/1PQiFjeMNGtrUudU0OZXrVWMFWK1+ly5vD37fxvWjNFwjPqQHhgYcD2ghVO9p7Dn/j2YfNVk3LLpFizeuFi+42Nk2FVnaeciemCKc83oMkx3pMJUPq9GjCkTtHPVEcQM1Vp64GbUeFlVaxVbhVgai38b1oyRC0Z9M8vChQtdD2giIrewPouIyMM4J01E5GEMaSIiD2NIExF5GEOaiMjDGNJERB7GkCYi8jC+Bc/E+vXrUV5u/cGT8+fPo6VF/6ACEVEh+TakxXobhw8fVnvu2rJlC9atW6f2hmpqakJ/fz927tzJoCaigvLtdMelrr0qKytDQ0ODXIDHt+S6ydmW7hymkXgNoiLm25AuZO2VUyKo6+vr1Z4XGRYBkjL25Spt1SjokhIj8RpERczXfzh0u03FKTEVktguu+wydZSIyH2+DmmxMFKhg/ruu+/GqlWpxfg/+clP4oEHHlB7ztS2qNXUxJZcUU2NamtTVU2pxeHtzllUMslphcRxUe8krmGsl2rJ2JfLtBlG1urxkJoqxXD9zkjE8LxsFVHG13DyvRuvkeV7IhoFfP8WPBHUbtZeZfrIRz6CJ554Qu0Bu3btwk033ZTTCLqtPrGAfATdVQ2G6QctMBuARnFOLo/ZnP2caSWTFmZDKp96M+ql6i3qpoy01xxSUyWI61tUbuVSEWX5vedanUU0evg+pMUI2s3aKyMRxCUlJWnXHRwcxNmzZzF58mR1xIHkusJiJGukBWajqsAaUu1kcc6sksm28ikX2mua1VTZVW7lUhFl+b27VZ1FVHx8HdIioAvRqpJw++2347nnnpPFAEa//OUvsXLlSrWXhfhVPgpVxxRGa1wdH6ISFUH1cAjDOfmHOLNKJpcqn3Jl+f2YyOVriUjydUgXMqCFJ598EjfeeCNKS0vVEd2CBQvw+OOPq70s5mpj3ERTtiwslUeVAELL1LBQlZmmqp3szom8M1QyOa58ypNt5ZYuvSLKOA89lNn3nlPFFdEo4tuQLlTtldGFCxdw8eLFtLnuMWPGyH3HUyttW9GKOrSLaYjmIGJpI+k4YkF9VNkn52WN1U4W50wrmawqnzLrpbLVTVmxqdzKpSLK5nvPvTqLaHTw7ScOC1l7ZfzE4erVq/HWW2/JTxcKd9xxB2bPno1oNCr3xacP165dKx/nRow2GxALm72H2O6cB4gpnPYgdjpqLBf3UoN9Xm03J/I4346kCzmCNtq2bVsyoAUxBZII6NGqdk1dagonG9E47vRriWgILrBkItsCS0anT5+WX587P42kxfub21GXnE8Xf6TMMjKWo20tzMW7M7z6GwGRDzCkiYg8zPfvkyYiKmYMaSIiD2NIExF5GEOaiMjDGNJERB7m25C+lIv9ExGNFN+G9KWuz3JOvOdZfeRZbtZrWhARZfJtSBeyPmvKnClY+rWlaNjfgLt+dheWf2O5OgOUXlaKVV16CYDxsT3xgQ59dTp9aegImNNE5ISv56QL0cpSHihHeHsYgwOD6Li/A7vqdqH3af1DzTKUO1ehtKwUq59ZnXzsLKh1ci3mQAiJBe6IiOz4OqTF+h1uB/WCOxfgzNEz2PvgXpx4/gRePfoqXtj3gjw3cH4AO6p3YKB/ANs+tC35eEdohzyfOzEV0omWlk7olVcayyopjeFceoXV0Os4rewSpyoj4nmJ61r99DCrvspWnUVEw+XrkBZEULtZnzV9/nQcOXAEFwcL82l5uRZzvAsdybUsAgjGGlEh18LQQtSySir9XFqFlWS8DpxVdqnlR5u1q8mvtayn0tfuCHWF1TVV9VUu1VlElBffh7QYQbtZnzV23Fg5OjaT/3RHqtpKrKMcqVa1WFIcXYnEtquSsquwkgzXEZxUdsk6KsPzrOqpVOnAkLWic6nOIqK8+DqkRUC73c5ysvck5nx4jtpLl/90R+oPh4mRbkGJaRFHlV3DxDosooLzdUi7HdDCoe2HMO36aahZX4MZ82Zg2nXTMK92njqrglqFsvGxK+yqpBxUWCXZVnY5peavxSC5pwNdcet6rvTqLCJyk29DulD1Wad6T2HP/Xsw+arJuGXTLVi8cbF8x8fIsKuSsqmwymRb2ZWPHkSrI4gZ6rnkqDmX6iwiygvrs/xKLqrvtMKKiPzKtyPpUR3QmpwqrIjIt9jM4ht5VFgRke8xpImIPMz375MmIipmDGkiIg9jSBMReRhDmojIwxjSREQexpAmIvIwhjQRkYcxpImIPIwhTUTkYQxpIiLPAv4fVBJkIPTpCx4AAAAASUVORK5CYII=;" vertex="1" parent="1">
          <mxGeometry x="1400" y="438.69" width="320" height="142.71" as="geometry" />
        </mxCell>
        <mxCell id="rWH31zUBPXZAnD3ZXqds-55" value="" style="shape=image;verticalLabelPosition=bottom;labelBackgroundColor=default;verticalAlign=top;aspect=fixed;imageAspect=0;image=data:image/png,iVBORw0KGgoAAAANSUhEUgAAAW4AAABQCAYAAAA5pZ/mAAAAAXNSR0IArs4c6QAAAARnQU1BAACxjwv8YQUAAAAJcEhZcwAADsMAAA7DAcdvqGQAAA31SURBVHhe7d1vaBvnHQfwX5bYIQ4dZIWSljBVK4JApiUvOujAaYUwJqFxaRQEgxaGyozbFdwZyqAadHEN57EXs2toE9dselMGRaAwu9DgGk3pDP3DyiiiYGqKoibtaF+0pSMb6apkz++5506P5LvTST7FOuX7gWt0d7q7x4J+9ejR6fntOn78+M1PPvmEAAAgHL6n/gUAgJBAcAMAhAyCGwAgZBDcAAAh03dfTp49e5YOHDig1vz56quv5HEAAGHQd8H94osv0vPPP6/W/HnhhRfomWeeUWsu0ku0aSTUClE1l6IRo6zWPMSztFZIUjE1Qn6e3kp6aZMMylJsPK+2tCNNS5sTVGmjLdu7XjPt+uKcgb0uAb/GAL2up4ZKDh06pB71GBnaUcqlYhSL8ZKiYrJAa9m4eoKHskEjsYACRQTURLREpegE+bn0tnXzett6XfgNYK3epiBfY4AQ6JngPnLkiOwtB2X3wG66f/x+enTpUTr18im698F75fbHX3+84d/W4pSdSFApqwdDmYypHFFmUkTIrRMfSxIVF2ihSJQc635y3+rrAYA/PRHcHNqGYdDQ0JDasn3HfnGM9t6xl5afWqbXf/U6XXn3ypbQ9hXe8TFKRkq02jxSUF6hYjVKMZlnqgeYFT3zzU251HvjTb1D/livnsPLkp38XudgcZI5ulIWl5ZJKrZYzGOXltbEcUvqzUS84aw5XUc4XG+D+6eG1tfLpp3O47VP1/S6uLSXh2qsbZtyIx9nUIIilCno24J4jQHCYceDm0N7dnaWBgcH1ZZgRBNRej/3Pt347oZcr12v0aunXpWPm/9tqVqhDfWwUYSih9VDDpLoqjmUki1RxLE3LoKjkKFKVg25pHIUNfTw8jgHv4FQkUSOmm8aYq2xEyzaUpkSx45TXoZggZLFlHkusdSHqMU1JoimPNsp+LiefR7xd1BmrvHvcN3nxL29+XFzPRbLUinBQzZ5GufHVDWHrraMvW/jNQYIiR0Nbiu0BwYG1Jbg7Nm7h27Wbqo1U0c9bhaJkp3PDapUsRNdBMmClTarIlis3rgmHhNbtd572aDFkh7+7ucwhy1WyBytKRN3gjOTeuRUZe9YUp8SFh0HfcU1pgzzPG7tFPxczz6P09/hus+BV3v5+wXZO+Zetg/beI0BwmLHgruboc0+/cenFP+5+D9S/IW7du2igaGBznrcckgkQaPN3TIZNhXadMia4KVpMhMRvcOC/RG/INYpMdql3mK714tTLKoebuG1rwUe8jCIsrLHnaJcVW0HuM3tSHDz3SN8C163Qpu9d+49GvrBEKX+lKKxl8fo4E8Oyu1tD5OIfqOxWKKEYY0dM/PjuOi6kdWx86W8SRXRb7TfBPiujYTD+Hmz9CglqjlKyQCzFg4yhzcUpt5sJtoav9XGiX1dL1L/wlL1mOt/h9c+B27tPRyliDVMJc8jt3rr9DUGCJEdCe6rV6/SmTNn6OTJk1uWoFz/5jq99fu3RE+xIL+gvPLOFbWnA/lximWJDNX75I/tohvo7z7uBnkal2Ou6jzy3mMek/aWHk1Q1R62sPDwRVV0gh2Tm4yRLFW0HnPDl5Mt+LtelSrROfV38Jiy/nd47XPi0t78AuUoQwXeNhelit3jztNqKaJ9Oanr7DUGCBP8AEfw9QMc0HDv3O2HPF77ACAI+Mm7gJ+8twvBDbCTUEgBOoDgBthJCG4AgJDZ0fu4AQCgfQhuAICQQXADAIQMghsAIGQQ3AAAIRP6u0p4zpMPP/xQrd1abvOH48c8ANBNoe9xz8zMyPDuBg5mfXHCv9LUF3d8f7P6GbZaemMuaG6XPu1pQOSc2F04LwCEP7j37dtH09PTXQtvPZBPnDjRsLSvqpU/U3NztDOJSJignBhA1/TFGPf8/HxXw7s7zMmQql2bmhUA+lVfBPf6+nrXwpsnoOKFXbx4US7PPfecXI4dO0bLy8v20rbmub4bSm5Z08iqoQy3UmBex7iV6NKOWcvG1Ealk/M5lh1rGoJxPK9HeTUAcNU3d5VweF+4cEGG9/79+9XWzly6dEkuHMy88JeNzV84plKphoVZAd8ZEXRyClI1lJIlbX5qt1JgLY5xLNHFx9RLe01RUqss08n5vMqkWVzOm56kTCXrcRwAOOmb4Oae9unTp2XP+9q1a2pr5/RAfuyxxxoWN04B35oqfyZLbqk5prkHaiQoYtfbcikF1uoYpxJdfEw1R9ausrEo9ikdnc+j7JjF7bwbFaomjB75khYgPPoiuDm0uafNoc0976BxD15fArOl/FlJlelSi2MXtLkUmJ9j2hH0+SwO55VfYHKv3yy6gKESAH/6Iri7EdqFQkEu7JVXXmlYgmENWajqLKrk1pbyXZJLKTDPY1zwMZEMWXV/49mJ+lBJR+fzUSatxXnLxgilclWKomovgC+hD+5arRZ4aD/00EMNixMr2PWAb00bLpBzVuvjuuZdJuIJar9Y7C6oWykwr2PciGOyXEPTfP4cFUVf2NLJ+fyUSXM5r13BnYsRV7yHWwDAFvpfTg4PD3dleKR3iJ45ChMAgCb0Pe7+Dm0AgK365q4SAIDbBUqXAQCEDHrcAAAhg+AGAAgZBDcAQMgguAEAQgbBDQAQMrirxMXbhSm6+67vq7W6//z3W3riN3+hd/5ZVVsAAG4tBLeLy+u/o/k/138Mbrk//kMa/umP1Fqjf33xDf0sNafW3KWXNsmgbNMETj32C0meP1tOxYpfbAL0mr4M7kOHDtHVq1fVWmc4uJ1c//Y7+uubH9Bnn/9bban79RMJund4Wq254ECci1KFxDKlh2K7wR100OOn9QBh0Xdj3DzFq1th33Zxj7t5OffqumNo+xUfSxIVF2ihSPUZ/wAA2tBXwc2hbRgGDQ0NqS29Jk4yt1fKVF6RyS22NDmslxWz9jaX+OLesUEJa7ZBOR0fb1ujpaU18RyzNBgPyVjHNM7y5/989Sbopcf0GQDV8xzLmqE0GUA39E1wc2jPzs7S4OCg2tKDeC5tKpLIbXMea7HW2OkWwelUomxLia88jceyVOKqNFwOzB4rj1C0MiWeY077mh9XRQv4uYkJFcJOpcbczmcR4ayVO+O2RQ0t1LndTmXNUJoMoCv6Irit0B4YGFBbepM5TLJiliAT/+VOd8aqaCC5lCjzXeKrKnvzNnu+a+5NK35KjTWTpcdU8Qamt01yKWuG0mQAXRH64A5LaHOvdTITEb3RejGBglinxKjZO91CK1HWSYkvHtowSJULS1FuJ+5eRGkygK4IdXDz3SNcWb33Q1tIj1KimqOUGjYwFw7UBI3ageZSokxpq8TX4ShFqhXiOsTmueRWcRIfpcaaqdJjdjvFm8JEorFtXlCaDCBYoQ5uvuXvzJkzdPLkyS1Lr0mPJqhqD5NYeLikKjrdViK6lChzLPGVp9WS/mVik/wC5ShDBT6Obz+0e9xupca8zmeWHouqcmeb8v5uq3yaB5QmA+gK/ADHhdsvJ734/QEOAMB2ILgBAEKmb24HBAC4XSC4AQBCBsENABAyCG4AgJBBcAMAhAyCGwAgZBDcAAAhg+BWeM4TAIAwQHArMzMzIQlvnv/anG/bfKx+hi4XfarV7WiaizsI2s/frfnCt03OER5wOwFCAMGt7Nu3j6anp7sS3nfedyed+sMpmnhzgp7621P0yB8fUXuIdu/dTU8Wn9zy2D81h3YsRuYU3lna+RxrCv6GmQrFkqpQLIjklrMPotQa3H4Q3Jr5+fnAw/tA5AClzqXoRu0GrTy7Qq9lXqONi3LOPjOo156k3QO76em/P20/bj+8TWVjkUqR5uIMPUCfqZCJwDV8ziwIAFshuDXr6+uBh/cDv3yAvr78Nb3x2zfosw8+oy8vf0kfrX4k99Wu1+j8yHmq/a9GLx1/yX58Pnle7t8es9erlzJzLz8maPvWsjG1kTUPmzSv+yiDxsUVIhmacxrTaGiTPgRktX2N1sT5G9rKwy5r/MmiVVuszU7XaOZ0LEqvQW9CcDfh8L5w4YIM7/3796utnbv72N308aWP6eaNm2pL98SzE5SoqtJokl7KTISca/mxxn1TlKxXzPHktwwab0tRMWlOJVsPQL4uTxGr2pQlbZ5wq+0jNLJY0qa+FUeNJqi0qCoF2Zzawtu9rmFxORal16BHIbibcE/79OnTsud97do1tbVzewb3yF60k2CGSlTPVgQiz3mdHdEDTStl5lV+jPdVc2RVH5NDLuZDb22VQeN5wEUAqnm9ZXjLNtXbv2mIfrpdD01rO/fY7UpBaRqN1ttqc2uL5zUUt2NReg16FIJbw6HNPW0Obe55B+Hzjc/pvgfvU2uNghkqqX85aRUJ7mniDWMqpxePKNW/tOTFsVubp4VcVPaU+VNFdEtBilb8XMMBSq9Bj0Jwa4IObfb2ubfp4I8P0ujZUbrn6D108MhBOpo+qvaq8FZBrT8OnFf5Md4XyZBVt1gOuZgPhQ2qVLXCwFyCTT30XQYtnW0Yhx5LRqha2bDb5KeMWpkrKycnaTLpUknHrS2u19DGx1v8HSi9Br0Gwa3UarXAQ5t9sfEFLT+7THfcdQc9PPswnZg5Ie80ufW8yo+JfdkSJdS+OSpqQyVlMniM2TpulPuvFp9l0PKbFLWGKjYLctx4RIav2SbxRPt4xzJsjMNVBHCisqra3My9La2v4XIsSq9Bj0IFHGV4eDjw0AYA6Ab0uBWENgCEBYIbACBkENwAACGD4AYACBkENwBAyCC4AQBCBsENABAqRP8HInxnjH40sjAAAAAASUVORK5CYII=;" vertex="1" parent="1">
          <mxGeometry x="1400" y="121.31" width="360" height="78.69" as="geometry" />
        </mxCell>
        <mxCell id="rWH31zUBPXZAnD3ZXqds-58" value="" style="rounded=0;whiteSpace=wrap;html=1;fillColor=none;strokeColor=#FFFFFF;" vertex="1" parent="1">
          <mxGeometry x="1060" y="335.68" width="110" height="17" as="geometry" />
        </mxCell>
        <mxCell id="rWH31zUBPXZAnD3ZXqds-59" value="" style="rounded=0;whiteSpace=wrap;html=1;fillColor=none;strokeColor=#FFFFFF;" vertex="1" parent="1">
          <mxGeometry x="1061" y="140" width="150" height="17" as="geometry" />
        </mxCell>
        <mxCell id="rWH31zUBPXZAnD3ZXqds-60" value="" style="shape=image;verticalLabelPosition=bottom;labelBackgroundColor=default;verticalAlign=top;aspect=fixed;imageAspect=0;image=data:image/png,iVBORw0KGgoAAAANSUhEUgAAAWkAAABzCAYAAABaQfMHAAAAAXNSR0IArs4c6QAAAARnQU1BAACxjwv8YQUAAAAJcEhZcwAADsMAAA7DAcdvqGQAABAoSURBVHhe7d1/iBzlGQfwJ00uIRcspIJECV23chBIt+YPCxauuizHkWBOzIaFgkJZ6bFaIfZACk7BJgYmpX/0YkCT82j3HynIwobmBMO5bDf2QCuVIotwuMi6JFr0DxVLWmK92Pd5552dmd3Z2R83e3ln9/uB8XZndmZ3An7vvWdm32dbLBb7lgAAQEvfUT8BAEBDCGkAAI0hpAEANDYSNemTJ0/S3r171bPefPHFF3I/AACdjURIv/DCC/Tcc8+pZ715/vnn6emnn1bP/CWMEhWzMfWMqJFP04xZVc8CZJapZiZ7f32QhEGlYpb4U1SMKZovWKv7Yh+jYtBU4AEytFwzKame2UI5j16F+W8HMAJueblj//796pFeMss1GdAcjFNTYjEqFMsWqbacUa/YGom5lAxoFp9KqEdD1shTms9ZLOl845acNwBYbmlIHzx4UI6Cw7J9YjvdN38fPbL8CB196Sjd/cDdcv1jrz3m+dmVGHnmeDgpRp7NgWdhnkROEyVzZHTLSvFaDrjNjwQTNJcSEd2oUKVBFEvNiTVbq2oukMjp3s47DKH92wGMhlsW0hzQpmnS5OSkWrN5h35+iHbdtosuPXmJXvvla3T171fbArqXoLZHr5VVb2lgvc5pFaPUnEgr/rO8VqNaqUQl/ikfG1aIqm0lO9Xs16qlbb3fMVhijmRGl8/RubJMaeK3trYZzj5yWSY51m1Z33wvFs/5v0+gKq3we4vzjh+w1nQ8H/u93edTK9Hycsl5vT0ib/38fv923f59AMbALQlpDugzZ87Qzp071ZpwxJNxejf/Lt385qZ8vnFjg145+op83PpzENVaXT1yK9OCKgtQLEsnWqsCHDSmGJZzPdhVPvBWD/yPYf2yaFB5pareW/2C8GhQPs2liXkqcPBx7dlVrvCOSLt81i5kuaXf8xGfOUlL4rVp74i8atKM+oxcSuLPs+j+heKxuc8NEGVbHtJ2QE9MTKg14dmxawd9u+G9DjrISLqTxFRc/qzXXMFXr4mxpqO1bpyZtS7D2aPy6kpZxKrIqllX0vgeQ5U6RMhli2IEycHIz1pLHo0yiQyX7L8AGuUVz/Ga1PvYv2z6rXHzeQ9yPo36uvhvldp+x9mjaXVuHXX5NwYYZVsa0sMMaPbxPz6mxM/E/8DirLZt20YTkxMDjaTtEPMEj3AgLiOQZOYMmyp1OBfx1EjUXfLowPNLZNPsXxYVaqn+bApfmK2JUb/4M8AaSQOAry0Lab6Lg297G1ZAs3fOv0OT35uk9B/TNPfSHO370T65vu9Sh99FQvFnPg/4GvkF6ueaVmHVCiB79Nep3t2qfVTs1IbbSx6W5qg213vdlm8zbNaAfWSWi8R3ITby54g/8aDn45Ug648Sq5Rj/4UCAO22LKSvXbtGx48fpyNHjrQtYbnx1Q1683dvUjFblBcPr759VW3pX2Gea6BklRrUn+QD3bvLdyvYt++J4/BtfXyc4PudD6jRqxViNnuE3/EuD67zig/diGWpyJ85IHwDufY3k1bNu3neA51PqyqZSxz2VilnMWWtBYB2+DILAIDG8LVwAACNYT5pAACNbfkteAAA0DuENACAxhDSAAAaQ0gDAGgMIQ0AoDGENACAxiJ5Cx7PAfL++++rZ1ur0/zX+GIMAAxDJEfSp0+flkE9DBzC7sUPf7vRvXTG7ajU18rVMtDXtEPHn6sU/iT+cla7IRwXYIxFMqR3795Np06dGlpQu8P38OHDnqV/9nzPvBhU5zkvRrUVlZwjeqavCagAIFhka9Jnz54dalAPR4HmeQKk5KzVRQUAoIvIhvTa2trQgponX+KFXb58WS7PPvusXA4dOkSXLl1qLn2rrlC5kaTmVNWeNlKqBZZdjsg42zxlkqB9DKe1Vad9SsaUWqkMcjxKkFGy96mpziwtZRTf4/rtBwCdRPruDg7qixcvyqDes2ePWjuYK1euyIVDmBe+ENh6MTCdTnsWZof5YESoFVNUtsshBlGumXAxyuZIto2aknOmLqrw67JPfFWt5+lET6hg5H2yVFedzxcoRU4vlEGOx0FbpFQ5bW0TS/tUpR2OmzlB2brVest/PwBwi3RI8wj62LFjckR9/fp1tXZw7vB99NFHPUsnfmHenerukpiiuJpTWY4szSTFmt1eG5RfMK0J/6smLVVUI9hu+5xTqVdYpYp4pdWJS+zTyJO9qWouiW3KQMfjrjEVWgoqPnc67nqdGklTkwuoAPqLbEhzQPMImgOaR9Rh45G5ewmNDLg6OR2uKmSoUaVcfIeWdicTWy/79CPs49l8jqsa0C7QIsodAD2IbEgPI6CLxaJc2Msvv+xZwmGXHeZlKyqq1qhOSVd5wc3VJkuNXGWHqsB9OuB9XF22E0bOKXcMdDyrrh64T5fjVs0Z2f0bTWUBgkUypDc2NkIP6AcffNCz+LFD3B3m3bn+5K/lqJ5212Gtuz3EC9R2sTSHlg2qx63RJjdsbQZ74D6diH2MCiVN6/WLVBZjXNsgx6uSOaNuJ1T7tO/S4bgZ50JkMVsPLpkAQDS/cTg9PT2UEoc+xIhbBjruOQYYd5EcSY92QAMAOCJ9dwcAwKhDj0MAAI1hJA0AoDGENACAxhDSAAAaQ0gDAGgMIQ0AoDHc3eHyVnGB7rzju+qZ4z///Zoe//Wf6e1/NtQaAICtgZB2+Wjtt3T2T84Xpm33Jb5P0z/+gXrm9a/PvqKfpBfVs1b8zUHTmSdDqBh9Ts/JczLLKT99vn0YtA0ARsLIhPT+/fvp2rVr6tlgOKT93Pj6G/rLG+/RJ5/+W61x/OrxJN09fUo9azXI17uD9sHXxQHGzUjUpHna0k5NY/vFI+nW5fwra74BDQAwbJEPaQ5o0zRpcnJSrYkCHhGXfFpT2eURNXOenFpOvTYRtI2PKaBdFcDIiXRIc0CfOXOGdu7cqdboyD1VqR2cTKxva01VoPkpgyrcEYXbTnmK10HbmAhstKsCGDmRDWk7oCcmJtQaXalQlSFpzwnNOrSmGhTaVQGMpEiGdHQCequhXRXAqIlcSPNdHNyhGwHdAu2qAEZS5EKab7M7fvw4HTlypG3Rk7smbV8gDFKg1Yr74qBb8Da0qwIYPfgyi0unbxwGCf4yCwDA5iCkAQA0Fulb8AAARh1CGgBAYwhpAACNIaQBADSGkAYA0BhCGgBAYwhpAACN4T7pIUAbLgAIC0J6CMJvw2XjuaGLlI2pp408pWdMwhe9AUYXQrqFnm24BNnPMEt1d49Esc44YJKJOaIBRhZC2oWnQOUZ9ngCp83oNJIOEhzS1gg6voRJ+wHGDS4cKlq34UrMUSpWodWggPa0znLPG61abGWc7bwtYZSar3Vm5uvntUK392xrDwYA/UJIC5Fow9Wo07p62I5bZ1mlEDnZfzpPcdPV+5CnS80RLfA2o0JJs0aLtGC9ttm6y9bra3t4z7b2YADQr7EP6ch0eYnF6YB62Ea2znKNtKsmLVVixN2zLA3KL6gLjLJVV4PKK+pyY1vrrh5f28t7htkeDGBMjXVIRyagqytUbiRpFkNRgLEztiEdrTZcVTKXrNKDU/cV+O4Ofq5aZzVDXKzPJbvUsDfrVrwnwBga25COXBuuwryq+zoX6mqLRCsyFK3WWc1txRSV0+7O5MNwK94TYPzgFrwhQBsuAAgLQhoAQGO4BQ8AQGMIaQAAjSGkAQA0hpAGANAYQhoAQGMIaQAAjSGkAQA0hpAOAc8BAgAwDAjpEJw+fToiQc3zPKuvcavFMxfIpoVwfDlHtXvKU4DxhpAOwe7du+nUqVNDCerb77mdjv7+KOXeyNGTf32SHv7Dw2oL0fZd2+mJ8hNtj4M1KJ92zwG9HPI8z67ji6V7JxnVIMAO5apJM1MzZMrZUVu2AYwhhHRIzp49G3pQ743tpfT5NN3cuEkrz6zQq9lXaf2yNfW/DOXSE7R9Yjs99benmo97C2pFzmSHeZ4BdIaQDsna2lroQX3/L+6nLz/6kl7/zev0yXuf0OcffU4frH4gt23c2KALMxdo438b9OJPX2w+vpC6ILf3JDNLycqSGrWKp8uuUkWzTsH9FX3KF57WWd1G42pE3NZOi9eblOQuLkWxXh7cHj23bjPk5/CUTzLieCVDfMJWfp+5w3kAaA4hHSIO6osXL8qg3rNnj1o7uDsP3UkfXvmQvr0Z5hxYKvQ4rEwiw1WPKMzbZQqDKsmcVWbInKBs3WgpX4gAlVOTqtcbRLlmTcJ1fE94+7XTKtA8v5ddIvHURlq3mdac2q7OB5nZJFWWVBeZJqtpb6qc9n5m3/MA0B9COkQ8gj527JgcUV+/fl2tHdyOnTvk6NjP4OUOd026Tjl3zZdHpjJceQSrrNepkTRbGtBy6yx32IvxbrNvlrsm7Z5fWqzfbDst3i85q4I/Q7PxPNmHbFJNe5fsPw9sfucBEAEI6ZBwQPMImgOaR9Rh+HT9U7rngXvUM69Qyh2yLZfqS8jlCx5Zy3BNU75hvcS6kDdFC7QoA9kpE1TUa9WyJUPTAp3Lx+WoPWHkKF5eaRlFB+h4HgB6Q0iHJOyAZm+df4v2/XAfzZ6cpbvuvYv2HdxH92buVVtVUKtQdj/umRx1NqjO1yIPiLGx3ZFcrucHjqo5Q2mR3HEe/qrWWU6JY+tUV8pEqRN0IkVOg1wuv9h/Eah+kJ0+m+c8ACIAIR2CjY2N0AOafbb+GV165hLddsdt9NCZh+jw6cPyjo/NcZUpZF1Z3e5WOEd5ylKR1y/GqW6PpJslkBoVs3VVRrBaZ4kDNbc5FxrdNWn7AmGQAq1W1D5tw1ufbdyVvJ6kZN254OlVJXPGoLrrs8ldfc8DQH/ozBKC6enp0AMaOuO7UGZXcfEPxgNG0iFAQG8h7krud8EQYEQhpCEi1H3OXKJZaL3tDmB0odwBAKAxjKQBADSGkAYA0BhCGgBAYwhpAACNIaQBADQ21iE9jEn6AQDCNNYhHd22V66Z6zbFNecFAGhprEM6qm2v5LQZi36T3W81hDzAsI19TTrsbips2G2vquYSVWIpmkM4Aoy8sQ9pnncj7KAeetsrD2s0u7xcomYnFE9rq5a5k13bSsaUWslaR8Wtz1vbT/H21tZXrdDGCmCzxj6kGQe1/m2vHDzhfbJRpuZ0yiIo4/UF1QlFhGcxS3URwFb3Fe4Iboetd9sCpZwOLIH8WlIFtb5ifvuI1WhjBdAXhLTAI2j921458zTzfMjGjHuSoYYzAb5sbVWhVTv8eP7lit19RWxrODPIybKJ9TBYp5ZUQdDGCiAUYx/SHNBhd1UZTturTr0DIwZtrAD6MvYhHXZAs6G3vQqiWls1m2rz/MtJNbLmbbEsnVDbZNnEeiisU93ud8gys862Li2pHK46NtpYAYRirEM6Wm2vemW1toqb6uKcbJFlj7zFNqNCSbVtkcquckeVzCVnW22WW83aOrSkEsfr3PoKbawAwjDW80mj7RUA6A6T/gMAaAx3dwAAaAwhDQCgMYQ0AIDGENIAANoi+j9fD3hC31ZcAAAAAABJRU5ErkJggg==;" vertex="1" parent="1">
          <mxGeometry x="880" y="1200" width="361" height="115" as="geometry" />
        </mxCell>
        <mxCell id="rWH31zUBPXZAnD3ZXqds-61" value="" style="shape=image;verticalLabelPosition=bottom;labelBackgroundColor=default;verticalAlign=top;aspect=fixed;imageAspect=0;image=data:image/png,iVBORw0KGgoAAAANSUhEUgAAAWoAAACFCAYAAAByvbIAAAAAAXNSR0IArs4c6QAAAARnQU1BAACxjwv8YQUAAAAJcEhZcwAADsMAAA7DAcdvqGQAABXTSURBVHhe7Z1/aBznmccfny0by+TALRSnmFvvhQVDTo3+8EEPdPEihLCpVeI1CwUHikqFkhaUE5QD70HOimBU7o+TYmgSWfT0TzgogjUnGWpUoZNzgqSh4SjCYCrKZrGTI/mjLjl8h3uRc+/zzju778zOL41md9+Rvh9445139n3nnRX57rPPzDzfQ7lc7isCAABgLH+m/gUAAGAoEGoAADCcfZP6uH79Op08eVJtxePRo0dyHAAAmMy+Eeo333yTXn/9dbUVjzfeeINee+01tRVAeYG2raLaIKovlmjI2lJbIfRVaK06SOulIYrz9ijKC9tkUYUKY0uqZzeUaWF7nGqRa+H3DdNqYYwij+J8LvVFKg1ZlMIpAgACMCL1cfr0afXKMKQY5WmxVKBCgVuJ1gertFbpU28IYcuioUI6Is2iP57foI38OMU5dPsRgi5EeqMiPpM9izR/OaylfF7tmBOA7tF1oX7++edlNJwWh3sO07mxc/TSwkt06a1LdObFM7L/5dsvu/6Npo8q4yxGuthukTW5SDQ6IaSgc/SNDBKt36Ab60SDI6aoT51q99VLAEBb6apQs0hblkW9vb2qZ+/0f7+fjj1zjJZfXabbP7pND379oEWkY4l13wgN5jZo1ZsD2Fqh9XqeClIvVeRWEZH39rZszWjbE9VxKkS9h9tCQ+nD5mD6SOr0ypY4tFRq0eNgj11YWBPjFtSXh/iCWfM7juBscw3RvwqC1sX9FhUpR6NVvc+9Dk7VOOO2G4vwrs09l/0+71xqHY3lerfjz+k/h/3a9Rm6/lbO5wpA9+iaULNIz8zM0NGjR1VPOuSLefpo8SN6+uVTub3zZIfevfSufO39N5J6jfyDxhzlz6qXLAj5VTs1UtmgnG+0LcSgOko1ThXw+0qLlLd04QiZg78waJ2ETttfEmLLHVSLtdQmxVjOK7NoVWlwvWTPJVozpS2OMU40GbpOL37rWqKxQoU2RETNKaFmvl5fB9HSmH38Ar+3qFI25QkarVVUP6/NPVcz/+6eKxi/8w2aMwz9ePy34msL9nxiKhpv/qEA6ApdEWpHpHt6elRPehw5doS+2nFfH00UUTO5PDX02IX+s18Iwg0lBkurQiCcaFujryB6teh8y6L5DV3sg+ew0x4rKg+8RRxUj07oEluX0bZE/QqY902Mi2NMqnxy0DpbiHFuDbR1MJzflxEpR7eK+zWqF60Y0bxnriBCz3c36J8h/61UNM7rt0Rs3vxDAdAVOi7U7RRp5pPffEJ93xNCIM7s0KFD1NPbkyyilimOIg17w04pDjXa3qs2xKJME6M5EclWlehtU1VsU3E4RjTcRTh1YBFVZJRbosW66pcXWAs0SbPyXFxpGaPYUGtXLdGdNgCkR0eFmu/u4Fvi2iXSzIdvf0i9X+ul0s9LNPLWCJ361inZv+u0B184nN+goqXnKO0UhggzI36Se9jappqIKxuiz3dxFH3y317Kw1Tk29900ZDC5/MFwqgvl939VNfztSlxVsSkTtpIfrHJ3gZb1hCVhHrno0N6wX2q1bVfH/yZqJfxzzdkDi/qb4V0BzCJjgr1w4cP6cqVK3Tx4sWWlhZPvnhC7/30PRF5VuUFxQcfPFB7ErA0JnOUlopm+We8CLXi3UftYonGZF5azSNzoNH3KpeHi1RvpD0cOP1RF0G1r1KTNVShmhaBdyVqXbpBizRKVV7DbF6IpOpvpEP4l0FNpSyWaHVDpRp8F+t8Ydrjtoc53nUIOl/vnGFzeLH/VmJwY07/dQHQOfDAS9QDLwAA0GXwCDkeIQcAGA7KnAIAgOF05fY8AAAA8YFQAwCA4UCoAQDAcCDUAABgOBBqAAAwHAg1AAAYTmZvz+OaIffu3VNbnSWofjYengEAtIPMRtTT09NSrNsBC7He/OCnIPUWDNfSUI8iqxZdPa4TtKHGByNrObdhXgAOMJkV6uPHj9PU1FTbxFoX4AsXLrja7lG1kWVRJVWbYr/Wj0jTggwAIMl0jnpubq6tYt0e7KI/ddNLlQIAjCHTQr25udk2seaCTdyYO3fuyHbt2jXZ+vv7aXl5udF2jbfWta/1k0pNlAPss8LGBNl6aWPWKgXVqUgyn6/tlyel4juv3zgAQBCZv+uDxfrWrVtSrE+cOKF6k3H37l3ZWIi58cVB7wXCUqnkaowj6MkQwhZo/aTZZ8nSm7NKACPG+Np68ZimHdgkDWo1mZPMF2b75RAwb4sll3o7AMCXzAs1R9KXL1+WkfXjx49Vb3J0Ab569aqrBeEn6NEoO69Q6yfNPku374oa42efxWPqi+Ts2rLmmzWZE80XwwYraN7YllwAACbTQs0izZE0izRH1mnDEbreUqPFziuO9VMfFfLqpSRtu6h22U/5zJsZSy4AzCDTQt0Oka5Wq7IxN2/edLV0cFIQyuEl1PopR4OO5biKYKV9VxK7KB6TGyXHF7evMt5MfSSaL4YNVsS8u7PkAuDgklmh3tnZSV2kz58/72p+OEKuC3o02s//7XGqlfS8bJj1U51qeTvq3NbFPZFdlBhTadpRzdK6iHUdkswXx/YrYF5fSy4AQBCZfTJxYGCgLekOcxCRtxR13JMMwEEnsxH1/hZpAABokvm7PgAAYL8Dz0QAADAcRNQAAGA4EGoAADAcCDUAABgOhBoAAAwHQg0AAIazb+76uH79Op08eVJtxePRo0dyHAAAmMy+EWq2zAq3xGqFy5NGVr3jx52tZkHQ+mKJhuI8Ksh1mGWJz3SeLCwvbJNFlYTFkuI+5cjvs5o1QLhyXhrrT/mzAOCgYUTq4/Tp0+qVYUiRzms2WiVaH6zGK8+ZpiWVELrx/AZt5Mc74EXYtA2zS2BXaM+HjPws+AtiDT6LAATQdaHmUqVBBrJJONxzmM6NnaOXFl6iS29dojMvnpH9L99+2fVvNH1UGS/SRkUXmC2yJlm9nOL5naFvZJBo/QbdWKdmNb0OIGtW5wapg4cEAPjQVaFmkbYsi3p7e1XP3un/fj8de+YYLb+6TLd/dJse/PpBi0jHEmu9rKiOLO+piuc7kaCvVZUnSnRZUumV5sLmYPpI6vTKlji0VGotwrXHLiysiXExbK7ONteQqGi/r62Wdw1R9lze/byP0y2qwqCz4JBj7c4ajLv95gIgO3RNqFmkZ2Zm6OjRo6onHfLFPH20+BE9/fKp3N55skPvXnpXvvb+G0m9RmzC0opyWpEIgfG1qtIRAqPZYLGtVt7SRDxsDv7CoHUSOm1/SYgtd4Qr1lKbFGO5BCoLVZA9ljiGY+sVuE43smZ1XR1bnkOwXVdjDVE2Wy37l2hMTLbhpFzkgPBj7c4aLGwuALJBV4TaEemenh7Vkx5Hjh2hr3bc10cTRdRMLk8NPXahbLQkAVZVOtKSSovOdVstSfAcdtpjxbbjEv/loHrUqf4vqctoWxJqjyWO4dh6Ba1ToiJbEX1yrejKkBoTYdfVWEOUzVYcG640rcFC5wIgG3RcqNsp0swnv/mE+r4n/s8VZ3bo0CHq6e1JFlF7ncIdpCDoNlrtpEwTozkRNTYL71fFNhWHVRTZDlRkK6NSx6jAIYZdV5TNVmwbrjStwdplMwZAZ+ioUPPdHXxLXLtEmvnw7Q+p92u9VPp5iUbeGqFT3zol+3ed9uALh/PsiKLnNO0UhgjpPAIWgbKkaog+38VR9Ml/eykPU7G+SCVdZAolWvT7AmHi2GO1IM6pkT8OYZd2XVE2W6H707QGSzIXAIbRUaF++PAhXblyhS5evNjS0uLJF0/ovZ++JyLPqryg+OCDB2pPApbGZE7TUtHs9rZFIjSLdx+1C9uSKq9ssLZlztQbrbZSHi5SvZH2cOD0R10E1b5KHcMeKykx7bqibLZ89y/R6oZKT8g507QGSzIXAGaBB16iHngBAIAug0fI8Qg5AMBw4PACAACG05Xb8wAAAMQHQg0AAIYDoQYAAMOBUAMAgOFAqAEAwHAg1AAAYDiZvT2Pa4bcu3dPbXWWoPrZeHgGANAOMhtRT09PS7FuByzEevODn4LUWzBcS0M9uqxaolrQqROzxsdukbWf2zAvAAeYzAr18ePHaWpqqm1irQvwhQsXXG336BXpVD2K/VpvIk0LMgCAJNM56rm5ubaKdXuwiwTV21qqFACwn8i0UG9ubrZNrLlgEzfmzp07sl27dk22/v5+Wl5ebrRd4611HWY7VW7uc6VMklhVaWPWKgXVqUgyX6TtlsB33gDLLACAL5m/64PF+tatW1KsT5w4oXqTcffuXdlYiLnxxUHvBcJSqeRqjCPoyRDCFmY75dhnyVKds0oAI8b4WlXxmKYd2CQNUlH2M0nmC7P9cgiYN8quCwDgIvNCzZH05cuXZWT9+PFj1ZscXYCvXr3qakH4CXo0ys4rynbKsc/S7bsSWVWJMfVFcnZJh3H7ZcL5wmy/FEHzxrHjAgA0yLRQs0hzJM0izZF12nCErrfUaLHzimMV1UeFvHopSdteql12VT7zxrbjAgAwmRbqdoh0tVqVjbl586arpYOTglAOL6FWUTkadCzHVQQr7bsSWVWJMblRcnxxpcO4/TLhfDFsvyLmjbLrAgDYZFaod3Z2Uhfp8+fPu5ofjpDrgh6N9vN/e5xqJT0vG2YVVada3o46t3VxT2QvJcZU2APSfv8srYtY1yHJfHFsvwLmjbLrAgC4yOyTiQMDA21Jd5iDiLylqOOeZAAOOpmNqPe3SAMAQJPM3/UBAAD7HXgmAgCA4SCiBgAAw4FQAwCA4UCoAQDAcCDUAABgOBBqAAAwHNz14eH96iQ9+40/V1tN/ud//0Q/+Pt/pQ/+s656AACgM0CoPXy8+Y809y/Nh6sdzvX9BQ389V+qLTf/9fkX9DelWbUVhF0WdDSnNuuLVBpSlfEAACCEfSXUp0+fpocPH6qtZLBQ+/HkT1/Sv/3qt/TpZ/+tepr83Q+KdGZgSm35wMXzVS3oRo0P0Vc5a5HVqPnRafCIOgBZYd8INZc85QL+V65cUT3JCIqowwgXajuSzs+bViAfQg1AVtgXFxNZpC3Lot7eXtVjEHp50iBcdlV6FToW07VEVlgLC2uiT1lftdhh8XssKjpV/ZwDwjYLACPJvFCzSM/MzNDRo0dVj4HUa8RmLv4I0dQssthyK28JcW7osRDTXVth5ShfmxR9XBaV5/faYd2nMfFig91buF8O9HufWARsswDoOpkWakeke3p6VI+h5PLkGFu1IO2qtIhbt9ySJLHCqtP6iuoPtdnSgG0WAMaSWaHOjEh7Hce7QlybLdhmAWAimRRqvruDLxwaL9KSLbLmbWcVl8jxXR+8reyqGkIu+seLETltJo4VFhPXZgu2WQAYSyaFmm/B47s7Ll682NKMZGlM5Z5VWoHbLNGKFGPbrqqxT+aJHcutMOJYYTFBNltLtLqhX0yEbRYApoIHXjwEPZkYRrwHXgAAIBkQagAAMJzM354HAAD7HQg1AAAYDoQaAAAMB0INAACGA6EGAADDgVADAIDhQKgBAMBwDrxQc80QAAAwmQMv1NPT0xkRa64hrR7tlk0vhboXeN605lJoj50361rvEVkrO+V1ApARDrxQHz9+nKamptoi1l9/7ut06Z8u0fivxunVf3+VvvvP31V7iA4fO0yvrL/S8jocVT+6UCBZlmO2Qt3XLY/Qs6Ba1KzCV6pRIQ2lllX84EYDDibIUQvm5uZSF+uTuZNUertET3ee0spPVugXo7+g+3ds+wApzGuv0OGew/Tj//hx43U8sbbZsuZpIzdII6ZFmGfzlNONEoTAds8XEoD9AYRasLm5mbpYf/uH36Y/fvxH+uU//JI+/e2n9IeP/0C/W/2d3LfzZIfeGXqHdv5vh372tz9rvH5n8B25f/fYUW2w/VZriVVn31qloDoZbxrEu+215eL9HksvNjfIjdKsX47CtSYnJaKvfY3WxPyutXIaZY1/OUStxen2O4YXv7GwHAPmAqFWsFjfunVLivWJEydUb3Ke7X+Wfn/39/TV0/bUvOqrjFOxvk6OkUur/VaQvZd73yQNCqGNg5/115KPpRf3lWh90C6X2hQ8Pq6P1ZfEWfsQDXHtbs1loTxcpI15i9wZD7+1cH/YMRwCxsJyDBgMhFrBkfTly5dlZP348WPVm5wjR4/IKNmP5KmPplUW14auDOkC5rXfCrD34n31RXLcvWQKxX4ZTqj1lxeulS0ET9XZlmIdagmmrZ0j8uKwioTLNJxvrrVB0Fri2I4FjYXlGDAYCLWARZojaRZpjqzT4LP7n9FzLz6nttwkT300LybakbPhiC+IycW6FiHHsQRbohuLeRkJ86+G/PqKJ5qOIq7tmAdYjgGDgVAL0hZp5v2336dTf3WKhq8P0zdf+Cadev4UvVB+Qe1VYq2EWX+dCmH2XrwvN0oTap9ModgvBfepVteMdcvDzX1xrb/KFVceeWQwR/Xa/caaIscLtlbWiQYnaGIwwFEmaC2Bx9Dy2xHnAcsxYCIHXqh3dnZSF2nm8/uf0/JPlumZbzxD35n5Dl2YviDvBOkMYfZeYl/F9nDkfbO0rqU+mv6Octwwx6cOQdZfHkuvpW3KO6mH7arM+w5JsQ2w+vKDxVQIbrG2qtbsJXgt0ccIGAvLMWAwB97hZWBgIHWRBgCANIEVFwAAGA5y1AAAYDgQagAAMBwINQAAGA6EGgAADAdCDQAAhgOhBgAAw4FQAwCA4WRWqNtR6B8AAEwks0KdHQstgXHWVFz7wlmP3YKe5o7FntayCzp1HAAMI7NCnRkLLRYXI62ptEp8svbHHr5AIteiFUXaFZ5xez5nALJJpnPUabuyMKlbaGXBmoprQFOeUDAOADPJtFBzMaW0xTp1C60sWFNxOVPdLSZojNa/Vqlox9fX4l0H7/PYdbnO0Z6/vNAc03yP/7jGObvWqX9O6n2VZsop2BDA73ML+CwB6BKZFmqGxdpsCy1Trak0J5ThVSo03GKCxnB/DAuvFksrPn+vXRejW4eJT2lMHY/fWxwXYhw0zsG9HrfdGCPOLy/Oi/dVNig3OiFGeAn43GDLBQwj80LNkbT5FlomWlMpARRrqjfmFwSN4f44Fl6xLa20c2QaF1w5io6BXGeA3ZhEnJ+z2KDUDmy5QEbItFCzSKftztIeCy2FEBPjrKnkmuz5myS0s2LkBb9dWlpxCqNxwbVE4iPqLknOAYA2kmmhTlukmdQttIy0pnLD0XFtdNZeZ9AY7g+08GplV5ZW+gVXGeXK3nDUOn3txkIpN/PcsOUCGSGzQp0ZCy3jrakYjtrF22b5ImXQGNEfaOGl4Wtp5bHr8rJ0gxZplKo8bjZPtUZEHTbOXqe/3VhcYMsFskFmHV5godVlOF1RzdN8FtzQAcg4mY2oIdLdpTwx6r4/HADQNuCZCGJi38o22sgf8wVHRNMAdAIINQAAGE7m76MGAID9DoQaAACMhuj/AYU+zh1rOPY7AAAAAElFTkSuQmCC;" vertex="1" parent="1">
          <mxGeometry x="879" y="1360" width="362" height="133" as="geometry" />
        </mxCell>
        <mxCell id="rWH31zUBPXZAnD3ZXqds-62" value="" style="shape=image;verticalLabelPosition=bottom;labelBackgroundColor=default;verticalAlign=top;aspect=fixed;imageAspect=0;image=data:image/png,iVBORw0KGgoAAAANSUhEUgAAAWkAAAChCAYAAAAFt04jAAAAAXNSR0IArs4c6QAAAARnQU1BAACxjwv8YQUAAAAJcEhZcwAADsMAAA7DAcdvqGQAABp5SURBVHhe7d1/eBRngQfwbwih5Zdt5LH8OGS7cLHYNoWeWtFDiWtM4SlQu1xsFT0vXmNo6UFjq1e3TykEbzn1qQEUgcZrPOvV0mh4JN5DhTwxPOURfar2ehGf2BxdVoEKtYW2YIU04eZ9593d2c3M7OxmNsxsvp/nmXZnJjub4Y9v3rzZfb8lgUDgIoiIyJPGqP8TEZEHMaSJiDysqKY7nnrqKUydOlXtOXPy5El84hOfUHtERN5SVCF94MABhMNhtedMe3s7Fi1apPaIiLyF0x3Z1Lagr68vuXVGKtWJLCoj6OzrhNMvz6a2RXv9llq1l6tatDj4XsRrpL+EyfPEv4ft9+H8tYZeRzw39W/dl3Ydca5F+y/R6OKJkJ45c6Z6NDwvv/yyHBnnsonnWBKBFA2iNVyBigqxhdEVancW1D1RVFdUI9qj9odDC/yGYDe6gw2uhb6Ztn3dqKoxxGBlBYIIILQs9aKVFUHEY71qL0+29xNP/nuHW4G65ggKeMtEnnfJQ/q6667Dli1b1N7w7Nq1C6FQCFVVVXITjxcvXozly5dbbsePH1fPzlSJSEMVuiPGoO1BtFEkx5oRHdFVLgsBXVuxtQtpgem63hjiwYpkKIrXjbVq9xucmzgC+a10DO8nj9P76YnuRHcghELeMpHXXdKQFgEdjUYxYcIEdWR49h8+g3d9/gf4u68clts1n38Clwf/HmfPnsXAwID6KocqlyEU6Ma+NrWf0NOBrngQFTI41K/2kdSUSGqUnfFrv5z+SP0qn/pN3+4aQioYezpkqhlGlvpzW1o6teclpgK0Hy6dZq+jmZv6Hkx/GxD3hkQo6q8b6+hDrKpGXXsugoEY+hIZnXZPGVMRlq9ldz9ElOmShbQI6E2bNmHcuHHqyPDMuuUBBG7dgHFvewdOP/8TuZW97SrMurUJM2q+gDfffBMXL+b4N9J4DOa/2AdSg0vtcV1wnz4dEulGwHSUrYVpex1iETVtov0eH4wa51ttriF+WGjRKQevaSGaoH0vsUbtufVokwHdjlBXWL+WttUnf8hor9EANNp+nz3oiyXuTQtk+bpt2NetfijV1qCqe5/2OoK4J+07S0wFRYCG5A0ZXkufszD8sMp2PymVkQZUxdXXEo1SlySkEwFdVlamjgzPldd+DG+/8Va8+IN/wdiJ5Xip+ztyE4/FsSnvCWNyxSL09/erZzgUCGpRZSaO1LRsHK1bVRK27UO3Fm36KNtAzu0aRuU9UezsNga99TX0qYEOLT6FHojBZ90aY7zGU9MPavS/03QiXHuNxqh+HavvU5OclxaBHOuTX98b06cl0uaj1Xx1XbsaSUertH+uxA0ZXivjXrPfT+qa7XUxRKrVdYhGqREPabcDWpi+qB7jrpiOd6/+EUrHX4nKL+6Tm3gsjolz06rqceHCBfUMB+S0RhWMf0eTZBAafuUvqFqsqQtoo952NaUggisALUVNRsEuUfPStVogd6ufKnJaIrjMZD66GxE1YpdbathuUAntUoqT+0n94VD/7YBodBvRkBbv4mhqanI1oIVJs65Hz9ercbzzWzj188fxPxtvktvLv/g+TnR+U56bNPMGDA4Oqmc40YPoTm1UGTXOterTFtqwN7fw6OlDDIbAF+9uqDKZ784kRrPxVoSNQVgRRqvZDw9B/WBJTTs4oebEE0+RUxB1iGq3mfxtQXz/VXWoM/5wUvdk/lqGd4QY5/ZzvR8iGtmQPnbsGFasWIElS5YM2dxQgosoGVOi9oQSlKhd41HH2urlXGtUjfr6+qLQho6ozvl9dW2ol/PQ6jpyLjf7KLG2pgrx5NRAgpgiiKe/VS5J+8FSHUHMMFK1fUuzKf362gsb5oLFvLT2v+R8tKDfEwyvlXrfcxyxYLO6VzEXr99r7vdDREXxicNr79qFSbPfr/bMvX7kkBYin8akSZPUEZ0Y2a9du1btERF5S1GEdPm11QiEN+LI9+/Buz73H/jdt/S1OK695ym80Hon5qz8Jo7+8EF8rHIKFi5cKM8lnD59GuvXr1d7RETeUjRrd7xzyRfluzgu9v8Vb8Se1e6sBJOvfi9Kyi7Hn5/9IY799BH1lURE/lFUCyyVX/tRTPtwPSYFbpD7b8Sfx5+6W3Cmt0vuExH5TVGFNBFRsblknzgkIqLsGNJERB7GkCYi8jCGNBGRh/k2pMUaIERExc63Ib1x48YRCeqS0rH42xV3IvRYF5b+pBdVj/4U76z5B3U2F+nrPPd1FkPjSMa6H0ZptWMu1V7J9astXo+oSPk2pMePH48NGzYULKhLx12O8rnzMP/eTZj6wRr0bHsYP/v8YvT911ZU3H43rvlMDh8ll+HSjuBOw8JCjcAyzyxXYRO2+RD3K5c5UfcajqHCjXt1s5KMyCd8PSe9efPmAgR1CSruuBsfe+IXmP+Fr+LKa27Ab77aiNdjv8dbf/0L/tzzLH696R7MvvWfcPmUqeo5drQRdLO+4H/aSp5a4ESzrbDkV3ODCBgLE4r5XokKzNchffDgQdeDOrD4dkx9fwgH76vFzx/4R237DAbfSi8L+Ourf8Yrh3+FuZ/9AiZffY06asG4VKeVtBoqp9Vaduc0adc0Tjdk1muJ60RRlVhsP/HiVs83HO/UfvCYEqUCgTo0mw3NTa+r34teA9aJTu37S1u9T0ydyOmhzBG/RVWY6WtYfC2Rx/k6pAUR1Lt375ZBPXHiRHU0f7M//ln89tEo+t94TR3RPfibzrT/v/TM07g4OIgP/vv3MGPhYnnMkmUNl6AFT77VWpbnxDXNqq1EUGXWa7WhXvuC7sRi+3K4b/X89O+1ESEt3M2Ia+rN6umBaHVdIVEDVo1qsY53TeouxRKn3TszG1rM7kUct3iN2jWoi0UyvpbI+3wf0mIEfdttt8kR9blz59TR/F329qtw/uWX1J61U795Br3fa5ZTIe/+539VRy1Y1nBphlGtZXnOqtrKtl7LwPL52vF4KxIvKdu89YcmxNrWWiCqdbRlUGep3Eq2voh7Sba11KImmHrNJKt7sXoN0ThTFTUv4CXyMF+HtAhoMYIWAS1G1G44+8f/Q/m756s9XeYoOvF/4ezxOMoml6s9E1Y1XAXnpNrKznCfr2g/dBpbjYv6O7luG7a2BuUIWJTRBocUBWRj8hryj45i9K+XEXC6g/zC1yHtdkALv3vsa7h+1UN4x40fRKmhyfzrN300uSWUjZ+Id33qHpx61no8KUeUsoYrIxgqI4iI/XyrtexYVVs5rdeyfL52PFCHRG+sbPPWH6ar1e4t+dRKLAsF9AJb28qtdLJXMbQGa0Ix85G/1b1keY2eaDXC2g+NoFkLL5EH+TakBwYGXA9o4dXDv8avNq3B1Us/hdB3OjHw5jn5h8MxY8fK82PKxmKgv18eX/Ttn2Ds5RPk2/NsiRouY32W2JqBDhnE+VVr2bOqtrKq1xL1WGqKQB6wer52PKL/wBHHmtFlPt3R1odgYrqhr13OBeuVY1bXNSG7FqtQFTNWdhlZ34vpaxjety1ayLNO+RB5hG+XKhUNK24HtJW6Jx/D8eeex6927cZ7bv84/mbeDfjup+5UZ4mICofrSTtwxYxpCD/ybwh+4H2IHXoW7fc9iNdO/EmdJSIqHIZ0DpqO/i/WXa23vhARjQTfvwWPiKiYcSRNRORhHEkTEXkYQ5qIyMMY0kREHsaQJiLyMN/+4VCs23H48GG1N7K2bNmiHqVbuzaHIgAiIgd8O5IuZH2WCGHjZmbdunVpm7VatCQ+nqw2b6zEJr6vTverqORazgW4LtEo5duQLnR9ljF8Fy9enLblTq3VLFdlU+tNWK1Z4XdytTlWXBG5xddz0m63sowMfQGgeHK9ZCIia74OabHAUqGCuqmpSW7C008/Lbcvf/nLcps/fz727NmT3HKWuca0TaVUpNZYV2WYQ7B7joNKrSHVV/lcz7SSKmMaxfS6rLIicsr37+4QQe1WfdaBAwfkJkJYbOIPgZl/DAyHw2mbkAjz/GihZlMpVdcANIrjcvnNZhV+WZ5jWallVX2Vz/Ws6quMLK7LKisix3wf0mIE7WZ9ljF8V65cmbZZMQvz7OIQ6+Bnq5RqbVTdfsZarWzPsarUsqq+yut6Dqq4WGVFNGy+DmkR0IVoZ0kQI3Pj5hoZcDH0JfPNSaVUJSqC6qHkUr1VktvXS2CVFdFw+DqkCxHQ7e3tchMeffTRtM0diWkH1b5iW/cUQGiZOq5GrrJWK4caqiS76qu8ruegiotVVkTD5tuQLkR91qJFi9I2M4kQN4Z5doZf+fsaEAsb52HtKqXiiAX10WafMdhtn2NFe45l9VU+17OqrzKyuC6rrIgcY32WZ2kjbhnofM8x0Wjm25F0cQc0EZHO9+/uICIqZmxmISLyMI6kiYg8jCFNRORhDGkiIg9jSBMReRhDmojIw1ifleFQeyOmX/U2tZfylzcv4HNfegK/eC6ujhARFZ5vQ1p8JPuhhx5yPaiPHnwYmx9LfWA64b2Vs7DwfbPVXrqXTr2OD4Sb1V4m8cnBaGqdDLGqnFc+RSjWepZLifJTjURe5duQ3rt3r1ya9OGHH3Y1qEVImzl/4S3s6fwtjv/pjDqScu/nqnD1wg1qL1P6x7srI51oD3UhXK2WIB1R/Kg5kd/4ek66UK0sYiSduW3//kHTgM6VXMc5EEJicTsiIju+DmmxfofbQR35ege2fe8ZuXV0Hsbp195UZwpBjGw70dLSiWS1VFrdlHFlOf1r86nT0q8vjotpF7Uin7ywumbiMqy6IvIc37+7QwS1W/VZwo87f4/v/ufj2NPx31iy/A786Kc9rga1XMc53oWO5HRDAMFYIyoqxDKkWmgaKq5EZVYwaghREbB51Gnp1xfnIuiWc+La4yGL+ltcg1VXRJeU70PazfqsCRMmyGuIP0j29/ejtrYWn/70Z/HzX8fUV+QrtZ60WD85kjYfHUdXIrFl3ZRa2F8wVmZJ+dVpJa9vh1VXRJ7k65B2uz5r+/btmDNnDl588UVZSCvcfPPN+ONLp+Xj/KnRqxyNJhbuH65C1Gmx6orIa3wd0m7XZ5WXl6O5uRn33Xcfli9fLo+JBpiSkhH6Z1J1UzWJIKyMoKHKMLLWRrqu1WllYtUVkSf5NqQLUZ+1f/9+XHHFFcmAFgYHBzF+wkT0HjmljhSSXjcVVBVXfXKO2DjyHm6dVhv2dRv/cGjEqisiL2J9lsHYsWPR0NAgpzjEDwExLz116lTEYjF86UtfxLfXL8V7b5ilvjrF/sMsbhHvxOB7nIlGGy76b0OMqsVoffbs2fjDH/6Ae++9F6+88oo6O9IY0kSjke/f3VFIr732mgxmMZKeNWsWHnnkEXWGiGhkcCTtgBhRb9myBa+//jrWrFmjjhIRFR5DmojIwzjdQUTkYQxpIiIPY0gTEXkYQ5qIyMP4h8MMrM8iIi9hSGdwvz4rQazL3I66gNqNt16idhbB+MEYfkiGyMuKKqRnzpyJY8eOqb382NVn/Xj/8zhx8g11JMW+PksjuwT1daKTi9NpxyJzo4imFubI0XDClSFN5BdFMyctli0VHzhxQ2Z1lthEfZZZQGenjaCbMwJa6BlOQBPRaFEUIS0COhqNykX7Pce4pKiVtNoqk8qsSGolOn3xfXHcvArLWRWXjbTnmNVwiWOs1CIaKb4PaRHQmzZtwrhx49QRD4rH0KseDqUFYLbKrOA+/VykG4G6Ndoz2lBvWoWVSxWXGfGcbDVc2rVZqUU0Ynwd0omALisrU0c8KhBEsgErk5PKrK3qZNs+7SuDsF53P5cqLhNOa7hYqUU0Ynwb0r4J6J4OdMUNbSue56CGi5VaRCPGlyEt3sXR1NTk/YCWehDd2Y2qaEaYiXd3iP2slVl5yue6OdZwsVKLqPB8GdLibXYrVqzAkiVLhmye1Fav5oRTf2zrawY6ZGBmq8yyYleFJeRzXYc1XKzUIhox/DBLBqtPHNoZmfosIhqNGNJERB7m+7fgEREVM4Y0EZGHMaSJiDyMIU1E5GEMaSIiD2NIExF5GEOaiMjDRn1IizVAiIi8atSH9MaNG30S1GJNZ/VRbbllW3bUKX2t6JFZ0C59Heq+zoh25FIx3vdI/hsQ5WbUh/T48eOxYcOGggT1lDlTsPRrS9GwvwF3/ewuLP/GcnUGKL2sFKu6Vg15bE+tH11RAbnERvOlDLkEhwEnywTaEdxpWGGvEVhmtuyIYwxXKn6ck9Zs3rzZ9aAuD5QjvD2MwYFBdNzfgV11u9D7tL70vwzlzlUoLSvF6mdWJx87C2pdT3QnugMhLPNFQLFCjChfDGnNwYMHXQ/qBXcuwJmjZ7D3wb048fwJvHr0Vbyw7wV5buD8AHZU78BA/wC2fWhb8vGO0A55Pnf6iNJxdZbhXKcWnCmZI9PM/czaLHE+s8bLpFqrKCvEMplVipkdI8oNQ1oRQb17924Z1BMnTlRH8zd9/nQcOXAEFwcLs35VZaQBVfEuJMpSnFdnpZ9rREgLOidE4LQj1BVOTlfUt5nUeFlVaxVbhZg6ojP7t9EOs2aMXMCQVsQI+rbbbpMj6nPnzqmj+Rs7bqwcHZvJf7ojVW0l1nGOVEeRWsnZYXWWOBdvRaKRS06b6A/tqdFw1rWjraq1iq1CzMjq34Y1Y+QChrRGBLQYQYuAFiNqN5zsPYk5H56j9tLlP92R+sPh0NGcR5hVaxVjhZgTZv8WRDliSGvcDmjh0PZDmHb9NNSsr8GMeTMw7bppmFc7T51VQa1C2fjYFXbVWeJcoA5r1Dk5baI/1PQiFjeMNGtrUudU0OZXrVWMFWK1+ly5vD37fxvWjNFwjPqQHhgYcD2ghVO9p7Dn/j2YfNVk3LLpFizeuFi+42Nk2FVnaeciemCKc83oMkx3pMJUPq9GjCkTtHPVEcQM1Vp64GbUeFlVaxVbhVgai38b1oyRC0Z9M8vChQtdD2giIrewPouIyMM4J01E5GEMaSIiD2NIExF5GEOaiMjDGNJERB7GkCYi8jC+Bc/E+vXrUV5u/cGT8+fPo6VF/6ACEVEh+TakxXobhw8fVnvu2rJlC9atW6f2hmpqakJ/fz927tzJoCaigvLtdMelrr0qKytDQ0ODXIDHt+S6ydmW7hymkXgNoiLm25AuZO2VUyKo6+vr1Z4XGRYBkjL25Spt1SjokhIj8RpERczXfzh0u03FKTEVktguu+wydZSIyH2+DmmxMFKhg/ruu+/GqlWpxfg/+clP4oEHHlB7ztS2qNXUxJZcUU2NamtTVU2pxeHtzllUMslphcRxUe8krmGsl2rJ2JfLtBlG1urxkJoqxXD9zkjE8LxsFVHG13DyvRuvkeV7IhoFfP8WPBHUbtZeZfrIRz6CJ554Qu0Bu3btwk033ZTTCLqtPrGAfATdVQ2G6QctMBuARnFOLo/ZnP2caSWTFmZDKp96M+ql6i3qpoy01xxSUyWI61tUbuVSEWX5vedanUU0evg+pMUI2s3aKyMRxCUlJWnXHRwcxNmzZzF58mR1xIHkusJiJGukBWajqsAaUu1kcc6sksm28ikX2mua1VTZVW7lUhFl+b27VZ1FVHx8HdIioAvRqpJw++2347nnnpPFAEa//OUvsXLlSrWXhfhVPgpVxxRGa1wdH6ISFUH1cAjDOfmHOLNKJpcqn3Jl+f2YyOVriUjydUgXMqCFJ598EjfeeCNKS0vVEd2CBQvw+OOPq70s5mpj3ERTtiwslUeVAELL1LBQlZmmqp3szom8M1QyOa58ypNt5ZYuvSLKOA89lNn3nlPFFdEo4tuQLlTtldGFCxdw8eLFtLnuMWPGyH3HUyttW9GKOrSLaYjmIGJpI+k4YkF9VNkn52WN1U4W50wrmawqnzLrpbLVTVmxqdzKpSLK5nvPvTqLaHTw7ScOC1l7ZfzE4erVq/HWW2/JTxcKd9xxB2bPno1oNCr3xacP165dKx/nRow2GxALm72H2O6cB4gpnPYgdjpqLBf3UoN9Xm03J/I4346kCzmCNtq2bVsyoAUxBZII6NGqdk1dagonG9E47vRriWgILrBkItsCS0anT5+WX587P42kxfub21GXnE8Xf6TMMjKWo20tzMW7M7z6GwGRDzCkiYg8zPfvkyYiKmYMaSIiD2NIExF5GEOaiMjDGNJERB7m25C+lIv9ExGNFN+G9KWuz3JOvOdZfeRZbtZrWhARZfJtSBeyPmvKnClY+rWlaNjfgLt+dheWf2O5OgOUXlaKVV16CYDxsT3xgQ59dTp9aegImNNE5ISv56QL0cpSHihHeHsYgwOD6Li/A7vqdqH3af1DzTKUO1ehtKwUq59ZnXzsLKh1ci3mQAiJBe6IiOz4OqTF+h1uB/WCOxfgzNEz2PvgXpx4/gRePfoqXtj3gjw3cH4AO6p3YKB/ANs+tC35eEdohzyfOzEV0omWlk7olVcayyopjeFceoXV0Os4rewSpyoj4nmJ61r99DCrvspWnUVEw+XrkBZEULtZnzV9/nQcOXAEFwcL82l5uRZzvAsdybUsAgjGGlEh18LQQtSySir9XFqFlWS8DpxVdqnlR5u1q8mvtayn0tfuCHWF1TVV9VUu1VlElBffh7QYQbtZnzV23Fg5OjaT/3RHqtpKrKMcqVa1WFIcXYnEtquSsquwkgzXEZxUdsk6KsPzrOqpVOnAkLWic6nOIqK8+DqkRUC73c5ysvck5nx4jtpLl/90R+oPh4mRbkGJaRFHlV3DxDosooLzdUi7HdDCoe2HMO36aahZX4MZ82Zg2nXTMK92njqrglqFsvGxK+yqpBxUWCXZVnY5peavxSC5pwNdcet6rvTqLCJyk29DulD1Wad6T2HP/Xsw+arJuGXTLVi8cbF8x8fIsKuSsqmwymRb2ZWPHkSrI4gZ6rnkqDmX6iwiygvrs/xKLqrvtMKKiPzKtyPpUR3QmpwqrIjIt9jM4ht5VFgRke8xpImIPMz375MmIipmDGkiIg9jSBMReRhDmojIwxjSREQexpAmIvIwhjQRkYcxpImIPIwhTUTkYQxpIiLPAv4fVBJkIPTpCx4AAAAASUVORK5CYII=;" vertex="1" parent="1">
          <mxGeometry x="1280" y="1360" width="361" height="161" as="geometry" />
        </mxCell>
        <mxCell id="rWH31zUBPXZAnD3ZXqds-63" value="" style="shape=image;verticalLabelPosition=bottom;labelBackgroundColor=default;verticalAlign=top;aspect=fixed;imageAspect=0;image=data:image/png,iVBORw0KGgoAAAANSUhEUgAAAW4AAABQCAYAAAA5pZ/mAAAAAXNSR0IArs4c6QAAAARnQU1BAACxjwv8YQUAAAAJcEhZcwAADsMAAA7DAcdvqGQAAA31SURBVHhe7d1vaBvnHQfwX5bYIQ4dZIWSljBVK4JApiUvOujAaYUwJqFxaRQEgxaGyozbFdwZyqAadHEN57EXs2toE9dselMGRaAwu9DgGk3pDP3DyiiiYGqKoibtaF+0pSMb6apkz++5506P5LvTST7FOuX7gWt0d7q7x4J+9ejR6fntOn78+M1PPvmEAAAgHL6n/gUAgJBAcAMAhAyCGwAgZBDcAAAh03dfTp49e5YOHDig1vz56quv5HEAAGHQd8H94osv0vPPP6/W/HnhhRfomWeeUWsu0ku0aSTUClE1l6IRo6zWPMSztFZIUjE1Qn6e3kp6aZMMylJsPK+2tCNNS5sTVGmjLdu7XjPt+uKcgb0uAb/GAL2up4ZKDh06pB71GBnaUcqlYhSL8ZKiYrJAa9m4eoKHskEjsYACRQTURLREpegE+bn0tnXzett6XfgNYK3epiBfY4AQ6JngPnLkiOwtB2X3wG66f/x+enTpUTr18im698F75fbHX3+84d/W4pSdSFApqwdDmYypHFFmUkTIrRMfSxIVF2ihSJQc635y3+rrAYA/PRHcHNqGYdDQ0JDasn3HfnGM9t6xl5afWqbXf/U6XXn3ypbQ9hXe8TFKRkq02jxSUF6hYjVKMZlnqgeYFT3zzU251HvjTb1D/livnsPLkp38XudgcZI5ulIWl5ZJKrZYzGOXltbEcUvqzUS84aw5XUc4XG+D+6eG1tfLpp3O47VP1/S6uLSXh2qsbZtyIx9nUIIilCno24J4jQHCYceDm0N7dnaWBgcH1ZZgRBNRej/3Pt347oZcr12v0aunXpWPm/9tqVqhDfWwUYSih9VDDpLoqjmUki1RxLE3LoKjkKFKVg25pHIUNfTw8jgHv4FQkUSOmm8aYq2xEyzaUpkSx45TXoZggZLFlHkusdSHqMU1JoimPNsp+LiefR7xd1BmrvHvcN3nxL29+XFzPRbLUinBQzZ5GufHVDWHrraMvW/jNQYIiR0Nbiu0BwYG1Jbg7Nm7h27Wbqo1U0c9bhaJkp3PDapUsRNdBMmClTarIlis3rgmHhNbtd572aDFkh7+7ucwhy1WyBytKRN3gjOTeuRUZe9YUp8SFh0HfcU1pgzzPG7tFPxczz6P09/hus+BV3v5+wXZO+Zetg/beI0BwmLHgruboc0+/cenFP+5+D9S/IW7du2igaGBznrcckgkQaPN3TIZNhXadMia4KVpMhMRvcOC/RG/INYpMdql3mK714tTLKoebuG1rwUe8jCIsrLHnaJcVW0HuM3tSHDz3SN8C163Qpu9d+49GvrBEKX+lKKxl8fo4E8Oyu1tD5OIfqOxWKKEYY0dM/PjuOi6kdWx86W8SRXRb7TfBPiujYTD+Hmz9CglqjlKyQCzFg4yhzcUpt5sJtoav9XGiX1dL1L/wlL1mOt/h9c+B27tPRyliDVMJc8jt3rr9DUGCJEdCe6rV6/SmTNn6OTJk1uWoFz/5jq99fu3RE+xIL+gvPLOFbWnA/lximWJDNX75I/tohvo7z7uBnkal2Ou6jzy3mMek/aWHk1Q1R62sPDwRVV0gh2Tm4yRLFW0HnPDl5Mt+LtelSrROfV38Jiy/nd47XPi0t78AuUoQwXeNhelit3jztNqKaJ9Oanr7DUGCBP8AEfw9QMc0HDv3O2HPF77ACAI+Mm7gJ+8twvBDbCTUEgBOoDgBthJCG4AgJDZ0fu4AQCgfQhuAICQQXADAIQMghsAIGQQ3AAAIRP6u0p4zpMPP/xQrd1abvOH48c8ANBNoe9xz8zMyPDuBg5mfXHCv9LUF3d8f7P6GbZaemMuaG6XPu1pQOSc2F04LwCEP7j37dtH09PTXQtvPZBPnDjRsLSvqpU/U3NztDOJSJignBhA1/TFGPf8/HxXw7s7zMmQql2bmhUA+lVfBPf6+nrXwpsnoOKFXbx4US7PPfecXI4dO0bLy8v20rbmub4bSm5Z08iqoQy3UmBex7iV6NKOWcvG1Ealk/M5lh1rGoJxPK9HeTUAcNU3d5VweF+4cEGG9/79+9XWzly6dEkuHMy88JeNzV84plKphoVZAd8ZEXRyClI1lJIlbX5qt1JgLY5xLNHFx9RLe01RUqss08n5vMqkWVzOm56kTCXrcRwAOOmb4Oae9unTp2XP+9q1a2pr5/RAfuyxxxoWN04B35oqfyZLbqk5prkHaiQoYtfbcikF1uoYpxJdfEw1R9ausrEo9ikdnc+j7JjF7bwbFaomjB75khYgPPoiuDm0uafNoc0976BxD15fArOl/FlJlelSi2MXtLkUmJ9j2hH0+SwO55VfYHKv3yy6gKESAH/6Iri7EdqFQkEu7JVXXmlYgmENWajqLKrk1pbyXZJLKTDPY1zwMZEMWXV/49mJ+lBJR+fzUSatxXnLxgilclWKomovgC+hD+5arRZ4aD/00EMNixMr2PWAb00bLpBzVuvjuuZdJuIJar9Y7C6oWykwr2PciGOyXEPTfP4cFUVf2NLJ+fyUSXM5r13BnYsRV7yHWwDAFvpfTg4PD3dleKR3iJ45ChMAgCb0Pe7+Dm0AgK365q4SAIDbBUqXAQCEDHrcAAAhg+AGAAgZBDcAQMgguAEAQgbBDQAQMrirxMXbhSm6+67vq7W6//z3W3riN3+hd/5ZVVsAAG4tBLeLy+u/o/k/138Mbrk//kMa/umP1Fqjf33xDf0sNafW3KWXNsmgbNMETj32C0meP1tOxYpfbAL0mr4M7kOHDtHVq1fVWmc4uJ1c//Y7+uubH9Bnn/9bban79RMJund4Wq254ECci1KFxDKlh2K7wR100OOn9QBh0Xdj3DzFq1th33Zxj7t5OffqumNo+xUfSxIVF2ihSPUZ/wAA2tBXwc2hbRgGDQ0NqS29Jk4yt1fKVF6RyS22NDmslxWz9jaX+OLesUEJa7ZBOR0fb1ujpaU18RyzNBgPyVjHNM7y5/989Sbopcf0GQDV8xzLmqE0GUA39E1wc2jPzs7S4OCg2tKDeC5tKpLIbXMea7HW2OkWwelUomxLia88jceyVOKqNFwOzB4rj1C0MiWeY077mh9XRQv4uYkJFcJOpcbczmcR4ayVO+O2RQ0t1LndTmXNUJoMoCv6Irit0B4YGFBbepM5TLJiliAT/+VOd8aqaCC5lCjzXeKrKnvzNnu+a+5NK35KjTWTpcdU8Qamt01yKWuG0mQAXRH64A5LaHOvdTITEb3RejGBglinxKjZO91CK1HWSYkvHtowSJULS1FuJ+5eRGkygK4IdXDz3SNcWb33Q1tIj1KimqOUGjYwFw7UBI3ageZSokxpq8TX4ShFqhXiOsTmueRWcRIfpcaaqdJjdjvFm8JEorFtXlCaDCBYoQ5uvuXvzJkzdPLkyS1Lr0mPJqhqD5NYeLikKjrdViK6lChzLPGVp9WS/mVik/wC5ShDBT6Obz+0e9xupca8zmeWHouqcmeb8v5uq3yaB5QmA+gK/ADHhdsvJ734/QEOAMB2ILgBAEKmb24HBAC4XSC4AQBCBsENABAyCG4AgJBBcAMAhAyCGwAgZBDcAAAhg+BWeM4TAIAwQHArMzMzIQlvnv/anG/bfKx+hi4XfarV7WiaizsI2s/frfnCt03OER5wOwFCAMGt7Nu3j6anp7sS3nfedyed+sMpmnhzgp7621P0yB8fUXuIdu/dTU8Wn9zy2D81h3YsRuYU3lna+RxrCv6GmQrFkqpQLIjklrMPotQa3H4Q3Jr5+fnAw/tA5AClzqXoRu0GrTy7Qq9lXqONi3LOPjOo156k3QO76em/P20/bj+8TWVjkUqR5uIMPUCfqZCJwDV8ziwIAFshuDXr6+uBh/cDv3yAvr78Nb3x2zfosw8+oy8vf0kfrX4k99Wu1+j8yHmq/a9GLx1/yX58Pnle7t8es9erlzJzLz8maPvWsjG1kTUPmzSv+yiDxsUVIhmacxrTaGiTPgRktX2N1sT5G9rKwy5r/MmiVVuszU7XaOZ0LEqvQW9CcDfh8L5w4YIM7/3796utnbv72N308aWP6eaNm2pL98SzE5SoqtJokl7KTISca/mxxn1TlKxXzPHktwwab0tRMWlOJVsPQL4uTxGr2pQlbZ5wq+0jNLJY0qa+FUeNJqi0qCoF2Zzawtu9rmFxORal16BHIbibcE/79OnTsud97do1tbVzewb3yF60k2CGSlTPVgQiz3mdHdEDTStl5lV+jPdVc2RVH5NDLuZDb22VQeN5wEUAqnm9ZXjLNtXbv2mIfrpdD01rO/fY7UpBaRqN1ttqc2uL5zUUt2NReg16FIJbw6HNPW0Obe55B+Hzjc/pvgfvU2uNghkqqX85aRUJ7mniDWMqpxePKNW/tOTFsVubp4VcVPaU+VNFdEtBilb8XMMBSq9Bj0Jwa4IObfb2ubfp4I8P0ujZUbrn6D108MhBOpo+qvaq8FZBrT8OnFf5Md4XyZBVt1gOuZgPhQ2qVLXCwFyCTT30XQYtnW0Yhx5LRqha2bDb5KeMWpkrKycnaTLpUknHrS2u19DGx1v8HSi9Br0Gwa3UarXAQ5t9sfEFLT+7THfcdQc9PPswnZg5Ie80ufW8yo+JfdkSJdS+OSpqQyVlMniM2TpulPuvFp9l0PKbFLWGKjYLctx4RIav2SbxRPt4xzJsjMNVBHCisqra3My9La2v4XIsSq9Bj0IFHGV4eDjw0AYA6Ab0uBWENgCEBYIbACBkENwAACGD4AYACBkENwBAyCC4AQBCBsENABAqRP8HInxnjH40sjAAAAAASUVORK5CYII=;" vertex="1" parent="1">
          <mxGeometry x="1275" y="1200" width="366" height="80" as="geometry" />
        </mxCell>
        <mxCell id="rWH31zUBPXZAnD3ZXqds-64" value="Domain Projesi" style="text;html=1;strokeColor=none;fillColor=none;align=center;verticalAlign=middle;whiteSpace=wrap;rounded=0;fontStyle=1;fontSize=13;" vertex="1" parent="1">
          <mxGeometry x="880" y="1170" width="100" height="30" as="geometry" />
        </mxCell>
        <mxCell id="rWH31zUBPXZAnD3ZXqds-65" value="Application Projesi" style="text;html=1;strokeColor=none;fillColor=none;align=center;verticalAlign=middle;whiteSpace=wrap;rounded=0;fontStyle=1;fontSize=13;" vertex="1" parent="1">
          <mxGeometry x="1275" y="1170" width="135" height="30" as="geometry" />
        </mxCell>
        <mxCell id="rWH31zUBPXZAnD3ZXqds-66" value="Infrastructure ve Persistence Projeleri" style="text;html=1;strokeColor=none;fillColor=none;align=center;verticalAlign=middle;whiteSpace=wrap;rounded=0;fontStyle=1;fontSize=13;" vertex="1" parent="1">
          <mxGeometry x="879" y="1330" width="251" height="30" as="geometry" />
        </mxCell>
        <mxCell id="rWH31zUBPXZAnD3ZXqds-67" value="Web API Projesi" style="text;html=1;strokeColor=none;fillColor=none;align=center;verticalAlign=middle;whiteSpace=wrap;rounded=0;fontStyle=1;fontSize=13;" vertex="1" parent="1">
          <mxGeometry x="1280" y="1330" width="115" height="30" as="geometry" />
        </mxCell>
        <mxCell id="rWH31zUBPXZAnD3ZXqds-70" value="" style="rounded=0;whiteSpace=wrap;html=1;fillColor=none;" vertex="1" parent="1">
          <mxGeometry x="850" y="1160" width="830" height="400" as="geometry" />
        </mxCell>
        <mxCell id="rWH31zUBPXZAnD3ZXqds-72" value="" style="rounded=0;whiteSpace=wrap;html=1;fillColor=#dae8fc;strokeColor=#6c8ebf;" vertex="1" parent="1">
          <mxGeometry x="1840" y="486" width="340" height="90" as="geometry" />
        </mxCell>
        <mxCell id="rWH31zUBPXZAnD3ZXqds-74" value="IoC Container" style="text;html=1;align=center;verticalAlign=middle;resizable=0;points=[];autosize=1;strokeColor=none;fillColor=none;fontStyle=1" vertex="1" parent="1">
          <mxGeometry x="1840" y="456" width="100" height="30" as="geometry" />
        </mxCell>
        <mxCell id="rWH31zUBPXZAnD3ZXqds-75" value="IProductService" style="text;html=1;strokeColor=none;fillColor=none;align=center;verticalAlign=middle;whiteSpace=wrap;rounded=0;" vertex="1" parent="1">
          <mxGeometry x="1850" y="511" width="100" height="30" as="geometry" />
        </mxCell>
        <mxCell id="rWH31zUBPXZAnD3ZXqds-76" value="" style="endArrow=classic;html=1;rounded=0;exitX=1;exitY=0.5;exitDx=0;exitDy=0;entryX=0;entryY=0.5;entryDx=0;entryDy=0;" edge="1" parent="1" source="rWH31zUBPXZAnD3ZXqds-75" target="rWH31zUBPXZAnD3ZXqds-78">
          <mxGeometry width="50" height="50" relative="1" as="geometry">
            <mxPoint x="1960" y="527" as="sourcePoint" />
            <mxPoint x="2010" y="477" as="targetPoint" />
          </mxGeometry>
        </mxCell>
        <mxCell id="rWH31zUBPXZAnD3ZXqds-78" value="ProductService" style="text;html=1;strokeColor=none;fillColor=none;align=center;verticalAlign=middle;whiteSpace=wrap;rounded=0;" vertex="1" parent="1">
          <mxGeometry x="2030" y="511" width="100" height="30" as="geometry" />
        </mxCell>
        <mxCell id="rWH31zUBPXZAnD3ZXqds-82" value="" style="rounded=0;whiteSpace=wrap;html=1;fillColor=none;strokeColor=#FFFFFF;" vertex="1" parent="1">
          <mxGeometry x="1450" y="522" width="170" height="19" as="geometry" />
        </mxCell>
        <mxCell id="rWH31zUBPXZAnD3ZXqds-84" value="IProductService Talebi" style="text;html=1;strokeColor=none;fillColor=none;align=center;verticalAlign=middle;whiteSpace=wrap;rounded=0;fontColor=#FFFFFF;" vertex="1" parent="1">
          <mxGeometry x="1641" y="495.04" width="59" height="30" as="geometry" />
        </mxCell>
        <mxCell id="rWH31zUBPXZAnD3ZXqds-85" value="" style="endArrow=classic;html=1;rounded=0;fillColor=#d5e8d4;strokeColor=#82b366;exitX=1;exitY=0.25;exitDx=0;exitDy=0;entryX=-0.001;entryY=0.458;entryDx=0;entryDy=0;entryPerimeter=0;" edge="1" parent="1" source="rWH31zUBPXZAnD3ZXqds-82" target="rWH31zUBPXZAnD3ZXqds-72">
          <mxGeometry width="50" height="50" relative="1" as="geometry">
            <mxPoint x="1720" y="490" as="sourcePoint" />
            <mxPoint x="1770" y="440" as="targetPoint" />
          </mxGeometry>
        </mxCell>
        <mxCell id="rWH31zUBPXZAnD3ZXqds-86" value="" style="endArrow=classic;html=1;rounded=0;fillColor=#dae8fc;strokeColor=#6c8ebf;entryX=1;entryY=0.75;entryDx=0;entryDy=0;" edge="1" parent="1" target="rWH31zUBPXZAnD3ZXqds-82">
          <mxGeometry width="50" height="50" relative="1" as="geometry">
            <mxPoint x="1840" y="536" as="sourcePoint" />
            <mxPoint x="1870" y="500" as="targetPoint" />
          </mxGeometry>
        </mxCell>
        <mxCell id="rWH31zUBPXZAnD3ZXqds-87" value="ProductService Nesnesi" style="text;html=1;strokeColor=none;fillColor=none;align=center;verticalAlign=middle;whiteSpace=wrap;rounded=0;" vertex="1" parent="1">
          <mxGeometry x="1760" y="541" width="60" height="30" as="geometry" />
        </mxCell>
        <mxCell id="rWH31zUBPXZAnD3ZXqds-89" value="" style="rounded=0;whiteSpace=wrap;html=1;fillColor=none;strokeColor=#FFFFFF;" vertex="1" parent="1">
          <mxGeometry x="1436" y="336.57" width="170" height="17" as="geometry" />
        </mxCell>
        <mxCell id="rWH31zUBPXZAnD3ZXqds-91" value="" style="endArrow=classic;html=1;rounded=0;exitX=1;exitY=0.5;exitDx=0;exitDy=0;entryX=0.5;entryY=0;entryDx=0;entryDy=0;fillColor=#fff2cc;strokeColor=#d6b656;" edge="1" parent="1" source="rWH31zUBPXZAnD3ZXqds-89" target="rWH31zUBPXZAnD3ZXqds-72">
          <mxGeometry width="50" height="50" relative="1" as="geometry">
            <mxPoint x="1710" y="440" as="sourcePoint" />
            <mxPoint x="1760" y="390" as="targetPoint" />
            <Array as="points">
              <mxPoint x="2010" y="345" />
            </Array>
          </mxGeometry>
        </mxCell>
        <mxCell id="rWH31zUBPXZAnD3ZXqds-92" value="Extension servisleri container&#39;a ekler." style="text;html=1;strokeColor=none;fillColor=none;align=center;verticalAlign=middle;whiteSpace=wrap;rounded=0;" vertex="1" parent="1">
          <mxGeometry x="1750" y="360" width="220" height="30" as="geometry" />
        </mxCell>
        <mxCell id="rWH31zUBPXZAnD3ZXqds-93" value="" style="endArrow=classic;html=1;rounded=0;exitX=0;exitY=0.5;exitDx=0;exitDy=0;entryX=0;entryY=0.5;entryDx=0;entryDy=0;fillColor=#ffe6cc;strokeColor=#d79b00;" edge="1" parent="1" source="rWH31zUBPXZAnD3ZXqds-94" target="rWH31zUBPXZAnD3ZXqds-89">
          <mxGeometry width="50" height="50" relative="1" as="geometry">
            <mxPoint x="1350" y="449" as="sourcePoint" />
            <mxPoint x="1360" y="340" as="targetPoint" />
            <Array as="points">
              <mxPoint x="1360" y="567" />
              <mxPoint x="1360" y="345" />
            </Array>
          </mxGeometry>
        </mxCell>
        <mxCell id="rWH31zUBPXZAnD3ZXqds-94" value="" style="rounded=0;whiteSpace=wrap;html=1;fillColor=none;strokeColor=#FFFFFF;" vertex="1" parent="1">
          <mxGeometry x="1436" y="557" width="170" height="19" as="geometry" />
        </mxCell>
        <mxCell id="rWH31zUBPXZAnD3ZXqds-95" value="Program.cs iÃ§erisinden ServiceRegistration iÃ§erisindeki extension Ã§alÄ±ÅtÄ±rÄ±lÄ±r." style="text;html=1;strokeColor=none;fillColor=none;align=center;verticalAlign=middle;whiteSpace=wrap;rounded=0;" vertex="1" parent="1">
          <mxGeometry x="1356" y="374" width="250" height="30" as="geometry" />
        </mxCell>
        <mxCell id="rWH31zUBPXZAnD3ZXqds-96" value="" style="rounded=0;whiteSpace=wrap;html=1;fillColor=none;strokeColor=#FFFFFF;" vertex="1" parent="1">
          <mxGeometry x="1460" y="181" width="170" height="17" as="geometry" />
        </mxCell>
        <mxCell id="rWH31zUBPXZAnD3ZXqds-97" value="" style="rounded=0;whiteSpace=wrap;html=1;fillColor=none;strokeColor=#FFFFFF;" vertex="1" parent="1">
          <mxGeometry x="1860" y="216" width="170" height="17" as="geometry" />
        </mxCell>
        <mxCell id="rWH31zUBPXZAnD3ZXqds-98" value="" style="rounded=0;whiteSpace=wrap;html=1;fillColor=none;strokeColor=#FFFFFF;" vertex="1" parent="1">
          <mxGeometry x="1436" y="320.68" width="170" height="15" as="geometry" />
        </mxCell>
        <mxCell id="rWH31zUBPXZAnD3ZXqds-100" value="" style="endArrow=classic;html=1;rounded=0;exitX=1;exitY=0.5;exitDx=0;exitDy=0;fillColor=#ffe6cc;strokeColor=#d79b00;" edge="1" parent="1" source="rWH31zUBPXZAnD3ZXqds-98">
          <mxGeometry width="50" height="50" relative="1" as="geometry">
            <mxPoint x="1472" y="327.18000000000006" as="sourcePoint" />
            <mxPoint x="1646" y="344" as="targetPoint" />
            <Array as="points">
              <mxPoint x="1646" y="328" />
            </Array>
          </mxGeometry>
        </mxCell>
        <mxCell id="rWH31zUBPXZAnD3ZXqds-101" value="" style="endArrow=classic;html=1;rounded=0;fillColor=#ffe6cc;strokeColor=#d79b00;exitX=1;exitY=0.5;exitDx=0;exitDy=0;" edge="1" parent="1" source="rWH31zUBPXZAnD3ZXqds-96">
          <mxGeometry width="50" height="50" relative="1" as="geometry">
            <mxPoint x="1630" y="188.49999999999994" as="sourcePoint" />
            <mxPoint x="1660" y="344" as="targetPoint" />
            <Array as="points">
              <mxPoint x="1658" y="189" />
              <mxPoint x="1660" y="328" />
            </Array>
          </mxGeometry>
        </mxCell>
        <mxCell id="rWH31zUBPXZAnD3ZXqds-102" value="" style="endArrow=classic;html=1;rounded=0;fillColor=#d5e8d4;strokeColor=#82b366;exitX=0.75;exitY=0;exitDx=0;exitDy=0;entryX=0;entryY=0.75;entryDx=0;entryDy=0;" edge="1" parent="1" source="rWH31zUBPXZAnD3ZXqds-98" target="rWH31zUBPXZAnD3ZXqds-97">
          <mxGeometry width="50" height="50" relative="1" as="geometry">
            <mxPoint x="1610" y="370" as="sourcePoint" />
            <mxPoint x="1660" y="320" as="targetPoint" />
            <Array as="points">
              <mxPoint x="1564" y="299" />
              <mxPoint x="1780" y="300" />
              <mxPoint x="1780" y="228" />
            </Array>
          </mxGeometry>
        </mxCell>
        <mxCell id="rWH31zUBPXZAnD3ZXqds-104" value="Onion Arch." style="text;html=1;strokeColor=none;fillColor=none;align=center;verticalAlign=middle;whiteSpace=wrap;rounded=0;fontStyle=1;fontSize=16;" vertex="1" parent="1">
          <mxGeometry x="1320" y="40" width="130" height="30" as="geometry" />
        </mxCell>
        <mxCell id="rWH31zUBPXZAnD3ZXqds-105" value="" style="rounded=0;whiteSpace=wrap;html=1;fillColor=none;" vertex="1" parent="1">
          <mxGeometry x="1380" y="426" width="810" height="164" as="geometry" />
        </mxCell>
        <mxCell id="rWH31zUBPXZAnD3ZXqds-106" value="API Projesi" style="text;html=1;strokeColor=none;fillColor=none;align=center;verticalAlign=middle;whiteSpace=wrap;rounded=0;fontStyle=1;fontSize=14;" vertex="1" parent="1">
          <mxGeometry x="2100" y="396" width="90" height="30" as="geometry" />
        </mxCell>
      </root>
    </mxGraphModel>
  </diagram>
</mxfile>
